<?xml version="1.0" encoding="utf-8" standalone="no"?>
<!DOCTYPE svg PUBLIC "-//W3C//DTD SVG 1.1//EN"
  "http://www.w3.org/Graphics/SVG/1.1/DTD/svg11.dtd">
<svg xmlns:xlink="http://www.w3.org/1999/xlink" width="403.983071pt" height="337.333203pt" viewBox="0 0 403.983071 337.333203" xmlns="http://www.w3.org/2000/svg" version="1.1">
 <metadata>
  <rdf:RDF xmlns:dc="http://purl.org/dc/elements/1.1/" xmlns:cc="http://creativecommons.org/ns#" xmlns:rdf="http://www.w3.org/1999/02/22-rdf-syntax-ns#">
   <cc:Work>
    <dc:type rdf:resource="http://purl.org/dc/dcmitype/StillImage"/>
    <dc:date>2025-09-17T15:00:42.972206</dc:date>
    <dc:format>image/svg+xml</dc:format>
    <dc:creator>
     <cc:Agent>
      <dc:title>Matplotlib v3.7.5, https://matplotlib.org/</dc:title>
     </cc:Agent>
    </dc:creator>
   </cc:Work>
  </rdf:RDF>
 </metadata>
 <defs>
  <style type="text/css">*{stroke-linejoin: round; stroke-linecap: butt}</style>
 </defs>
 <g id="figure_1">
  <g id="patch_1">
   <path d="M 0 337.333203 
L 403.983071 337.333203 
L 403.983071 0 
L 0 0 
z
" style="fill: #ffffff"/>
  </g>
  <g id="axes_1">
   <g id="patch_2">
    <path d="M 61.348438 290.098828 
L 396.148438 290.098828 
L 396.148438 12.898828 
L 61.348438 12.898828 
z
" style="fill: #ffffff"/>
   </g>
   <g id="matplotlib.axis_1">
    <g id="xtick_1">
     <g id="line2d_1">
      <path d="M 75.029429 290.098828 
L 75.029429 12.898828 
" clip-path="url(#pecb948484a)" style="fill: none; stroke: #b0b0b0; stroke-width: 0.8; stroke-linecap: square"/>
     </g>
     <g id="line2d_2">
      <defs>
       <path id="m8375d7757e" d="M 0 0 
L 0 3.5 
" style="stroke: #000000; stroke-width: 0.8"/>
      </defs>
      <g>
       <use xlink:href="#m8375d7757e" x="75.029429" y="290.098828" style="stroke: #000000; stroke-width: 0.8"/>
      </g>
     </g>
     <g id="text_1">
      <!-- 0 -->
      <g transform="translate(70.257554 308.496484) scale(0.15 -0.15)">
       <defs>
        <path id="DejaVuSans-30" d="M 2034 4250 
Q 1547 4250 1301 3770 
Q 1056 3291 1056 2328 
Q 1056 1369 1301 889 
Q 1547 409 2034 409 
Q 2525 409 2770 889 
Q 3016 1369 3016 2328 
Q 3016 3291 2770 3770 
Q 2525 4250 2034 4250 
z
M 2034 4750 
Q 2819 4750 3233 4129 
Q 3647 3509 3647 2328 
Q 3647 1150 3233 529 
Q 2819 -91 2034 -91 
Q 1250 -91 836 529 
Q 422 1150 422 2328 
Q 422 3509 836 4129 
Q 1250 4750 2034 4750 
z
" transform="scale(0.015625)"/>
       </defs>
       <use xlink:href="#DejaVuSans-30"/>
      </g>
     </g>
    </g>
    <g id="xtick_2">
     <g id="line2d_3">
      <path d="M 151.888933 290.098828 
L 151.888933 12.898828 
" clip-path="url(#pecb948484a)" style="fill: none; stroke: #b0b0b0; stroke-width: 0.8; stroke-linecap: square"/>
     </g>
     <g id="line2d_4">
      <g>
       <use xlink:href="#m8375d7757e" x="151.888933" y="290.098828" style="stroke: #000000; stroke-width: 0.8"/>
      </g>
     </g>
     <g id="text_2">
      <!-- 50 -->
      <g transform="translate(142.345183 308.496484) scale(0.15 -0.15)">
       <defs>
        <path id="DejaVuSans-35" d="M 691 4666 
L 3169 4666 
L 3169 4134 
L 1269 4134 
L 1269 2991 
Q 1406 3038 1543 3061 
Q 1681 3084 1819 3084 
Q 2600 3084 3056 2656 
Q 3513 2228 3513 1497 
Q 3513 744 3044 326 
Q 2575 -91 1722 -91 
Q 1428 -91 1123 -41 
Q 819 9 494 109 
L 494 744 
Q 775 591 1075 516 
Q 1375 441 1709 441 
Q 2250 441 2565 725 
Q 2881 1009 2881 1497 
Q 2881 1984 2565 2268 
Q 2250 2553 1709 2553 
Q 1456 2553 1204 2497 
Q 953 2441 691 2322 
L 691 4666 
z
" transform="scale(0.015625)"/>
       </defs>
       <use xlink:href="#DejaVuSans-35"/>
       <use xlink:href="#DejaVuSans-30" x="63.623047"/>
      </g>
     </g>
    </g>
    <g id="xtick_3">
     <g id="line2d_5">
      <path d="M 228.748438 290.098828 
L 228.748438 12.898828 
" clip-path="url(#pecb948484a)" style="fill: none; stroke: #b0b0b0; stroke-width: 0.8; stroke-linecap: square"/>
     </g>
     <g id="line2d_6">
      <g>
       <use xlink:href="#m8375d7757e" x="228.748438" y="290.098828" style="stroke: #000000; stroke-width: 0.8"/>
      </g>
     </g>
     <g id="text_3">
      <!-- 100 -->
      <g transform="translate(214.432813 308.496484) scale(0.15 -0.15)">
       <defs>
        <path id="DejaVuSans-31" d="M 794 531 
L 1825 531 
L 1825 4091 
L 703 3866 
L 703 4441 
L 1819 4666 
L 2450 4666 
L 2450 531 
L 3481 531 
L 3481 0 
L 794 0 
L 794 531 
z
" transform="scale(0.015625)"/>
       </defs>
       <use xlink:href="#DejaVuSans-31"/>
       <use xlink:href="#DejaVuSans-30" x="63.623047"/>
       <use xlink:href="#DejaVuSans-30" x="127.246094"/>
      </g>
     </g>
    </g>
    <g id="xtick_4">
     <g id="line2d_7">
      <path d="M 305.607942 290.098828 
L 305.607942 12.898828 
" clip-path="url(#pecb948484a)" style="fill: none; stroke: #b0b0b0; stroke-width: 0.8; stroke-linecap: square"/>
     </g>
     <g id="line2d_8">
      <g>
       <use xlink:href="#m8375d7757e" x="305.607942" y="290.098828" style="stroke: #000000; stroke-width: 0.8"/>
      </g>
     </g>
     <g id="text_4">
      <!-- 150 -->
      <g transform="translate(291.292317 308.496484) scale(0.15 -0.15)">
       <use xlink:href="#DejaVuSans-31"/>
       <use xlink:href="#DejaVuSans-35" x="63.623047"/>
       <use xlink:href="#DejaVuSans-30" x="127.246094"/>
      </g>
     </g>
    </g>
    <g id="xtick_5">
     <g id="line2d_9">
      <path d="M 382.467446 290.098828 
L 382.467446 12.898828 
" clip-path="url(#pecb948484a)" style="fill: none; stroke: #b0b0b0; stroke-width: 0.8; stroke-linecap: square"/>
     </g>
     <g id="line2d_10">
      <g>
       <use xlink:href="#m8375d7757e" x="382.467446" y="290.098828" style="stroke: #000000; stroke-width: 0.8"/>
      </g>
     </g>
     <g id="text_5">
      <!-- 200 -->
      <g transform="translate(368.151821 308.496484) scale(0.15 -0.15)">
       <defs>
        <path id="DejaVuSans-32" d="M 1228 531 
L 3431 531 
L 3431 0 
L 469 0 
L 469 531 
Q 828 903 1448 1529 
Q 2069 2156 2228 2338 
Q 2531 2678 2651 2914 
Q 2772 3150 2772 3378 
Q 2772 3750 2511 3984 
Q 2250 4219 1831 4219 
Q 1534 4219 1204 4116 
Q 875 4013 500 3803 
L 500 4441 
Q 881 4594 1212 4672 
Q 1544 4750 1819 4750 
Q 2544 4750 2975 4387 
Q 3406 4025 3406 3419 
Q 3406 3131 3298 2873 
Q 3191 2616 2906 2266 
Q 2828 2175 2409 1742 
Q 1991 1309 1228 531 
z
" transform="scale(0.015625)"/>
       </defs>
       <use xlink:href="#DejaVuSans-32"/>
       <use xlink:href="#DejaVuSans-30" x="63.623047"/>
       <use xlink:href="#DejaVuSans-30" x="127.246094"/>
      </g>
     </g>
    </g>
    <g id="text_6">
     <!-- Epoch -->
     <g transform="translate(205.782031 327.013672) scale(0.15 -0.15)">
      <defs>
       <path id="DejaVuSans-45" d="M 628 4666 
L 3578 4666 
L 3578 4134 
L 1259 4134 
L 1259 2753 
L 3481 2753 
L 3481 2222 
L 1259 2222 
L 1259 531 
L 3634 531 
L 3634 0 
L 628 0 
L 628 4666 
z
" transform="scale(0.015625)"/>
       <path id="DejaVuSans-70" d="M 1159 525 
L 1159 -1331 
L 581 -1331 
L 581 3500 
L 1159 3500 
L 1159 2969 
Q 1341 3281 1617 3432 
Q 1894 3584 2278 3584 
Q 2916 3584 3314 3078 
Q 3713 2572 3713 1747 
Q 3713 922 3314 415 
Q 2916 -91 2278 -91 
Q 1894 -91 1617 61 
Q 1341 213 1159 525 
z
M 3116 1747 
Q 3116 2381 2855 2742 
Q 2594 3103 2138 3103 
Q 1681 3103 1420 2742 
Q 1159 2381 1159 1747 
Q 1159 1113 1420 752 
Q 1681 391 2138 391 
Q 2594 391 2855 752 
Q 3116 1113 3116 1747 
z
" transform="scale(0.015625)"/>
       <path id="DejaVuSans-6f" d="M 1959 3097 
Q 1497 3097 1228 2736 
Q 959 2375 959 1747 
Q 959 1119 1226 758 
Q 1494 397 1959 397 
Q 2419 397 2687 759 
Q 2956 1122 2956 1747 
Q 2956 2369 2687 2733 
Q 2419 3097 1959 3097 
z
M 1959 3584 
Q 2709 3584 3137 3096 
Q 3566 2609 3566 1747 
Q 3566 888 3137 398 
Q 2709 -91 1959 -91 
Q 1206 -91 779 398 
Q 353 888 353 1747 
Q 353 2609 779 3096 
Q 1206 3584 1959 3584 
z
" transform="scale(0.015625)"/>
       <path id="DejaVuSans-63" d="M 3122 3366 
L 3122 2828 
Q 2878 2963 2633 3030 
Q 2388 3097 2138 3097 
Q 1578 3097 1268 2742 
Q 959 2388 959 1747 
Q 959 1106 1268 751 
Q 1578 397 2138 397 
Q 2388 397 2633 464 
Q 2878 531 3122 666 
L 3122 134 
Q 2881 22 2623 -34 
Q 2366 -91 2075 -91 
Q 1284 -91 818 406 
Q 353 903 353 1747 
Q 353 2603 823 3093 
Q 1294 3584 2113 3584 
Q 2378 3584 2631 3529 
Q 2884 3475 3122 3366 
z
" transform="scale(0.015625)"/>
       <path id="DejaVuSans-68" d="M 3513 2113 
L 3513 0 
L 2938 0 
L 2938 2094 
Q 2938 2591 2744 2837 
Q 2550 3084 2163 3084 
Q 1697 3084 1428 2787 
Q 1159 2491 1159 1978 
L 1159 0 
L 581 0 
L 581 4863 
L 1159 4863 
L 1159 2956 
Q 1366 3272 1645 3428 
Q 1925 3584 2291 3584 
Q 2894 3584 3203 3211 
Q 3513 2838 3513 2113 
z
" transform="scale(0.015625)"/>
      </defs>
      <use xlink:href="#DejaVuSans-45"/>
      <use xlink:href="#DejaVuSans-70" x="63.183594"/>
      <use xlink:href="#DejaVuSans-6f" x="126.660156"/>
      <use xlink:href="#DejaVuSans-63" x="187.841797"/>
      <use xlink:href="#DejaVuSans-68" x="242.822266"/>
     </g>
    </g>
   </g>
   <g id="matplotlib.axis_2">
    <g id="ytick_1">
     <g id="line2d_11">
      <path d="M 61.348438 290.098828 
L 396.148438 290.098828 
" clip-path="url(#pecb948484a)" style="fill: none; stroke: #b0b0b0; stroke-width: 0.8; stroke-linecap: square"/>
     </g>
     <g id="line2d_12">
      <defs>
       <path id="madda626c99" d="M 0 0 
L -3.5 0 
" style="stroke: #000000; stroke-width: 0.8"/>
      </defs>
      <g>
       <use xlink:href="#madda626c99" x="61.348438" y="290.098828" style="stroke: #000000; stroke-width: 0.8"/>
      </g>
     </g>
     <g id="text_7">
      <!-- 0 -->
      <g transform="translate(44.804688 295.797656) scale(0.15 -0.15)">
       <use xlink:href="#DejaVuSans-30"/>
      </g>
     </g>
    </g>
    <g id="ytick_2">
     <g id="line2d_13">
      <path d="M 61.348438 234.658828 
L 396.148438 234.658828 
" clip-path="url(#pecb948484a)" style="fill: none; stroke: #b0b0b0; stroke-width: 0.8; stroke-linecap: square"/>
     </g>
     <g id="line2d_14">
      <g>
       <use xlink:href="#madda626c99" x="61.348438" y="234.658828" style="stroke: #000000; stroke-width: 0.8"/>
      </g>
     </g>
     <g id="text_8">
      <!-- 20 -->
      <g transform="translate(35.260938 240.357656) scale(0.15 -0.15)">
       <use xlink:href="#DejaVuSans-32"/>
       <use xlink:href="#DejaVuSans-30" x="63.623047"/>
      </g>
     </g>
    </g>
    <g id="ytick_3">
     <g id="line2d_15">
      <path d="M 61.348438 179.218828 
L 396.148438 179.218828 
" clip-path="url(#pecb948484a)" style="fill: none; stroke: #b0b0b0; stroke-width: 0.8; stroke-linecap: square"/>
     </g>
     <g id="line2d_16">
      <g>
       <use xlink:href="#madda626c99" x="61.348438" y="179.218828" style="stroke: #000000; stroke-width: 0.8"/>
      </g>
     </g>
     <g id="text_9">
      <!-- 40 -->
      <g transform="translate(35.260938 184.917656) scale(0.15 -0.15)">
       <defs>
        <path id="DejaVuSans-34" d="M 2419 4116 
L 825 1625 
L 2419 1625 
L 2419 4116 
z
M 2253 4666 
L 3047 4666 
L 3047 1625 
L 3713 1625 
L 3713 1100 
L 3047 1100 
L 3047 0 
L 2419 0 
L 2419 1100 
L 313 1100 
L 313 1709 
L 2253 4666 
z
" transform="scale(0.015625)"/>
       </defs>
       <use xlink:href="#DejaVuSans-34"/>
       <use xlink:href="#DejaVuSans-30" x="63.623047"/>
      </g>
     </g>
    </g>
    <g id="ytick_4">
     <g id="line2d_17">
      <path d="M 61.348438 123.778828 
L 396.148438 123.778828 
" clip-path="url(#pecb948484a)" style="fill: none; stroke: #b0b0b0; stroke-width: 0.8; stroke-linecap: square"/>
     </g>
     <g id="line2d_18">
      <g>
       <use xlink:href="#madda626c99" x="61.348438" y="123.778828" style="stroke: #000000; stroke-width: 0.8"/>
      </g>
     </g>
     <g id="text_10">
      <!-- 60 -->
      <g transform="translate(35.260938 129.477656) scale(0.15 -0.15)">
       <defs>
        <path id="DejaVuSans-36" d="M 2113 2584 
Q 1688 2584 1439 2293 
Q 1191 2003 1191 1497 
Q 1191 994 1439 701 
Q 1688 409 2113 409 
Q 2538 409 2786 701 
Q 3034 994 3034 1497 
Q 3034 2003 2786 2293 
Q 2538 2584 2113 2584 
z
M 3366 4563 
L 3366 3988 
Q 3128 4100 2886 4159 
Q 2644 4219 2406 4219 
Q 1781 4219 1451 3797 
Q 1122 3375 1075 2522 
Q 1259 2794 1537 2939 
Q 1816 3084 2150 3084 
Q 2853 3084 3261 2657 
Q 3669 2231 3669 1497 
Q 3669 778 3244 343 
Q 2819 -91 2113 -91 
Q 1303 -91 875 529 
Q 447 1150 447 2328 
Q 447 3434 972 4092 
Q 1497 4750 2381 4750 
Q 2619 4750 2861 4703 
Q 3103 4656 3366 4563 
z
" transform="scale(0.015625)"/>
       </defs>
       <use xlink:href="#DejaVuSans-36"/>
       <use xlink:href="#DejaVuSans-30" x="63.623047"/>
      </g>
     </g>
    </g>
    <g id="ytick_5">
     <g id="line2d_19">
      <path d="M 61.348438 68.338828 
L 396.148438 68.338828 
" clip-path="url(#pecb948484a)" style="fill: none; stroke: #b0b0b0; stroke-width: 0.8; stroke-linecap: square"/>
     </g>
     <g id="line2d_20">
      <g>
       <use xlink:href="#madda626c99" x="61.348438" y="68.338828" style="stroke: #000000; stroke-width: 0.8"/>
      </g>
     </g>
     <g id="text_11">
      <!-- 80 -->
      <g transform="translate(35.260938 74.037656) scale(0.15 -0.15)">
       <defs>
        <path id="DejaVuSans-38" d="M 2034 2216 
Q 1584 2216 1326 1975 
Q 1069 1734 1069 1313 
Q 1069 891 1326 650 
Q 1584 409 2034 409 
Q 2484 409 2743 651 
Q 3003 894 3003 1313 
Q 3003 1734 2745 1975 
Q 2488 2216 2034 2216 
z
M 1403 2484 
Q 997 2584 770 2862 
Q 544 3141 544 3541 
Q 544 4100 942 4425 
Q 1341 4750 2034 4750 
Q 2731 4750 3128 4425 
Q 3525 4100 3525 3541 
Q 3525 3141 3298 2862 
Q 3072 2584 2669 2484 
Q 3125 2378 3379 2068 
Q 3634 1759 3634 1313 
Q 3634 634 3220 271 
Q 2806 -91 2034 -91 
Q 1263 -91 848 271 
Q 434 634 434 1313 
Q 434 1759 690 2068 
Q 947 2378 1403 2484 
z
M 1172 3481 
Q 1172 3119 1398 2916 
Q 1625 2713 2034 2713 
Q 2441 2713 2670 2916 
Q 2900 3119 2900 3481 
Q 2900 3844 2670 4047 
Q 2441 4250 2034 4250 
Q 1625 4250 1398 4047 
Q 1172 3844 1172 3481 
z
" transform="scale(0.015625)"/>
       </defs>
       <use xlink:href="#DejaVuSans-38"/>
       <use xlink:href="#DejaVuSans-30" x="63.623047"/>
      </g>
     </g>
    </g>
    <g id="ytick_6">
     <g id="line2d_21">
      <path d="M 61.348438 12.898828 
L 396.148438 12.898828 
" clip-path="url(#pecb948484a)" style="fill: none; stroke: #b0b0b0; stroke-width: 0.8; stroke-linecap: square"/>
     </g>
     <g id="line2d_22">
      <g>
       <use xlink:href="#madda626c99" x="61.348438" y="12.898828" style="stroke: #000000; stroke-width: 0.8"/>
      </g>
     </g>
     <g id="text_12">
      <!-- 100 -->
      <g transform="translate(25.717188 18.597656) scale(0.15 -0.15)">
       <use xlink:href="#DejaVuSans-31"/>
       <use xlink:href="#DejaVuSans-30" x="63.623047"/>
       <use xlink:href="#DejaVuSans-30" x="127.246094"/>
      </g>
     </g>
    </g>
    <g id="text_13">
     <!-- Flip Rate (%) -->
     <g transform="translate(18.597656 199.680469) rotate(-90) scale(0.15 -0.15)">
      <defs>
       <path id="DejaVuSans-46" d="M 628 4666 
L 3309 4666 
L 3309 4134 
L 1259 4134 
L 1259 2759 
L 3109 2759 
L 3109 2228 
L 1259 2228 
L 1259 0 
L 628 0 
L 628 4666 
z
" transform="scale(0.015625)"/>
       <path id="DejaVuSans-6c" d="M 603 4863 
L 1178 4863 
L 1178 0 
L 603 0 
L 603 4863 
z
" transform="scale(0.015625)"/>
       <path id="DejaVuSans-69" d="M 603 3500 
L 1178 3500 
L 1178 0 
L 603 0 
L 603 3500 
z
M 603 4863 
L 1178 4863 
L 1178 4134 
L 603 4134 
L 603 4863 
z
" transform="scale(0.015625)"/>
       <path id="DejaVuSans-20" transform="scale(0.015625)"/>
       <path id="DejaVuSans-52" d="M 2841 2188 
Q 3044 2119 3236 1894 
Q 3428 1669 3622 1275 
L 4263 0 
L 3584 0 
L 2988 1197 
Q 2756 1666 2539 1819 
Q 2322 1972 1947 1972 
L 1259 1972 
L 1259 0 
L 628 0 
L 628 4666 
L 2053 4666 
Q 2853 4666 3247 4331 
Q 3641 3997 3641 3322 
Q 3641 2881 3436 2590 
Q 3231 2300 2841 2188 
z
M 1259 4147 
L 1259 2491 
L 2053 2491 
Q 2509 2491 2742 2702 
Q 2975 2913 2975 3322 
Q 2975 3731 2742 3939 
Q 2509 4147 2053 4147 
L 1259 4147 
z
" transform="scale(0.015625)"/>
       <path id="DejaVuSans-61" d="M 2194 1759 
Q 1497 1759 1228 1600 
Q 959 1441 959 1056 
Q 959 750 1161 570 
Q 1363 391 1709 391 
Q 2188 391 2477 730 
Q 2766 1069 2766 1631 
L 2766 1759 
L 2194 1759 
z
M 3341 1997 
L 3341 0 
L 2766 0 
L 2766 531 
Q 2569 213 2275 61 
Q 1981 -91 1556 -91 
Q 1019 -91 701 211 
Q 384 513 384 1019 
Q 384 1609 779 1909 
Q 1175 2209 1959 2209 
L 2766 2209 
L 2766 2266 
Q 2766 2663 2505 2880 
Q 2244 3097 1772 3097 
Q 1472 3097 1187 3025 
Q 903 2953 641 2809 
L 641 3341 
Q 956 3463 1253 3523 
Q 1550 3584 1831 3584 
Q 2591 3584 2966 3190 
Q 3341 2797 3341 1997 
z
" transform="scale(0.015625)"/>
       <path id="DejaVuSans-74" d="M 1172 4494 
L 1172 3500 
L 2356 3500 
L 2356 3053 
L 1172 3053 
L 1172 1153 
Q 1172 725 1289 603 
Q 1406 481 1766 481 
L 2356 481 
L 2356 0 
L 1766 0 
Q 1100 0 847 248 
Q 594 497 594 1153 
L 594 3053 
L 172 3053 
L 172 3500 
L 594 3500 
L 594 4494 
L 1172 4494 
z
" transform="scale(0.015625)"/>
       <path id="DejaVuSans-65" d="M 3597 1894 
L 3597 1613 
L 953 1613 
Q 991 1019 1311 708 
Q 1631 397 2203 397 
Q 2534 397 2845 478 
Q 3156 559 3463 722 
L 3463 178 
Q 3153 47 2828 -22 
Q 2503 -91 2169 -91 
Q 1331 -91 842 396 
Q 353 884 353 1716 
Q 353 2575 817 3079 
Q 1281 3584 2069 3584 
Q 2775 3584 3186 3129 
Q 3597 2675 3597 1894 
z
M 3022 2063 
Q 3016 2534 2758 2815 
Q 2500 3097 2075 3097 
Q 1594 3097 1305 2825 
Q 1016 2553 972 2059 
L 3022 2063 
z
" transform="scale(0.015625)"/>
       <path id="DejaVuSans-28" d="M 1984 4856 
Q 1566 4138 1362 3434 
Q 1159 2731 1159 2009 
Q 1159 1288 1364 580 
Q 1569 -128 1984 -844 
L 1484 -844 
Q 1016 -109 783 600 
Q 550 1309 550 2009 
Q 550 2706 781 3412 
Q 1013 4119 1484 4856 
L 1984 4856 
z
" transform="scale(0.015625)"/>
       <path id="DejaVuSans-25" d="M 4653 2053 
Q 4381 2053 4226 1822 
Q 4072 1591 4072 1178 
Q 4072 772 4226 539 
Q 4381 306 4653 306 
Q 4919 306 5073 539 
Q 5228 772 5228 1178 
Q 5228 1588 5073 1820 
Q 4919 2053 4653 2053 
z
M 4653 2450 
Q 5147 2450 5437 2106 
Q 5728 1763 5728 1178 
Q 5728 594 5436 251 
Q 5144 -91 4653 -91 
Q 4153 -91 3862 251 
Q 3572 594 3572 1178 
Q 3572 1766 3864 2108 
Q 4156 2450 4653 2450 
z
M 1428 4353 
Q 1159 4353 1004 4120 
Q 850 3888 850 3481 
Q 850 3069 1003 2837 
Q 1156 2606 1428 2606 
Q 1700 2606 1854 2837 
Q 2009 3069 2009 3481 
Q 2009 3884 1853 4118 
Q 1697 4353 1428 4353 
z
M 4250 4750 
L 4750 4750 
L 1831 -91 
L 1331 -91 
L 4250 4750 
z
M 1428 4750 
Q 1922 4750 2215 4408 
Q 2509 4066 2509 3481 
Q 2509 2891 2217 2550 
Q 1925 2209 1428 2209 
Q 931 2209 642 2551 
Q 353 2894 353 3481 
Q 353 4063 643 4406 
Q 934 4750 1428 4750 
z
" transform="scale(0.015625)"/>
       <path id="DejaVuSans-29" d="M 513 4856 
L 1013 4856 
Q 1481 4119 1714 3412 
Q 1947 2706 1947 2009 
Q 1947 1309 1714 600 
Q 1481 -109 1013 -844 
L 513 -844 
Q 928 -128 1133 580 
Q 1338 1288 1338 2009 
Q 1338 2731 1133 3434 
Q 928 4138 513 4856 
z
" transform="scale(0.015625)"/>
      </defs>
      <use xlink:href="#DejaVuSans-46"/>
      <use xlink:href="#DejaVuSans-6c" x="57.519531"/>
      <use xlink:href="#DejaVuSans-69" x="85.302734"/>
      <use xlink:href="#DejaVuSans-70" x="113.085938"/>
      <use xlink:href="#DejaVuSans-20" x="176.5625"/>
      <use xlink:href="#DejaVuSans-52" x="208.349609"/>
      <use xlink:href="#DejaVuSans-61" x="275.582031"/>
      <use xlink:href="#DejaVuSans-74" x="336.861328"/>
      <use xlink:href="#DejaVuSans-65" x="376.070312"/>
      <use xlink:href="#DejaVuSans-20" x="437.59375"/>
      <use xlink:href="#DejaVuSans-28" x="469.380859"/>
      <use xlink:href="#DejaVuSans-25" x="508.394531"/>
      <use xlink:href="#DejaVuSans-29" x="603.414062"/>
     </g>
    </g>
   </g>
   <g id="line2d_23">
    <path d="M 76.566619 151.292184 
L 78.103809 151.004678 
L 84.25257 152.073839 
L 85.78976 150.82948 
L 87.32695 151.116985 
L 88.86414 151.233784 
L 90.40133 151.013663 
L 95.0129 151.507813 
L 96.55009 152.599434 
L 98.08728 151.745903 
L 99.624471 152.53205 
L 101.161661 151.633596 
L 102.698851 151.597658 
L 104.236041 150.937294 
L 107.310421 152.168176 
L 108.847611 151.534766 
L 110.384801 149.656998 
L 111.921991 151.539259 
L 113.459181 151.99747 
L 114.996371 151.382029 
L 118.070752 151.453905 
L 119.607942 151.094524 
L 121.145132 151.943563 
L 122.682322 151.539259 
L 124.219512 150.407207 
L 125.756702 151.543751 
L 127.293892 151.148431 
L 128.831082 151.624612 
L 130.368272 151.795318 
L 131.905462 151.377537 
L 133.442652 152.437713 
L 134.979842 151.161908 
L 138.054223 150.816003 
L 139.591413 150.384745 
L 141.128603 151.130462 
L 142.665793 151.081047 
L 144.202983 151.642581 
L 147.277363 151.408983 
L 148.814553 151.723442 
L 150.351743 151.548243 
L 151.888933 152.275991 
L 153.426123 151.808795 
L 154.963314 151.804302 
L 156.500504 150.784557 
L 158.037694 150.973233 
L 159.574884 151.638088 
L 161.112074 150.982217 
L 162.649264 151.157416 
L 164.186454 152.311929 
L 167.260834 151.79981 
L 168.798024 151.12597 
L 170.335214 151.045109 
L 173.409595 151.575197 
L 174.946785 150.820495 
L 176.483975 151.206831 
L 179.558355 151.835748 
L 181.095545 151.2248 
L 182.632735 150.887879 
L 184.169925 152.406267 
L 188.781495 151.337106 
L 191.855876 152.019931 
L 193.393066 150.407207 
L 194.930256 151.238276 
L 196.467446 151.319137 
L 198.004636 151.804302 
L 199.541826 151.292184 
L 201.079016 152.316421 
L 202.616206 152.419743 
L 204.153396 151.835748 
L 205.690586 150.622836 
L 207.227776 151.975009 
L 208.764966 151.579689 
L 210.302157 152.0963 
L 211.839347 152.0963 
L 214.913727 151.197846 
L 216.450917 152.39279 
L 217.988107 151.031632 
L 219.525297 151.983993 
L 221.062487 151.948055 
L 222.599677 152.401774 
L 224.136867 151.193354 
L 225.674057 151.081047 
L 227.211247 150.820495 
L 228.748438 151.179877 
L 230.285628 151.669534 
L 231.822818 150.160132 
L 233.360008 152.284975 
L 234.897198 151.46289 
L 236.434388 151.408983 
L 237.971578 151.939071 
L 241.045958 149.841181 
L 242.583148 151.431444 
L 244.120338 151.75938 
L 245.657528 151.458398 
L 247.194718 151.826764 
L 248.731909 151.498828 
L 250.269099 151.975009 
L 251.806289 151.575197 
L 253.343479 152.060362 
L 254.880669 150.833972 
L 256.417859 151.399998 
L 259.492239 151.413475 
L 261.029429 151.584181 
L 262.566619 150.429668 
L 264.103809 151.606643 
L 265.640999 151.813287 
L 268.71538 150.636312 
L 270.25257 153.192414 
L 271.78976 151.952547 
L 273.32695 151.480859 
L 274.86414 151.453905 
L 276.40133 151.12597 
L 277.93852 151.534766 
L 279.47571 150.856434 
L 281.0129 150.735142 
L 282.55009 151.687503 
L 284.08728 151.081047 
L 285.624471 151.013663 
L 287.161661 151.624612 
L 288.698851 150.892372 
L 290.236041 150.59139 
L 293.310421 151.319137 
L 294.847611 151.157416 
L 297.921991 151.70098 
L 299.459181 150.959756 
L 300.996371 151.930086 
L 302.533561 152.1547 
L 304.070752 151.377537 
L 305.607942 151.786333 
L 307.145132 151.669534 
L 308.682322 151.683011 
L 310.219512 151.579689 
L 311.756702 151.359568 
L 313.293892 150.232008 
L 316.368272 152.042393 
L 317.905462 152.186145 
L 319.442652 150.887879 
L 320.979842 150.932802 
L 322.517033 152.024424 
L 325.591413 150.896864 
L 327.128603 150.699204 
L 330.202983 151.597658 
L 331.740173 151.849225 
L 333.277363 151.916609 
L 334.814553 151.70098 
L 336.351743 151.179877 
L 337.888933 150.941787 
L 339.426123 151.691996 
L 340.963314 151.629104 
L 342.500504 152.109777 
L 344.037694 151.413475 
L 345.574884 151.377537 
L 347.112074 151.853717 
L 348.649264 151.139447 
L 350.186454 151.054093 
L 351.723644 150.798034 
L 353.260834 150.950771 
L 354.798024 151.795318 
L 356.335214 149.845673 
L 357.872404 151.992978 
L 359.409595 150.807019 
L 360.946785 151.000186 
L 362.483975 152.0963 
L 364.021165 151.242769 
L 365.558355 151.494336 
L 367.095545 151.314645 
L 368.632735 151.009171 
L 370.169925 151.983993 
L 371.707115 150.726158 
L 373.244305 151.121477 
L 374.781495 151.786333 
L 376.318685 151.485351 
L 377.855876 151.741411 
L 379.393066 152.13673 
L 380.930256 151.588674 
L 380.930256 151.588674 
" clip-path="url(#pecb948484a)" style="fill: none; stroke-dasharray: 11.1,4.8; stroke-dashoffset: 0; stroke: #ff0000; stroke-width: 3"/>
   </g>
   <g id="line2d_24">
    <path d="M 76.566619 261.66276 
L 79.640999 274.259085 
L 81.17819 275.543874 
L 82.71538 278.724401 
L 84.25257 278.261697 
L 85.78976 279.986729 
L 87.32695 281.325425 
L 88.86414 280.786353 
L 90.40133 282.20591 
L 91.93852 282.160987 
L 93.47571 283.07741 
L 95.0129 282.758459 
L 96.55009 283.027995 
L 98.08728 281.707268 
L 99.624471 283.315501 
L 101.161661 283.328978 
L 102.698851 283.477222 
L 104.236041 283.939926 
L 105.773231 282.89772 
L 107.310421 283.144794 
L 108.847611 283.09538 
L 110.384801 282.650645 
L 111.921991 281.895943 
L 113.459181 283.544606 
L 114.996371 283.378393 
L 116.533561 282.992057 
L 118.070752 281.904928 
L 119.607942 283.773712 
L 122.682322 283.153779 
L 124.219512 282.511384 
L 125.756702 282.924673 
L 127.293892 282.336186 
L 128.831082 283.544606 
L 130.368272 282.780921 
L 131.905462 284.622751 
L 133.442652 283.773712 
L 134.979842 283.603006 
L 136.517033 282.812367 
L 138.054223 283.585037 
L 139.591413 281.846529 
L 141.128603 283.400854 
L 142.665793 283.297532 
L 144.202983 282.448493 
L 145.740173 283.522145 
L 147.277363 281.590469 
L 148.814553 281.743206 
L 150.351743 282.354155 
L 151.888933 282.291263 
L 153.426123 282.578768 
L 154.963314 281.006474 
L 156.500504 281.568008 
L 158.037694 281.71176 
L 159.574884 282.34517 
L 161.112074 282.174464 
L 162.649264 281.159211 
L 164.186454 281.833052 
L 165.723644 280.431464 
L 167.260834 279.510548 
L 168.798024 280.400018 
L 170.335214 280.386541 
L 173.409595 281.608438 
L 174.946785 280.462909 
L 176.483975 280.826783 
L 178.021165 281.046904 
L 179.558355 281.783637 
L 181.095545 278.8996 
L 182.632735 278.913076 
L 184.169925 277.897823 
L 185.707115 274.905972 
L 187.244305 276.024547 
L 188.781495 271.927597 
L 190.318685 268.702147 
L 191.855876 277.313828 
L 193.393066 274.079394 
L 194.930256 272.462177 
L 196.467446 275.552859 
L 198.004636 274.074902 
L 199.541826 265.32396 
L 201.079016 266.608749 
L 202.616206 270.633823 
L 204.153396 265.656388 
L 205.690586 263.670805 
L 207.227776 260.431878 
L 208.764966 273.365123 
L 210.302157 263.208101 
L 211.839347 266.963639 
L 213.376537 256.487666 
L 214.913727 271.118988 
L 216.450917 254.677281 
L 217.988107 262.55223 
L 219.525297 246.30369 
L 221.062487 266.096631 
L 222.599677 249.90649 
L 224.136867 263.91788 
L 225.674057 252.143641 
L 227.211247 269.115436 
L 228.748438 257.390612 
L 230.285628 263.576467 
L 231.822818 259.838899 
L 233.360008 254.753649 
L 234.897198 267.489234 
L 236.434388 269.353526 
L 237.971578 272.430731 
L 239.508768 268.356242 
L 241.045958 275.602273 
L 242.583148 274.124317 
L 244.120338 253.859688 
L 245.657528 272.430731 
L 247.194718 257.484949 
L 248.731909 270.952774 
L 250.269099 270.15315 
L 251.806289 272.215102 
L 253.343479 265.997801 
L 254.880669 264.793872 
L 256.417859 273.064141 
L 257.955049 273.306724 
L 259.492239 263.077825 
L 261.029429 260.458832 
L 262.566619 253.379015 
L 264.103809 267.740801 
L 265.640999 271.388524 
L 267.17819 259.331272 
L 268.71538 267.237667 
L 270.25257 269.605093 
L 271.78976 269.690446 
L 273.32695 268.432611 
L 274.86414 262.839735 
L 276.40133 269.85666 
L 277.93852 273.41903 
L 279.47571 263.3249 
L 281.0129 267.812678 
L 282.55009 276.532173 
L 284.08728 273.607706 
L 285.624471 268.405657 
L 287.161661 265.341929 
L 288.698851 267.394897 
L 290.236041 260.75083 
L 291.773231 267.390404 
L 293.310421 271.505323 
L 294.847611 257.516395 
L 296.384801 259.007829 
L 297.921991 262.09851 
L 299.459181 258.226174 
L 300.996371 256.10133 
L 302.533561 267.143329 
L 304.070752 243.257931 
L 305.607942 260.656492 
L 307.145132 268.248428 
L 308.682322 249.394372 
L 310.219512 264.960086 
L 311.756702 272.206118 
L 313.293892 266.905239 
L 314.831082 257.206429 
L 316.368272 269.254696 
L 317.905462 261.784052 
L 319.442652 261.011381 
L 320.979842 264.564767 
L 322.517033 268.58984 
L 324.054223 260.243203 
L 325.591413 259.142597 
L 327.128603 264.681566 
L 328.665793 259.18752 
L 330.202983 273.005742 
L 331.740173 265.157746 
L 333.277363 270.939297 
L 334.814553 266.676133 
L 336.351743 266.069677 
L 337.888933 257.399596 
L 339.426123 260.072497 
L 340.963314 260.548677 
L 342.500504 267.588064 
L 344.037694 266.94567 
L 345.574884 264.861256 
L 347.112074 261.249471 
L 348.649264 265.216146 
L 350.186454 266.509919 
L 351.723644 261.08775 
L 353.260834 268.396673 
L 354.798024 270.144166 
L 356.335214 268.980668 
L 357.872404 268.306827 
L 359.409595 259.120136 
L 360.946785 264.425506 
L 362.483975 273.746966 
L 364.021165 267.727325 
L 365.558355 264.596212 
L 367.095545 251.254171 
L 368.632735 262.920596 
L 370.169925 267.219698 
L 371.707115 274.533113 
L 373.244305 271.500831 
L 374.781495 263.706743 
L 376.318685 269.587124 
L 377.855876 273.113556 
L 379.393066 259.76253 
L 380.930256 267.489234 
L 380.930256 267.489234 
" clip-path="url(#pecb948484a)" style="fill: none; stroke: #000000; stroke-width: 3; stroke-linecap: square"/>
   </g>
   <g id="line2d_25">
    <path d="M 76.566619 290.098828 
L 81.17819 290.098828 
L 82.71538 287.479835 
L 84.25257 272.520576 
L 85.78976 260.368987 
L 87.32695 266.698595 
L 88.86414 12.898828 
L 380.930256 12.898828 
L 380.930256 12.898828 
" clip-path="url(#pecb948484a)" style="fill: none; stroke: #bfbf00; stroke-width: 3; stroke-linecap: square"/>
   </g>
   <g id="line2d_26">
    <path d="M 76.566619 272.286978 
L 78.103809 278.98046 
L 79.640999 280.130481 
L 81.17819 281.626407 
L 82.71538 283.755743 
L 84.25257 283.692851 
L 85.78976 284.344231 
L 87.32695 285.350499 
L 88.86414 284.294816 
L 90.40133 285.413391 
L 91.93852 285.503236 
L 93.47571 286.177077 
L 95.0129 285.741326 
L 96.55009 286.352275 
L 98.08728 286.374736 
L 99.624471 286.06477 
L 101.161661 285.952463 
L 104.236041 286.096216 
L 105.773231 286.127662 
L 107.310421 285.597574 
L 108.847611 286.091723 
L 110.384801 286.024339 
L 111.921991 286.069262 
L 113.459181 285.278623 
L 114.996371 286.657749 
L 116.533561 285.76828 
L 118.070752 285.543667 
L 119.607942 285.992894 
L 121.145132 285.597574 
L 122.682322 285.988401 
L 124.219512 285.346007 
L 127.293892 286.1636 
L 128.831082 285.611051 
L 133.442652 286.186061 
L 134.979842 285.584097 
L 136.517033 286.280399 
L 138.054223 285.871602 
L 139.591413 285.781757 
L 141.128603 285.840156 
L 142.665793 285.381945 
L 144.202983 285.161824 
L 147.277363 285.858125 
L 148.814553 285.377453 
L 150.351743 285.66945 
L 151.888933 284.748535 
L 153.426123 286.585873 
L 154.963314 284.977641 
L 156.500504 284.690135 
L 158.037694 285.624527 
L 159.574884 286.015355 
L 161.112074 285.256161 
L 162.649264 285.862618 
L 164.186454 285.125885 
L 167.260834 285.161824 
L 168.798024 284.222939 
L 170.335214 283.832112 
L 171.872404 284.770996 
L 174.946785 284.93721 
L 176.483975 284.231924 
L 178.021165 283.975864 
L 179.558355 284.901272 
L 181.095545 283.346947 
L 182.632735 282.426031 
L 184.169925 284.465522 
L 185.707115 284.384661 
L 187.244305 282.358647 
L 188.781495 282.291263 
L 190.318685 282.987565 
L 191.855876 284.923733 
L 193.393066 279.479102 
L 194.930256 278.499788 
L 196.467446 282.776428 
L 198.004636 275.665165 
L 199.541826 273.944626 
L 201.079016 275.831379 
L 202.616206 277.250937 
L 204.153396 276.091931 
L 205.690586 273.261801 
L 207.227776 273.643644 
L 208.764966 267.215206 
L 210.302157 275.543874 
L 211.839347 259.079705 
L 213.376537 264.326676 
L 214.913727 256.110315 
L 216.450917 262.282694 
L 217.988107 258.29805 
L 219.525297 263.715728 
L 221.062487 257.970115 
L 222.599677 259.18752 
L 224.136867 260.984428 
L 225.674057 257.574795 
L 227.211247 252.974711 
L 228.748438 263.239547 
L 230.285628 256.617941 
L 231.822818 263.08681 
L 233.360008 263.019426 
L 234.897198 252.287393 
L 236.434388 264.299723 
L 237.971578 264.645627 
L 239.508768 268.306827 
L 241.045958 258.351957 
L 242.583148 258.576571 
L 244.120338 250.670176 
L 245.657528 263.019426 
L 247.194718 260.584616 
L 248.731909 253.136432 
L 250.269099 269.344542 
L 251.806289 256.936892 
L 253.343479 258.621494 
L 254.880669 261.478577 
L 256.417859 254.704234 
L 257.955049 249.762738 
L 259.492239 259.519948 
L 261.029429 243.2759 
L 262.566619 248.554317 
L 264.103809 252.435638 
L 265.640999 255.768902 
L 267.17819 256.865016 
L 268.71538 243.662235 
L 270.25257 256.276529 
L 271.78976 261.842451 
L 273.32695 250.490485 
L 274.86414 256.806617 
L 276.40133 259.209981 
L 277.93852 254.35833 
L 279.47571 262.700475 
L 281.0129 261.051812 
L 282.55009 257.790424 
L 284.08728 262.246755 
L 285.624471 243.96771 
L 287.161661 248.284781 
L 288.698851 267.0445 
L 290.236041 237.925607 
L 291.773231 244.111462 
L 293.310421 267.156806 
L 294.847611 235.216768 
L 296.384801 251.433862 
L 297.921991 264.308707 
L 299.459181 229.790106 
L 300.996371 257.026738 
L 302.533561 276.936478 
L 304.070752 216.34025 
L 305.607942 258.360942 
L 307.145132 266.424566 
L 308.682322 244.708934 
L 310.219512 256.393328 
L 311.756702 262.022142 
L 313.293892 254.313407 
L 314.831082 249.946921 
L 316.368272 264.317692 
L 317.905462 261.811005 
L 319.442652 251.276633 
L 320.979842 259.165058 
L 322.517033 257.696086 
L 324.054223 248.397088 
L 325.591413 262.008665 
L 327.128603 261.581899 
L 328.665793 256.959354 
L 330.202983 259.12912 
L 331.740173 265.449744 
L 333.277363 255.76441 
L 334.814553 254.547005 
L 336.351743 259.951206 
L 337.888933 257.826362 
L 339.426123 242.885073 
L 340.963314 258.378911 
L 342.500504 257.210921 
L 344.037694 258.307035 
L 345.574884 269.959983 
L 347.112074 251.321555 
L 348.649264 264.223354 
L 350.186454 261.442639 
L 351.723644 248.536348 
L 353.260834 245.319883 
L 354.798024 256.384343 
L 356.335214 260.39594 
L 357.872404 254.416729 
L 359.409595 261.132672 
L 360.946785 245.773602 
L 362.483975 260.557662 
L 364.021165 235.153876 
L 365.558355 261.303379 
L 367.095545 254.35833 
L 368.632735 239.134027 
L 370.169925 255.957578 
L 371.707115 258.248635 
L 373.244305 258.091406 
L 374.781495 253.612613 
L 376.318685 261.451624 
L 377.855876 258.65294 
L 379.393066 249.636954 
L 380.930256 257.035722 
L 380.930256 257.035722 
" clip-path="url(#pecb948484a)" style="fill: none; stroke-dasharray: 11.1,4.8; stroke-dashoffset: 0; stroke: #0000ff; stroke-width: 3"/>
   </g>
   <g id="line2d_27">
    <path d="M 76.566619 12.898828 
L 78.103809 140.00311 
L 79.640999 12.898828 
L 380.930256 12.898828 
L 380.930256 12.898828 
" clip-path="url(#pecb948484a)" style="fill: none; stroke: #00bfbf; stroke-width: 3; stroke-linecap: square"/>
   </g>
   <g id="line2d_28">
    <path d="M 76.566619 271.267233 
L 78.103809 278.54471 
L 79.640999 280.193373 
L 81.17819 281.217611 
L 82.71538 283.67039 
L 84.25257 283.850081 
L 85.78976 284.353215 
L 87.32695 285.139362 
L 88.86414 284.267862 
L 90.40133 285.220223 
L 91.93852 284.784473 
L 93.47571 285.588589 
L 95.0129 285.377453 
L 96.55009 285.377453 
L 98.08728 285.646989 
L 101.161661 285.161824 
L 102.698851 285.125885 
L 104.236041 285.718865 
L 105.773231 285.53019 
L 107.310421 285.687419 
L 110.384801 285.750311 
L 111.921991 285.37296 
L 113.459181 284.348723 
L 114.996371 286.042308 
L 116.533561 285.247177 
L 118.070752 284.793457 
L 119.607942 285.215731 
L 121.145132 285.256161 
L 122.682322 285.534682 
L 124.219512 284.874318 
L 125.756702 285.256161 
L 127.293892 285.116901 
L 128.831082 284.573336 
L 130.368272 285.161824 
L 131.905462 285.269638 
L 133.442652 285.062994 
L 134.979842 284.636228 
L 136.517033 284.618259 
L 138.054223 284.3622 
L 139.591413 284.231924 
L 141.128603 284.645213 
L 142.665793 284.375676 
L 144.202983 284.470014 
L 145.740173 284.973148 
L 147.277363 284.672166 
L 148.814553 284.595798 
L 150.351743 285.53019 
L 151.888933 282.089111 
L 153.426123 285.19327 
L 154.963314 284.097156 
L 156.500504 281.455701 
L 158.037694 282.232864 
L 159.574884 280.871706 
L 164.186454 280.251773 
L 165.723644 280.036144 
L 167.260834 275.660673 
L 168.798024 281.550039 
L 170.335214 271.150434 
L 171.872404 271.334617 
L 173.409595 261.501039 
L 174.946785 273.607706 
L 176.483975 259.272873 
L 178.021165 265.404821 
L 179.558355 263.863973 
L 181.095545 246.339628 
L 182.632735 260.701415 
L 184.169925 255.418505 
L 185.707115 262.934073 
L 187.244305 233.842133 
L 188.781495 240.78269 
L 190.318685 237.184382 
L 191.855876 250.773498 
L 193.393066 245.548989 
L 196.467446 260.521724 
L 198.004636 244.623581 
L 199.541826 262.403985 
L 201.079016 262.673521 
L 202.616206 258.441803 
L 204.153396 257.480457 
L 205.690586 264.816334 
L 207.227776 263.446191 
L 208.764966 258.864076 
L 211.839347 273.621183 
L 213.376537 265.305991 
L 214.913727 258.414849 
L 216.450917 262.817274 
L 217.988107 266.208937 
L 219.525297 270.88539 
L 221.062487 261.123688 
L 222.599677 265.741741 
L 224.136867 266.797425 
L 225.674057 261.671745 
L 227.211247 262.574691 
L 228.748438 264.713012 
L 230.285628 269.438879 
L 231.822818 270.68773 
L 233.360008 268.625779 
L 234.897198 264.546798 
L 236.434388 266.208937 
L 237.971578 269.14239 
L 239.508768 265.211653 
L 241.045958 263.769635 
L 244.120338 262.911611 
L 245.657528 266.496443 
L 247.194718 264.052648 
L 248.731909 261.267441 
L 250.269099 256.132776 
L 251.806289 261.568423 
L 253.343479 270.058813 
L 254.880669 254.587435 
L 256.417859 267.02653 
L 257.955049 260.153358 
L 259.492239 255.611673 
L 261.029429 259.897298 
L 262.566619 262.857704 
L 264.103809 251.640506 
L 265.640999 270.067797 
L 268.71538 262.978995 
L 270.25257 266.078662 
L 271.78976 266.631211 
L 273.32695 268.486518 
L 274.86414 264.865749 
L 276.40133 268.760547 
L 277.93852 254.304422 
L 279.47571 274.290531 
L 281.0129 263.706743 
L 282.55009 256.352897 
L 284.08728 265.512636 
L 285.624471 244.578658 
L 287.161661 258.688878 
L 288.698851 264.326676 
L 290.236041 249.291049 
L 291.773231 246.649595 
L 293.310421 261.334825 
L 294.847611 232.970633 
L 296.384801 252.543453 
L 297.921991 265.018486 
L 299.459181 234.888832 
L 300.996371 251.303586 
L 302.533561 276.675926 
L 304.070752 226.479303 
L 305.607942 254.030394 
L 307.145132 261.788544 
L 308.682322 249.825629 
L 310.219512 262.471369 
L 313.293892 252.673728 
L 314.831082 252.449115 
L 316.368272 268.190028 
L 317.905462 267.18376 
L 319.442652 243.999155 
L 320.979842 259.097674 
L 322.517033 258.500202 
L 324.054223 259.32678 
L 325.591413 254.879433 
L 327.128603 272.035411 
L 328.665793 258.244143 
L 330.202983 250.530916 
L 331.740173 271.905135 
L 333.277363 257.462488 
L 334.814553 253.581167 
L 336.351743 254.479621 
L 337.888933 269.110944 
L 339.426123 243.819465 
L 340.963314 269.160359 
L 342.500504 270.54847 
L 344.037694 260.800245 
L 345.574884 270.530501 
L 347.112074 267.570095 
L 348.649264 258.810169 
L 350.186454 264.739965 
L 351.723644 264.695042 
L 353.260834 255.414013 
L 354.798024 257.682609 
L 356.335214 258.190236 
L 357.872404 259.596316 
L 359.409595 258.414849 
L 360.946785 242.125879 
L 362.483975 262.574691 
L 364.021165 255.670072 
L 365.558355 251.065496 
L 367.095545 252.35927 
L 368.632735 255.867732 
L 370.169925 258.028514 
L 371.707115 262.21531 
L 373.244305 265.220638 
L 374.781495 263.702251 
L 376.318685 270.081274 
L 377.855876 257.538857 
L 379.393066 260.961966 
L 380.930256 270.01389 
L 380.930256 270.01389 
" clip-path="url(#pecb948484a)" style="fill: none; stroke: #bf00bf; stroke-width: 3; stroke-linecap: square"/>
   </g>
   <g id="line2d_29">
    <path d="M 76.566619 240.014512 
L 78.103809 258.401372 
L 79.640999 259.515455 
L 81.17819 264.003233 
L 82.71538 268.032799 
L 84.25257 272.534053 
L 85.78976 272.390301 
L 87.32695 273.796381 
L 88.86414 272.412762 
L 90.40133 273.046172 
L 91.93852 276.312052 
L 93.47571 274.290531 
L 95.0129 276.330021 
L 96.55009 277.493519 
L 98.08728 274.40733 
L 99.624471 276.442328 
L 101.161661 274.609482 
L 102.698851 276.887063 
L 104.236041 276.833155 
L 105.773231 276.127869 
L 107.310421 276.1099 
L 108.847611 275.503444 
L 110.384801 275.184492 
L 111.921991 273.410046 
L 113.459181 276.388421 
L 114.996371 275.359691 
L 116.533561 272.996757 
L 118.070752 277.551919 
L 119.607942 275.907748 
L 121.145132 277.192537 
L 122.682322 274.64542 
L 124.219512 275.858333 
L 125.756702 274.694835 
L 127.293892 275.948178 
L 128.831082 276.374944 
L 130.368272 274.68585 
L 131.905462 277.426135 
L 133.442652 269.308604 
L 134.979842 276.914016 
L 136.517033 274.636435 
L 138.054223 275.925717 
L 139.591413 273.764935 
L 141.128603 274.357915 
L 142.665793 277.044292 
L 144.202983 274.766711 
L 145.740173 271.343602 
L 147.277363 272.336393 
L 148.814553 272.089319 
L 150.351743 270.970743 
L 151.888933 270.530501 
L 153.426123 269.250204 
L 154.963314 269.362511 
L 156.500504 271.828767 
L 158.037694 270.256472 
L 159.574884 269.573647 
L 161.112074 266.321244 
L 162.649264 272.188148 
L 164.186454 273.198909 
L 165.723644 268.967191 
L 167.260834 269.721892 
L 170.335214 252.175087 
L 171.872404 260.795752 
L 173.409595 263.841511 
L 174.946785 269.425403 
L 176.483975 263.091302 
L 178.021165 271.28071 
L 179.558355 259.066228 
L 181.095545 269.155866 
L 182.632735 256.842555 
L 184.169925 265.633927 
L 185.707115 264.578243 
L 187.244305 263.356346 
L 188.781495 261.667253 
L 190.318685 253.13194 
L 191.855876 276.860109 
L 193.393066 257.803901 
L 194.930256 273.47743 
L 196.467446 265.872017 
L 198.004636 256.856032 
L 199.541826 263.527052 
L 201.079016 257.026738 
L 202.616206 269.632047 
L 204.153396 268.922268 
L 205.690586 264.470429 
L 207.227776 269.968967 
L 208.764966 276.34799 
L 210.302157 273.989549 
L 211.839347 259.470533 
L 213.376537 273.329185 
L 214.913727 263.684282 
L 216.450917 267.201729 
L 217.988107 261.159626 
L 219.525297 277.610318 
L 221.062487 272.641868 
L 222.599677 239.807868 
L 224.136867 272.25104 
L 225.674057 264.991532 
L 227.211247 270.274442 
L 228.748438 262.421954 
L 230.285628 267.314036 
L 231.822818 270.651792 
L 233.360008 267.296067 
L 234.897198 268.544918 
L 237.971578 271.514308 
L 239.508768 275.274338 
L 241.045958 266.604257 
L 242.583148 255.342137 
L 244.120338 258.55411 
L 245.657528 269.030083 
L 247.194718 261.608853 
L 248.731909 265.189192 
L 250.269099 263.477637 
L 251.806289 272.677806 
L 253.343479 255.710503 
L 254.880669 261.739129 
L 256.417859 263.792096 
L 257.955049 277.798993 
L 259.492239 232.934695 
L 261.029429 267.287082 
L 262.566619 261.011381 
L 264.103809 269.344542 
L 265.640999 265.332945 
L 267.17819 258.648447 
L 268.71538 270.683238 
L 270.25257 274.083886 
L 271.78976 275.440552 
L 273.32695 275.449536 
L 274.86414 269.416418 
L 276.40133 271.994981 
L 277.93852 254.165162 
L 279.47571 268.324796 
L 281.0129 275.018278 
L 282.55009 268.378704 
L 284.08728 281.581485 
L 285.624471 264.605197 
L 287.161661 276.392913 
L 288.698851 262.004173 
L 291.773231 275.404614 
L 293.310421 267.61951 
L 294.847611 267.367943 
L 296.384801 265.58002 
L 297.921991 256.029454 
L 299.459181 267.610526 
L 300.996371 256.977323 
L 302.533561 256.325944 
L 304.070752 274.371392 
L 305.607942 268.594333 
L 307.145132 274.905972 
L 308.682322 256.608957 
L 310.219512 250.185011 
L 311.756702 266.869301 
L 313.293892 277.547426 
L 314.831082 266.88727 
L 316.368272 265.108331 
L 317.905462 260.068005 
L 319.442652 264.627658 
L 320.979842 262.49383 
L 322.517033 276.936478 
L 324.054223 276.572604 
L 325.591413 256.123792 
L 327.128603 252.691698 
L 330.202983 276.280606 
L 331.740173 253.064556 
L 333.277363 264.277261 
L 334.814553 263.567483 
L 336.351743 266.631211 
L 337.888933 263.356346 
L 339.426123 266.819886 
L 340.963314 271.22231 
L 342.500504 272.839528 
L 344.037694 275.570828 
L 345.574884 266.137061 
L 347.112074 258.567586 
L 348.649264 264.169447 
L 350.186454 263.212593 
L 351.723644 275.512428 
L 353.260834 264.942117 
L 354.798024 267.924984 
L 356.335214 254.874941 
L 357.872404 275.247384 
L 359.409595 268.230459 
L 360.946785 265.548574 
L 362.483975 263.378807 
L 364.021165 250.211965 
L 365.558355 266.289798 
L 367.095545 268.760547 
L 368.632735 263.518068 
L 370.169925 272.017442 
L 371.707115 278.032591 
L 373.244305 270.800037 
L 374.781495 254.394268 
L 376.318685 258.527156 
L 377.855876 280.957059 
L 379.393066 265.629435 
L 380.930256 272.444208 
L 380.930256 272.444208 
" clip-path="url(#pecb948484a)" style="fill: none; stroke: #008000; stroke-width: 3; stroke-linecap: square"/>
   </g>
   <g id="patch_3">
    <path d="M 61.348438 290.098828 
L 61.348438 12.898828 
" style="fill: none; stroke: #000000; stroke-width: 0.8; stroke-linejoin: miter; stroke-linecap: square"/>
   </g>
   <g id="patch_4">
    <path d="M 396.148438 290.098828 
L 396.148438 12.898828 
" style="fill: none; stroke: #000000; stroke-width: 0.8; stroke-linejoin: miter; stroke-linecap: square"/>
   </g>
   <g id="patch_5">
    <path d="M 61.348438 290.098828 
L 396.148438 290.098828 
" style="fill: none; stroke: #000000; stroke-width: 0.8; stroke-linejoin: miter; stroke-linecap: square"/>
   </g>
   <g id="patch_6">
    <path d="M 61.348438 12.898828 
L 396.148438 12.898828 
" style="fill: none; stroke: #000000; stroke-width: 0.8; stroke-linejoin: miter; stroke-linecap: square"/>
   </g>
   <g id="legend_1">
    <g id="patch_7">
     <path d="M 264.596094 179.019141 
L 385.648438 179.019141 
Q 388.648438 179.019141 388.648438 176.019141 
L 388.648438 23.398828 
Q 388.648438 20.398828 385.648438 20.398828 
L 264.596094 20.398828 
Q 261.596094 20.398828 261.596094 23.398828 
L 261.596094 176.019141 
Q 261.596094 179.019141 264.596094 179.019141 
z
" style="fill: #ffffff; opacity: 0.8; stroke: #cccccc; stroke-linejoin: miter"/>
    </g>
    <g id="line2d_30">
     <path d="M 267.596094 32.546484 
L 282.596094 32.546484 
L 297.596094 32.546484 
" style="fill: none; stroke-dasharray: 11.1,4.8; stroke-dashoffset: 0; stroke: #ff0000; stroke-width: 3"/>
    </g>
    <g id="text_14">
     <!-- Gaussian -->
     <g transform="translate(309.596094 37.796484) scale(0.15 -0.15)">
      <defs>
       <path id="DejaVuSans-47" d="M 3809 666 
L 3809 1919 
L 2778 1919 
L 2778 2438 
L 4434 2438 
L 4434 434 
Q 4069 175 3628 42 
Q 3188 -91 2688 -91 
Q 1594 -91 976 548 
Q 359 1188 359 2328 
Q 359 3472 976 4111 
Q 1594 4750 2688 4750 
Q 3144 4750 3555 4637 
Q 3966 4525 4313 4306 
L 4313 3634 
Q 3963 3931 3569 4081 
Q 3175 4231 2741 4231 
Q 1884 4231 1454 3753 
Q 1025 3275 1025 2328 
Q 1025 1384 1454 906 
Q 1884 428 2741 428 
Q 3075 428 3337 486 
Q 3600 544 3809 666 
z
" transform="scale(0.015625)"/>
       <path id="DejaVuSans-75" d="M 544 1381 
L 544 3500 
L 1119 3500 
L 1119 1403 
Q 1119 906 1312 657 
Q 1506 409 1894 409 
Q 2359 409 2629 706 
Q 2900 1003 2900 1516 
L 2900 3500 
L 3475 3500 
L 3475 0 
L 2900 0 
L 2900 538 
Q 2691 219 2414 64 
Q 2138 -91 1772 -91 
Q 1169 -91 856 284 
Q 544 659 544 1381 
z
M 1991 3584 
L 1991 3584 
z
" transform="scale(0.015625)"/>
       <path id="DejaVuSans-73" d="M 2834 3397 
L 2834 2853 
Q 2591 2978 2328 3040 
Q 2066 3103 1784 3103 
Q 1356 3103 1142 2972 
Q 928 2841 928 2578 
Q 928 2378 1081 2264 
Q 1234 2150 1697 2047 
L 1894 2003 
Q 2506 1872 2764 1633 
Q 3022 1394 3022 966 
Q 3022 478 2636 193 
Q 2250 -91 1575 -91 
Q 1294 -91 989 -36 
Q 684 19 347 128 
L 347 722 
Q 666 556 975 473 
Q 1284 391 1588 391 
Q 1994 391 2212 530 
Q 2431 669 2431 922 
Q 2431 1156 2273 1281 
Q 2116 1406 1581 1522 
L 1381 1569 
Q 847 1681 609 1914 
Q 372 2147 372 2553 
Q 372 3047 722 3315 
Q 1072 3584 1716 3584 
Q 2034 3584 2315 3537 
Q 2597 3491 2834 3397 
z
" transform="scale(0.015625)"/>
       <path id="DejaVuSans-6e" d="M 3513 2113 
L 3513 0 
L 2938 0 
L 2938 2094 
Q 2938 2591 2744 2837 
Q 2550 3084 2163 3084 
Q 1697 3084 1428 2787 
Q 1159 2491 1159 1978 
L 1159 0 
L 581 0 
L 581 3500 
L 1159 3500 
L 1159 2956 
Q 1366 3272 1645 3428 
Q 1925 3584 2291 3584 
Q 2894 3584 3203 3211 
Q 3513 2838 3513 2113 
z
" transform="scale(0.015625)"/>
      </defs>
      <use xlink:href="#DejaVuSans-47"/>
      <use xlink:href="#DejaVuSans-61" x="77.490234"/>
      <use xlink:href="#DejaVuSans-75" x="138.769531"/>
      <use xlink:href="#DejaVuSans-73" x="202.148438"/>
      <use xlink:href="#DejaVuSans-73" x="254.248047"/>
      <use xlink:href="#DejaVuSans-69" x="306.347656"/>
      <use xlink:href="#DejaVuSans-61" x="334.130859"/>
      <use xlink:href="#DejaVuSans-6e" x="395.410156"/>
     </g>
    </g>
    <g id="line2d_31">
     <path d="M 267.596094 54.563672 
L 282.596094 54.563672 
L 297.596094 54.563672 
" style="fill: none; stroke: #000000; stroke-width: 3; stroke-linecap: square"/>
    </g>
    <g id="text_15">
     <!-- Fang -->
     <g transform="translate(309.596094 59.813672) scale(0.15 -0.15)">
      <defs>
       <path id="DejaVuSans-67" d="M 2906 1791 
Q 2906 2416 2648 2759 
Q 2391 3103 1925 3103 
Q 1463 3103 1205 2759 
Q 947 2416 947 1791 
Q 947 1169 1205 825 
Q 1463 481 1925 481 
Q 2391 481 2648 825 
Q 2906 1169 2906 1791 
z
M 3481 434 
Q 3481 -459 3084 -895 
Q 2688 -1331 1869 -1331 
Q 1566 -1331 1297 -1286 
Q 1028 -1241 775 -1147 
L 775 -588 
Q 1028 -725 1275 -790 
Q 1522 -856 1778 -856 
Q 2344 -856 2625 -561 
Q 2906 -266 2906 331 
L 2906 616 
Q 2728 306 2450 153 
Q 2172 0 1784 0 
Q 1141 0 747 490 
Q 353 981 353 1791 
Q 353 2603 747 3093 
Q 1141 3584 1784 3584 
Q 2172 3584 2450 3431 
Q 2728 3278 2906 2969 
L 2906 3500 
L 3481 3500 
L 3481 434 
z
" transform="scale(0.015625)"/>
      </defs>
      <use xlink:href="#DejaVuSans-46"/>
      <use xlink:href="#DejaVuSans-61" x="48.394531"/>
      <use xlink:href="#DejaVuSans-6e" x="109.673828"/>
      <use xlink:href="#DejaVuSans-67" x="173.052734"/>
     </g>
    </g>
    <g id="line2d_32">
     <path d="M 267.596094 76.580859 
L 282.596094 76.580859 
L 297.596094 76.580859 
" style="fill: none; stroke: #bfbf00; stroke-width: 3; stroke-linecap: square"/>
    </g>
    <g id="text_16">
     <!-- MyAttack -->
     <g transform="translate(309.596094 81.830859) scale(0.15 -0.15)">
      <defs>
       <path id="DejaVuSans-4d" d="M 628 4666 
L 1569 4666 
L 2759 1491 
L 3956 4666 
L 4897 4666 
L 4897 0 
L 4281 0 
L 4281 4097 
L 3078 897 
L 2444 897 
L 1241 4097 
L 1241 0 
L 628 0 
L 628 4666 
z
" transform="scale(0.015625)"/>
       <path id="DejaVuSans-79" d="M 2059 -325 
Q 1816 -950 1584 -1140 
Q 1353 -1331 966 -1331 
L 506 -1331 
L 506 -850 
L 844 -850 
Q 1081 -850 1212 -737 
Q 1344 -625 1503 -206 
L 1606 56 
L 191 3500 
L 800 3500 
L 1894 763 
L 2988 3500 
L 3597 3500 
L 2059 -325 
z
" transform="scale(0.015625)"/>
       <path id="DejaVuSans-41" d="M 2188 4044 
L 1331 1722 
L 3047 1722 
L 2188 4044 
z
M 1831 4666 
L 2547 4666 
L 4325 0 
L 3669 0 
L 3244 1197 
L 1141 1197 
L 716 0 
L 50 0 
L 1831 4666 
z
" transform="scale(0.015625)"/>
       <path id="DejaVuSans-6b" d="M 581 4863 
L 1159 4863 
L 1159 1991 
L 2875 3500 
L 3609 3500 
L 1753 1863 
L 3688 0 
L 2938 0 
L 1159 1709 
L 1159 0 
L 581 0 
L 581 4863 
z
" transform="scale(0.015625)"/>
      </defs>
      <use xlink:href="#DejaVuSans-4d"/>
      <use xlink:href="#DejaVuSans-79" x="86.279297"/>
      <use xlink:href="#DejaVuSans-41" x="145.458984"/>
      <use xlink:href="#DejaVuSans-74" x="212.117188"/>
      <use xlink:href="#DejaVuSans-74" x="251.326172"/>
      <use xlink:href="#DejaVuSans-61" x="290.535156"/>
      <use xlink:href="#DejaVuSans-63" x="351.814453"/>
      <use xlink:href="#DejaVuSans-6b" x="406.794922"/>
     </g>
    </g>
    <g id="line2d_33">
     <path d="M 267.596094 98.598047 
L 282.596094 98.598047 
L 297.596094 98.598047 
" style="fill: none; stroke-dasharray: 11.1,4.8; stroke-dashoffset: 0; stroke: #0000ff; stroke-width: 3"/>
    </g>
    <g id="text_17">
     <!-- IPM -->
     <g transform="translate(309.596094 103.848047) scale(0.15 -0.15)">
      <defs>
       <path id="DejaVuSans-49" d="M 628 4666 
L 1259 4666 
L 1259 0 
L 628 0 
L 628 4666 
z
" transform="scale(0.015625)"/>
       <path id="DejaVuSans-50" d="M 1259 4147 
L 1259 2394 
L 2053 2394 
Q 2494 2394 2734 2622 
Q 2975 2850 2975 3272 
Q 2975 3691 2734 3919 
Q 2494 4147 2053 4147 
L 1259 4147 
z
M 628 4666 
L 2053 4666 
Q 2838 4666 3239 4311 
Q 3641 3956 3641 3272 
Q 3641 2581 3239 2228 
Q 2838 1875 2053 1875 
L 1259 1875 
L 1259 0 
L 628 0 
L 628 4666 
z
" transform="scale(0.015625)"/>
      </defs>
      <use xlink:href="#DejaVuSans-49"/>
      <use xlink:href="#DejaVuSans-50" x="29.492188"/>
      <use xlink:href="#DejaVuSans-4d" x="89.794922"/>
     </g>
    </g>
    <g id="line2d_34">
     <path d="M 267.596094 120.615234 
L 282.596094 120.615234 
L 297.596094 120.615234 
" style="fill: none; stroke: #00bfbf; stroke-width: 3; stroke-linecap: square"/>
    </g>
    <g id="text_18">
     <!-- MPAF -->
     <g transform="translate(309.596094 125.865234) scale(0.15 -0.15)">
      <use xlink:href="#DejaVuSans-4d"/>
      <use xlink:href="#DejaVuSans-50" x="86.279297"/>
      <use xlink:href="#DejaVuSans-41" x="140.207031"/>
      <use xlink:href="#DejaVuSans-46" x="208.615234"/>
     </g>
    </g>
    <g id="line2d_35">
     <path d="M 267.596094 142.632422 
L 282.596094 142.632422 
L 297.596094 142.632422 
" style="fill: none; stroke: #bf00bf; stroke-width: 3; stroke-linecap: square"/>
    </g>
    <g id="text_19">
     <!-- ALIE -->
     <g transform="translate(309.596094 147.882422) scale(0.15 -0.15)">
      <defs>
       <path id="DejaVuSans-4c" d="M 628 4666 
L 1259 4666 
L 1259 531 
L 3531 531 
L 3531 0 
L 628 0 
L 628 4666 
z
" transform="scale(0.015625)"/>
      </defs>
      <use xlink:href="#DejaVuSans-41"/>
      <use xlink:href="#DejaVuSans-4c" x="68.408203"/>
      <use xlink:href="#DejaVuSans-49" x="124.121094"/>
      <use xlink:href="#DejaVuSans-45" x="153.613281"/>
     </g>
    </g>
    <g id="line2d_36">
     <path d="M 267.596094 164.649609 
L 282.596094 164.649609 
L 297.596094 164.649609 
" style="fill: none; stroke: #008000; stroke-width: 3; stroke-linecap: square"/>
    </g>
    <g id="text_20">
     <!-- No Attack -->
     <g transform="translate(309.596094 169.899609) scale(0.15 -0.15)">
      <defs>
       <path id="DejaVuSans-4e" d="M 628 4666 
L 1478 4666 
L 3547 763 
L 3547 4666 
L 4159 4666 
L 4159 0 
L 3309 0 
L 1241 3903 
L 1241 0 
L 628 0 
L 628 4666 
z
" transform="scale(0.015625)"/>
      </defs>
      <use xlink:href="#DejaVuSans-4e"/>
      <use xlink:href="#DejaVuSans-6f" x="74.804688"/>
      <use xlink:href="#DejaVuSans-20" x="135.986328"/>
      <use xlink:href="#DejaVuSans-41" x="167.773438"/>
      <use xlink:href="#DejaVuSans-74" x="234.431641"/>
      <use xlink:href="#DejaVuSans-74" x="273.640625"/>
      <use xlink:href="#DejaVuSans-61" x="312.849609"/>
      <use xlink:href="#DejaVuSans-63" x="374.128906"/>
      <use xlink:href="#DejaVuSans-6b" x="429.109375"/>
     </g>
    </g>
   </g>
  </g>
 </g>
 <defs>
  <clipPath id="pecb948484a">
   <rect x="61.348438" y="12.898828" width="334.8" height="277.2"/>
  </clipPath>
 </defs>
</svg>
