<?xml version="1.0" encoding="utf-8" standalone="no"?>
<!DOCTYPE svg PUBLIC "-//W3C//DTD SVG 1.1//EN"
  "http://www.w3.org/Graphics/SVG/1.1/DTD/svg11.dtd">
<svg xmlns:xlink="http://www.w3.org/1999/xlink" width="403.983071pt" height="337.333203pt" viewBox="0 0 403.983071 337.333203" xmlns="http://www.w3.org/2000/svg" version="1.1">
 <metadata>
  <rdf:RDF xmlns:dc="http://purl.org/dc/elements/1.1/" xmlns:cc="http://creativecommons.org/ns#" xmlns:rdf="http://www.w3.org/1999/02/22-rdf-syntax-ns#">
   <cc:Work>
    <dc:type rdf:resource="http://purl.org/dc/dcmitype/StillImage"/>
    <dc:date>2025-09-17T00:02:11.599517</dc:date>
    <dc:format>image/svg+xml</dc:format>
    <dc:creator>
     <cc:Agent>
      <dc:title>Matplotlib v3.7.5, https://matplotlib.org/</dc:title>
     </cc:Agent>
    </dc:creator>
   </cc:Work>
  </rdf:RDF>
 </metadata>
 <defs>
  <style type="text/css">*{stroke-linejoin: round; stroke-linecap: butt}</style>
 </defs>
 <g id="figure_1">
  <g id="patch_1">
   <path d="M 0 337.333203 
L 403.983071 337.333203 
L 403.983071 0 
L 0 0 
z
" style="fill: #ffffff"/>
  </g>
  <g id="axes_1">
   <g id="patch_2">
    <path d="M 61.348438 290.098828 
L 396.148438 290.098828 
L 396.148438 12.898828 
L 61.348438 12.898828 
z
" style="fill: #ffffff"/>
   </g>
   <g id="matplotlib.axis_1">
    <g id="xtick_1">
     <g id="line2d_1">
      <path d="M 75.029429 290.098828 
L 75.029429 12.898828 
" clip-path="url(#pbab4a561c7)" style="fill: none; stroke: #b0b0b0; stroke-width: 0.8; stroke-linecap: square"/>
     </g>
     <g id="line2d_2">
      <defs>
       <path id="m26f6622c05" d="M 0 0 
L 0 3.5 
" style="stroke: #000000; stroke-width: 0.8"/>
      </defs>
      <g>
       <use xlink:href="#m26f6622c05" x="75.029429" y="290.098828" style="stroke: #000000; stroke-width: 0.8"/>
      </g>
     </g>
     <g id="text_1">
      <!-- 0 -->
      <g transform="translate(70.257554 308.496484) scale(0.15 -0.15)">
       <defs>
        <path id="DejaVuSans-30" d="M 2034 4250 
Q 1547 4250 1301 3770 
Q 1056 3291 1056 2328 
Q 1056 1369 1301 889 
Q 1547 409 2034 409 
Q 2525 409 2770 889 
Q 3016 1369 3016 2328 
Q 3016 3291 2770 3770 
Q 2525 4250 2034 4250 
z
M 2034 4750 
Q 2819 4750 3233 4129 
Q 3647 3509 3647 2328 
Q 3647 1150 3233 529 
Q 2819 -91 2034 -91 
Q 1250 -91 836 529 
Q 422 1150 422 2328 
Q 422 3509 836 4129 
Q 1250 4750 2034 4750 
z
" transform="scale(0.015625)"/>
       </defs>
       <use xlink:href="#DejaVuSans-30"/>
      </g>
     </g>
    </g>
    <g id="xtick_2">
     <g id="line2d_3">
      <path d="M 151.888933 290.098828 
L 151.888933 12.898828 
" clip-path="url(#pbab4a561c7)" style="fill: none; stroke: #b0b0b0; stroke-width: 0.8; stroke-linecap: square"/>
     </g>
     <g id="line2d_4">
      <g>
       <use xlink:href="#m26f6622c05" x="151.888933" y="290.098828" style="stroke: #000000; stroke-width: 0.8"/>
      </g>
     </g>
     <g id="text_2">
      <!-- 50 -->
      <g transform="translate(142.345183 308.496484) scale(0.15 -0.15)">
       <defs>
        <path id="DejaVuSans-35" d="M 691 4666 
L 3169 4666 
L 3169 4134 
L 1269 4134 
L 1269 2991 
Q 1406 3038 1543 3061 
Q 1681 3084 1819 3084 
Q 2600 3084 3056 2656 
Q 3513 2228 3513 1497 
Q 3513 744 3044 326 
Q 2575 -91 1722 -91 
Q 1428 -91 1123 -41 
Q 819 9 494 109 
L 494 744 
Q 775 591 1075 516 
Q 1375 441 1709 441 
Q 2250 441 2565 725 
Q 2881 1009 2881 1497 
Q 2881 1984 2565 2268 
Q 2250 2553 1709 2553 
Q 1456 2553 1204 2497 
Q 953 2441 691 2322 
L 691 4666 
z
" transform="scale(0.015625)"/>
       </defs>
       <use xlink:href="#DejaVuSans-35"/>
       <use xlink:href="#DejaVuSans-30" x="63.623047"/>
      </g>
     </g>
    </g>
    <g id="xtick_3">
     <g id="line2d_5">
      <path d="M 228.748438 290.098828 
L 228.748438 12.898828 
" clip-path="url(#pbab4a561c7)" style="fill: none; stroke: #b0b0b0; stroke-width: 0.8; stroke-linecap: square"/>
     </g>
     <g id="line2d_6">
      <g>
       <use xlink:href="#m26f6622c05" x="228.748438" y="290.098828" style="stroke: #000000; stroke-width: 0.8"/>
      </g>
     </g>
     <g id="text_3">
      <!-- 100 -->
      <g transform="translate(214.432813 308.496484) scale(0.15 -0.15)">
       <defs>
        <path id="DejaVuSans-31" d="M 794 531 
L 1825 531 
L 1825 4091 
L 703 3866 
L 703 4441 
L 1819 4666 
L 2450 4666 
L 2450 531 
L 3481 531 
L 3481 0 
L 794 0 
L 794 531 
z
" transform="scale(0.015625)"/>
       </defs>
       <use xlink:href="#DejaVuSans-31"/>
       <use xlink:href="#DejaVuSans-30" x="63.623047"/>
       <use xlink:href="#DejaVuSans-30" x="127.246094"/>
      </g>
     </g>
    </g>
    <g id="xtick_4">
     <g id="line2d_7">
      <path d="M 305.607942 290.098828 
L 305.607942 12.898828 
" clip-path="url(#pbab4a561c7)" style="fill: none; stroke: #b0b0b0; stroke-width: 0.8; stroke-linecap: square"/>
     </g>
     <g id="line2d_8">
      <g>
       <use xlink:href="#m26f6622c05" x="305.607942" y="290.098828" style="stroke: #000000; stroke-width: 0.8"/>
      </g>
     </g>
     <g id="text_4">
      <!-- 150 -->
      <g transform="translate(291.292317 308.496484) scale(0.15 -0.15)">
       <use xlink:href="#DejaVuSans-31"/>
       <use xlink:href="#DejaVuSans-35" x="63.623047"/>
       <use xlink:href="#DejaVuSans-30" x="127.246094"/>
      </g>
     </g>
    </g>
    <g id="xtick_5">
     <g id="line2d_9">
      <path d="M 382.467446 290.098828 
L 382.467446 12.898828 
" clip-path="url(#pbab4a561c7)" style="fill: none; stroke: #b0b0b0; stroke-width: 0.8; stroke-linecap: square"/>
     </g>
     <g id="line2d_10">
      <g>
       <use xlink:href="#m26f6622c05" x="382.467446" y="290.098828" style="stroke: #000000; stroke-width: 0.8"/>
      </g>
     </g>
     <g id="text_5">
      <!-- 200 -->
      <g transform="translate(368.151821 308.496484) scale(0.15 -0.15)">
       <defs>
        <path id="DejaVuSans-32" d="M 1228 531 
L 3431 531 
L 3431 0 
L 469 0 
L 469 531 
Q 828 903 1448 1529 
Q 2069 2156 2228 2338 
Q 2531 2678 2651 2914 
Q 2772 3150 2772 3378 
Q 2772 3750 2511 3984 
Q 2250 4219 1831 4219 
Q 1534 4219 1204 4116 
Q 875 4013 500 3803 
L 500 4441 
Q 881 4594 1212 4672 
Q 1544 4750 1819 4750 
Q 2544 4750 2975 4387 
Q 3406 4025 3406 3419 
Q 3406 3131 3298 2873 
Q 3191 2616 2906 2266 
Q 2828 2175 2409 1742 
Q 1991 1309 1228 531 
z
" transform="scale(0.015625)"/>
       </defs>
       <use xlink:href="#DejaVuSans-32"/>
       <use xlink:href="#DejaVuSans-30" x="63.623047"/>
       <use xlink:href="#DejaVuSans-30" x="127.246094"/>
      </g>
     </g>
    </g>
    <g id="text_6">
     <!-- Epoch -->
     <g transform="translate(205.782031 327.013672) scale(0.15 -0.15)">
      <defs>
       <path id="DejaVuSans-45" d="M 628 4666 
L 3578 4666 
L 3578 4134 
L 1259 4134 
L 1259 2753 
L 3481 2753 
L 3481 2222 
L 1259 2222 
L 1259 531 
L 3634 531 
L 3634 0 
L 628 0 
L 628 4666 
z
" transform="scale(0.015625)"/>
       <path id="DejaVuSans-70" d="M 1159 525 
L 1159 -1331 
L 581 -1331 
L 581 3500 
L 1159 3500 
L 1159 2969 
Q 1341 3281 1617 3432 
Q 1894 3584 2278 3584 
Q 2916 3584 3314 3078 
Q 3713 2572 3713 1747 
Q 3713 922 3314 415 
Q 2916 -91 2278 -91 
Q 1894 -91 1617 61 
Q 1341 213 1159 525 
z
M 3116 1747 
Q 3116 2381 2855 2742 
Q 2594 3103 2138 3103 
Q 1681 3103 1420 2742 
Q 1159 2381 1159 1747 
Q 1159 1113 1420 752 
Q 1681 391 2138 391 
Q 2594 391 2855 752 
Q 3116 1113 3116 1747 
z
" transform="scale(0.015625)"/>
       <path id="DejaVuSans-6f" d="M 1959 3097 
Q 1497 3097 1228 2736 
Q 959 2375 959 1747 
Q 959 1119 1226 758 
Q 1494 397 1959 397 
Q 2419 397 2687 759 
Q 2956 1122 2956 1747 
Q 2956 2369 2687 2733 
Q 2419 3097 1959 3097 
z
M 1959 3584 
Q 2709 3584 3137 3096 
Q 3566 2609 3566 1747 
Q 3566 888 3137 398 
Q 2709 -91 1959 -91 
Q 1206 -91 779 398 
Q 353 888 353 1747 
Q 353 2609 779 3096 
Q 1206 3584 1959 3584 
z
" transform="scale(0.015625)"/>
       <path id="DejaVuSans-63" d="M 3122 3366 
L 3122 2828 
Q 2878 2963 2633 3030 
Q 2388 3097 2138 3097 
Q 1578 3097 1268 2742 
Q 959 2388 959 1747 
Q 959 1106 1268 751 
Q 1578 397 2138 397 
Q 2388 397 2633 464 
Q 2878 531 3122 666 
L 3122 134 
Q 2881 22 2623 -34 
Q 2366 -91 2075 -91 
Q 1284 -91 818 406 
Q 353 903 353 1747 
Q 353 2603 823 3093 
Q 1294 3584 2113 3584 
Q 2378 3584 2631 3529 
Q 2884 3475 3122 3366 
z
" transform="scale(0.015625)"/>
       <path id="DejaVuSans-68" d="M 3513 2113 
L 3513 0 
L 2938 0 
L 2938 2094 
Q 2938 2591 2744 2837 
Q 2550 3084 2163 3084 
Q 1697 3084 1428 2787 
Q 1159 2491 1159 1978 
L 1159 0 
L 581 0 
L 581 4863 
L 1159 4863 
L 1159 2956 
Q 1366 3272 1645 3428 
Q 1925 3584 2291 3584 
Q 2894 3584 3203 3211 
Q 3513 2838 3513 2113 
z
" transform="scale(0.015625)"/>
      </defs>
      <use xlink:href="#DejaVuSans-45"/>
      <use xlink:href="#DejaVuSans-70" x="63.183594"/>
      <use xlink:href="#DejaVuSans-6f" x="126.660156"/>
      <use xlink:href="#DejaVuSans-63" x="187.841797"/>
      <use xlink:href="#DejaVuSans-68" x="242.822266"/>
     </g>
    </g>
   </g>
   <g id="matplotlib.axis_2">
    <g id="ytick_1">
     <g id="line2d_11">
      <path d="M 61.348438 290.098828 
L 396.148438 290.098828 
" clip-path="url(#pbab4a561c7)" style="fill: none; stroke: #b0b0b0; stroke-width: 0.8; stroke-linecap: square"/>
     </g>
     <g id="line2d_12">
      <defs>
       <path id="m81f55776ff" d="M 0 0 
L -3.5 0 
" style="stroke: #000000; stroke-width: 0.8"/>
      </defs>
      <g>
       <use xlink:href="#m81f55776ff" x="61.348438" y="290.098828" style="stroke: #000000; stroke-width: 0.8"/>
      </g>
     </g>
     <g id="text_7">
      <!-- 0 -->
      <g transform="translate(44.804688 295.797656) scale(0.15 -0.15)">
       <use xlink:href="#DejaVuSans-30"/>
      </g>
     </g>
    </g>
    <g id="ytick_2">
     <g id="line2d_13">
      <path d="M 61.348438 234.658828 
L 396.148438 234.658828 
" clip-path="url(#pbab4a561c7)" style="fill: none; stroke: #b0b0b0; stroke-width: 0.8; stroke-linecap: square"/>
     </g>
     <g id="line2d_14">
      <g>
       <use xlink:href="#m81f55776ff" x="61.348438" y="234.658828" style="stroke: #000000; stroke-width: 0.8"/>
      </g>
     </g>
     <g id="text_8">
      <!-- 20 -->
      <g transform="translate(35.260938 240.357656) scale(0.15 -0.15)">
       <use xlink:href="#DejaVuSans-32"/>
       <use xlink:href="#DejaVuSans-30" x="63.623047"/>
      </g>
     </g>
    </g>
    <g id="ytick_3">
     <g id="line2d_15">
      <path d="M 61.348438 179.218828 
L 396.148438 179.218828 
" clip-path="url(#pbab4a561c7)" style="fill: none; stroke: #b0b0b0; stroke-width: 0.8; stroke-linecap: square"/>
     </g>
     <g id="line2d_16">
      <g>
       <use xlink:href="#m81f55776ff" x="61.348438" y="179.218828" style="stroke: #000000; stroke-width: 0.8"/>
      </g>
     </g>
     <g id="text_9">
      <!-- 40 -->
      <g transform="translate(35.260938 184.917656) scale(0.15 -0.15)">
       <defs>
        <path id="DejaVuSans-34" d="M 2419 4116 
L 825 1625 
L 2419 1625 
L 2419 4116 
z
M 2253 4666 
L 3047 4666 
L 3047 1625 
L 3713 1625 
L 3713 1100 
L 3047 1100 
L 3047 0 
L 2419 0 
L 2419 1100 
L 313 1100 
L 313 1709 
L 2253 4666 
z
" transform="scale(0.015625)"/>
       </defs>
       <use xlink:href="#DejaVuSans-34"/>
       <use xlink:href="#DejaVuSans-30" x="63.623047"/>
      </g>
     </g>
    </g>
    <g id="ytick_4">
     <g id="line2d_17">
      <path d="M 61.348438 123.778828 
L 396.148438 123.778828 
" clip-path="url(#pbab4a561c7)" style="fill: none; stroke: #b0b0b0; stroke-width: 0.8; stroke-linecap: square"/>
     </g>
     <g id="line2d_18">
      <g>
       <use xlink:href="#m81f55776ff" x="61.348438" y="123.778828" style="stroke: #000000; stroke-width: 0.8"/>
      </g>
     </g>
     <g id="text_10">
      <!-- 60 -->
      <g transform="translate(35.260938 129.477656) scale(0.15 -0.15)">
       <defs>
        <path id="DejaVuSans-36" d="M 2113 2584 
Q 1688 2584 1439 2293 
Q 1191 2003 1191 1497 
Q 1191 994 1439 701 
Q 1688 409 2113 409 
Q 2538 409 2786 701 
Q 3034 994 3034 1497 
Q 3034 2003 2786 2293 
Q 2538 2584 2113 2584 
z
M 3366 4563 
L 3366 3988 
Q 3128 4100 2886 4159 
Q 2644 4219 2406 4219 
Q 1781 4219 1451 3797 
Q 1122 3375 1075 2522 
Q 1259 2794 1537 2939 
Q 1816 3084 2150 3084 
Q 2853 3084 3261 2657 
Q 3669 2231 3669 1497 
Q 3669 778 3244 343 
Q 2819 -91 2113 -91 
Q 1303 -91 875 529 
Q 447 1150 447 2328 
Q 447 3434 972 4092 
Q 1497 4750 2381 4750 
Q 2619 4750 2861 4703 
Q 3103 4656 3366 4563 
z
" transform="scale(0.015625)"/>
       </defs>
       <use xlink:href="#DejaVuSans-36"/>
       <use xlink:href="#DejaVuSans-30" x="63.623047"/>
      </g>
     </g>
    </g>
    <g id="ytick_5">
     <g id="line2d_19">
      <path d="M 61.348438 68.338828 
L 396.148438 68.338828 
" clip-path="url(#pbab4a561c7)" style="fill: none; stroke: #b0b0b0; stroke-width: 0.8; stroke-linecap: square"/>
     </g>
     <g id="line2d_20">
      <g>
       <use xlink:href="#m81f55776ff" x="61.348438" y="68.338828" style="stroke: #000000; stroke-width: 0.8"/>
      </g>
     </g>
     <g id="text_11">
      <!-- 80 -->
      <g transform="translate(35.260938 74.037656) scale(0.15 -0.15)">
       <defs>
        <path id="DejaVuSans-38" d="M 2034 2216 
Q 1584 2216 1326 1975 
Q 1069 1734 1069 1313 
Q 1069 891 1326 650 
Q 1584 409 2034 409 
Q 2484 409 2743 651 
Q 3003 894 3003 1313 
Q 3003 1734 2745 1975 
Q 2488 2216 2034 2216 
z
M 1403 2484 
Q 997 2584 770 2862 
Q 544 3141 544 3541 
Q 544 4100 942 4425 
Q 1341 4750 2034 4750 
Q 2731 4750 3128 4425 
Q 3525 4100 3525 3541 
Q 3525 3141 3298 2862 
Q 3072 2584 2669 2484 
Q 3125 2378 3379 2068 
Q 3634 1759 3634 1313 
Q 3634 634 3220 271 
Q 2806 -91 2034 -91 
Q 1263 -91 848 271 
Q 434 634 434 1313 
Q 434 1759 690 2068 
Q 947 2378 1403 2484 
z
M 1172 3481 
Q 1172 3119 1398 2916 
Q 1625 2713 2034 2713 
Q 2441 2713 2670 2916 
Q 2900 3119 2900 3481 
Q 2900 3844 2670 4047 
Q 2441 4250 2034 4250 
Q 1625 4250 1398 4047 
Q 1172 3844 1172 3481 
z
" transform="scale(0.015625)"/>
       </defs>
       <use xlink:href="#DejaVuSans-38"/>
       <use xlink:href="#DejaVuSans-30" x="63.623047"/>
      </g>
     </g>
    </g>
    <g id="ytick_6">
     <g id="line2d_21">
      <path d="M 61.348438 12.898828 
L 396.148438 12.898828 
" clip-path="url(#pbab4a561c7)" style="fill: none; stroke: #b0b0b0; stroke-width: 0.8; stroke-linecap: square"/>
     </g>
     <g id="line2d_22">
      <g>
       <use xlink:href="#m81f55776ff" x="61.348438" y="12.898828" style="stroke: #000000; stroke-width: 0.8"/>
      </g>
     </g>
     <g id="text_12">
      <!-- 100 -->
      <g transform="translate(25.717188 18.597656) scale(0.15 -0.15)">
       <use xlink:href="#DejaVuSans-31"/>
       <use xlink:href="#DejaVuSans-30" x="63.623047"/>
       <use xlink:href="#DejaVuSans-30" x="127.246094"/>
      </g>
     </g>
    </g>
    <g id="text_13">
     <!-- Flip Rate (%) -->
     <g transform="translate(18.597656 199.680469) rotate(-90) scale(0.15 -0.15)">
      <defs>
       <path id="DejaVuSans-46" d="M 628 4666 
L 3309 4666 
L 3309 4134 
L 1259 4134 
L 1259 2759 
L 3109 2759 
L 3109 2228 
L 1259 2228 
L 1259 0 
L 628 0 
L 628 4666 
z
" transform="scale(0.015625)"/>
       <path id="DejaVuSans-6c" d="M 603 4863 
L 1178 4863 
L 1178 0 
L 603 0 
L 603 4863 
z
" transform="scale(0.015625)"/>
       <path id="DejaVuSans-69" d="M 603 3500 
L 1178 3500 
L 1178 0 
L 603 0 
L 603 3500 
z
M 603 4863 
L 1178 4863 
L 1178 4134 
L 603 4134 
L 603 4863 
z
" transform="scale(0.015625)"/>
       <path id="DejaVuSans-20" transform="scale(0.015625)"/>
       <path id="DejaVuSans-52" d="M 2841 2188 
Q 3044 2119 3236 1894 
Q 3428 1669 3622 1275 
L 4263 0 
L 3584 0 
L 2988 1197 
Q 2756 1666 2539 1819 
Q 2322 1972 1947 1972 
L 1259 1972 
L 1259 0 
L 628 0 
L 628 4666 
L 2053 4666 
Q 2853 4666 3247 4331 
Q 3641 3997 3641 3322 
Q 3641 2881 3436 2590 
Q 3231 2300 2841 2188 
z
M 1259 4147 
L 1259 2491 
L 2053 2491 
Q 2509 2491 2742 2702 
Q 2975 2913 2975 3322 
Q 2975 3731 2742 3939 
Q 2509 4147 2053 4147 
L 1259 4147 
z
" transform="scale(0.015625)"/>
       <path id="DejaVuSans-61" d="M 2194 1759 
Q 1497 1759 1228 1600 
Q 959 1441 959 1056 
Q 959 750 1161 570 
Q 1363 391 1709 391 
Q 2188 391 2477 730 
Q 2766 1069 2766 1631 
L 2766 1759 
L 2194 1759 
z
M 3341 1997 
L 3341 0 
L 2766 0 
L 2766 531 
Q 2569 213 2275 61 
Q 1981 -91 1556 -91 
Q 1019 -91 701 211 
Q 384 513 384 1019 
Q 384 1609 779 1909 
Q 1175 2209 1959 2209 
L 2766 2209 
L 2766 2266 
Q 2766 2663 2505 2880 
Q 2244 3097 1772 3097 
Q 1472 3097 1187 3025 
Q 903 2953 641 2809 
L 641 3341 
Q 956 3463 1253 3523 
Q 1550 3584 1831 3584 
Q 2591 3584 2966 3190 
Q 3341 2797 3341 1997 
z
" transform="scale(0.015625)"/>
       <path id="DejaVuSans-74" d="M 1172 4494 
L 1172 3500 
L 2356 3500 
L 2356 3053 
L 1172 3053 
L 1172 1153 
Q 1172 725 1289 603 
Q 1406 481 1766 481 
L 2356 481 
L 2356 0 
L 1766 0 
Q 1100 0 847 248 
Q 594 497 594 1153 
L 594 3053 
L 172 3053 
L 172 3500 
L 594 3500 
L 594 4494 
L 1172 4494 
z
" transform="scale(0.015625)"/>
       <path id="DejaVuSans-65" d="M 3597 1894 
L 3597 1613 
L 953 1613 
Q 991 1019 1311 708 
Q 1631 397 2203 397 
Q 2534 397 2845 478 
Q 3156 559 3463 722 
L 3463 178 
Q 3153 47 2828 -22 
Q 2503 -91 2169 -91 
Q 1331 -91 842 396 
Q 353 884 353 1716 
Q 353 2575 817 3079 
Q 1281 3584 2069 3584 
Q 2775 3584 3186 3129 
Q 3597 2675 3597 1894 
z
M 3022 2063 
Q 3016 2534 2758 2815 
Q 2500 3097 2075 3097 
Q 1594 3097 1305 2825 
Q 1016 2553 972 2059 
L 3022 2063 
z
" transform="scale(0.015625)"/>
       <path id="DejaVuSans-28" d="M 1984 4856 
Q 1566 4138 1362 3434 
Q 1159 2731 1159 2009 
Q 1159 1288 1364 580 
Q 1569 -128 1984 -844 
L 1484 -844 
Q 1016 -109 783 600 
Q 550 1309 550 2009 
Q 550 2706 781 3412 
Q 1013 4119 1484 4856 
L 1984 4856 
z
" transform="scale(0.015625)"/>
       <path id="DejaVuSans-25" d="M 4653 2053 
Q 4381 2053 4226 1822 
Q 4072 1591 4072 1178 
Q 4072 772 4226 539 
Q 4381 306 4653 306 
Q 4919 306 5073 539 
Q 5228 772 5228 1178 
Q 5228 1588 5073 1820 
Q 4919 2053 4653 2053 
z
M 4653 2450 
Q 5147 2450 5437 2106 
Q 5728 1763 5728 1178 
Q 5728 594 5436 251 
Q 5144 -91 4653 -91 
Q 4153 -91 3862 251 
Q 3572 594 3572 1178 
Q 3572 1766 3864 2108 
Q 4156 2450 4653 2450 
z
M 1428 4353 
Q 1159 4353 1004 4120 
Q 850 3888 850 3481 
Q 850 3069 1003 2837 
Q 1156 2606 1428 2606 
Q 1700 2606 1854 2837 
Q 2009 3069 2009 3481 
Q 2009 3884 1853 4118 
Q 1697 4353 1428 4353 
z
M 4250 4750 
L 4750 4750 
L 1831 -91 
L 1331 -91 
L 4250 4750 
z
M 1428 4750 
Q 1922 4750 2215 4408 
Q 2509 4066 2509 3481 
Q 2509 2891 2217 2550 
Q 1925 2209 1428 2209 
Q 931 2209 642 2551 
Q 353 2894 353 3481 
Q 353 4063 643 4406 
Q 934 4750 1428 4750 
z
" transform="scale(0.015625)"/>
       <path id="DejaVuSans-29" d="M 513 4856 
L 1013 4856 
Q 1481 4119 1714 3412 
Q 1947 2706 1947 2009 
Q 1947 1309 1714 600 
Q 1481 -109 1013 -844 
L 513 -844 
Q 928 -128 1133 580 
Q 1338 1288 1338 2009 
Q 1338 2731 1133 3434 
Q 928 4138 513 4856 
z
" transform="scale(0.015625)"/>
      </defs>
      <use xlink:href="#DejaVuSans-46"/>
      <use xlink:href="#DejaVuSans-6c" x="57.519531"/>
      <use xlink:href="#DejaVuSans-69" x="85.302734"/>
      <use xlink:href="#DejaVuSans-70" x="113.085938"/>
      <use xlink:href="#DejaVuSans-20" x="176.5625"/>
      <use xlink:href="#DejaVuSans-52" x="208.349609"/>
      <use xlink:href="#DejaVuSans-61" x="275.582031"/>
      <use xlink:href="#DejaVuSans-74" x="336.861328"/>
      <use xlink:href="#DejaVuSans-65" x="376.070312"/>
      <use xlink:href="#DejaVuSans-20" x="437.59375"/>
      <use xlink:href="#DejaVuSans-28" x="469.380859"/>
      <use xlink:href="#DejaVuSans-25" x="508.394531"/>
      <use xlink:href="#DejaVuSans-29" x="603.414062"/>
     </g>
    </g>
   </g>
   <g id="line2d_23">
    <path d="M 76.566619 151.292184 
L 78.103809 151.004678 
L 84.25257 152.073839 
L 85.78976 150.82948 
L 87.32695 151.116985 
L 88.86414 151.233784 
L 90.40133 151.013663 
L 95.0129 151.507813 
L 96.55009 152.599434 
L 98.08728 151.745903 
L 99.624471 152.53205 
L 101.161661 151.633596 
L 102.698851 151.597658 
L 104.236041 150.937294 
L 107.310421 152.168176 
L 108.847611 151.534766 
L 110.384801 149.656998 
L 111.921991 151.539259 
L 113.459181 151.99747 
L 114.996371 151.382029 
L 118.070752 151.453905 
L 119.607942 151.094524 
L 121.145132 151.943563 
L 122.682322 151.539259 
L 124.219512 150.407207 
L 125.756702 151.543751 
L 127.293892 151.148431 
L 128.831082 151.624612 
L 130.368272 151.795318 
L 131.905462 151.377537 
L 133.442652 152.437713 
L 134.979842 151.161908 
L 138.054223 150.816003 
L 139.591413 150.384745 
L 141.128603 151.130462 
L 142.665793 151.081047 
L 144.202983 151.642581 
L 147.277363 151.408983 
L 148.814553 151.723442 
L 150.351743 151.548243 
L 151.888933 152.275991 
L 153.426123 151.808795 
L 154.963314 151.804302 
L 156.500504 150.784557 
L 158.037694 150.973233 
L 159.574884 151.638088 
L 161.112074 150.982217 
L 162.649264 151.157416 
L 164.186454 152.311929 
L 167.260834 151.79981 
L 168.798024 151.12597 
L 170.335214 151.045109 
L 173.409595 151.575197 
L 174.946785 150.820495 
L 176.483975 151.206831 
L 179.558355 151.835748 
L 181.095545 151.2248 
L 182.632735 150.887879 
L 184.169925 152.406267 
L 188.781495 151.337106 
L 191.855876 152.019931 
L 193.393066 150.407207 
L 194.930256 151.238276 
L 196.467446 151.319137 
L 198.004636 151.804302 
L 199.541826 151.292184 
L 201.079016 152.316421 
L 202.616206 152.419743 
L 204.153396 151.835748 
L 205.690586 150.622836 
L 207.227776 151.975009 
L 208.764966 151.579689 
L 210.302157 152.0963 
L 211.839347 152.0963 
L 214.913727 151.197846 
L 216.450917 152.39279 
L 217.988107 151.031632 
L 219.525297 151.983993 
L 221.062487 151.948055 
L 222.599677 152.401774 
L 224.136867 151.193354 
L 225.674057 151.081047 
L 227.211247 150.820495 
L 228.748438 151.179877 
L 230.285628 151.669534 
L 231.822818 150.160132 
L 233.360008 152.284975 
L 234.897198 151.46289 
L 236.434388 151.408983 
L 237.971578 151.939071 
L 241.045958 149.841181 
L 242.583148 151.431444 
L 244.120338 151.75938 
L 245.657528 151.458398 
L 247.194718 151.826764 
L 248.731909 151.498828 
L 250.269099 151.975009 
L 251.806289 151.575197 
L 253.343479 152.060362 
L 254.880669 150.833972 
L 256.417859 151.399998 
L 259.492239 151.413475 
L 261.029429 151.584181 
L 262.566619 150.429668 
L 264.103809 151.606643 
L 265.640999 151.813287 
L 268.71538 150.636312 
L 270.25257 153.192414 
L 271.78976 151.952547 
L 273.32695 151.480859 
L 274.86414 151.453905 
L 276.40133 151.12597 
L 277.93852 151.534766 
L 279.47571 150.856434 
L 281.0129 150.735142 
L 282.55009 151.687503 
L 284.08728 151.081047 
L 285.624471 151.013663 
L 287.161661 151.624612 
L 288.698851 150.892372 
L 290.236041 150.59139 
L 293.310421 151.319137 
L 294.847611 151.157416 
L 297.921991 151.70098 
L 299.459181 150.959756 
L 300.996371 151.930086 
L 302.533561 152.1547 
L 304.070752 151.377537 
L 305.607942 151.786333 
L 307.145132 151.669534 
L 308.682322 151.683011 
L 310.219512 151.579689 
L 311.756702 151.359568 
L 313.293892 150.232008 
L 316.368272 152.042393 
L 317.905462 152.186145 
L 319.442652 150.887879 
L 320.979842 150.932802 
L 322.517033 152.024424 
L 325.591413 150.896864 
L 327.128603 150.699204 
L 330.202983 151.597658 
L 331.740173 151.849225 
L 333.277363 151.916609 
L 334.814553 151.70098 
L 336.351743 151.179877 
L 337.888933 150.941787 
L 339.426123 151.691996 
L 340.963314 151.629104 
L 342.500504 152.109777 
L 344.037694 151.413475 
L 345.574884 151.377537 
L 347.112074 151.853717 
L 348.649264 151.139447 
L 350.186454 151.054093 
L 351.723644 150.798034 
L 353.260834 150.950771 
L 354.798024 151.795318 
L 356.335214 149.845673 
L 357.872404 151.992978 
L 359.409595 150.807019 
L 360.946785 151.000186 
L 362.483975 152.0963 
L 364.021165 151.242769 
L 365.558355 151.494336 
L 367.095545 151.314645 
L 368.632735 151.009171 
L 370.169925 151.983993 
L 371.707115 150.726158 
L 373.244305 151.121477 
L 374.781495 151.786333 
L 376.318685 151.485351 
L 377.855876 151.741411 
L 379.393066 152.13673 
L 380.930256 151.588674 
L 380.930256 151.588674 
" clip-path="url(#pbab4a561c7)" style="fill: none; stroke-dasharray: 11.1,4.8; stroke-dashoffset: 0; stroke: #ff0000; stroke-width: 3"/>
   </g>
   <g id="line2d_24">
    <path d="M 76.566619 261.649284 
L 79.640999 274.268069 
L 81.17819 275.557351 
L 82.71538 278.746862 
L 84.25257 278.414434 
L 87.32695 281.302964 
L 88.86414 280.880691 
L 90.40133 282.273294 
L 91.93852 282.147511 
L 93.47571 283.014519 
L 95.0129 282.807874 
L 96.55009 282.97858 
L 98.08728 281.698284 
L 99.624471 283.23464 
L 102.698851 283.445777 
L 104.236041 283.854573 
L 105.773231 282.929166 
L 107.310421 283.153779 
L 108.847611 283.050457 
L 110.384801 282.677598 
L 111.921991 281.689299 
L 113.459181 283.445777 
L 114.996371 283.351439 
L 116.533561 282.825843 
L 118.070752 281.702776 
L 119.607942 283.625467 
L 121.145132 283.67039 
L 122.682322 283.180733 
L 124.219512 282.358647 
L 125.756702 283.108856 
L 127.293892 282.196926 
L 128.831082 283.158271 
L 130.368272 282.565292 
L 131.905462 284.505952 
L 133.442652 283.526637 
L 134.979842 283.463746 
L 136.517033 282.452985 
L 138.054223 283.499684 
L 139.591413 281.518593 
L 141.128603 283.454761 
L 142.665793 283.463746 
L 144.202983 282.327201 
L 145.740173 283.405346 
L 147.277363 281.392809 
L 148.814553 281.747699 
L 150.351743 282.529354 
L 151.888933 281.985789 
L 153.426123 282.412555 
L 154.963314 280.50334 
L 156.500504 281.23558 
L 158.037694 280.822291 
L 159.574884 282.152003 
L 161.112074 282.093603 
L 162.649264 280.984013 
L 164.186454 281.559023 
L 165.723644 280.507832 
L 167.260834 279.739654 
L 168.798024 280.063097 
L 170.335214 280.211342 
L 171.872404 281.060381 
L 173.409595 280.426971 
L 174.946785 279.002922 
L 178.021165 281.271518 
L 179.558355 281.258041 
L 181.095545 276.792725 
L 182.632735 276.029039 
L 184.169925 278.117945 
L 185.707115 278.032591 
L 187.244305 267.749786 
L 188.781495 270.15315 
L 190.318685 262.071557 
L 191.855876 274.649912 
L 193.393066 267.327513 
L 194.930256 268.868361 
L 196.467446 267.884554 
L 198.004636 270.597885 
L 199.541826 260.566646 
L 201.079016 266.891762 
L 202.616206 269.802753 
L 204.153396 269.81623 
L 205.690586 257.592764 
L 207.227776 257.749993 
L 208.764966 275.620243 
L 210.302157 262.143433 
L 211.839347 267.77674 
L 213.376537 250.989127 
L 214.913727 269.946506 
L 216.450917 255.378075 
L 217.988107 269.524232 
L 219.525297 249.398864 
L 221.062487 266.685118 
L 222.599677 255.180415 
L 224.136867 268.019322 
L 225.674057 261.770575 
L 227.211247 268.145106 
L 228.748438 256.006993 
L 230.285628 264.69055 
L 231.822818 264.892702 
L 233.360008 250.665684 
L 234.897198 264.111047 
L 236.434388 275.561843 
L 237.971578 270.723668 
L 239.508768 268.774023 
L 241.045958 269.838691 
L 242.583148 271.154926 
L 244.120338 266.599765 
L 245.657528 266.968131 
L 247.194718 258.747277 
L 248.731909 270.148658 
L 250.269099 272.583468 
L 251.806289 269.187312 
L 253.343479 265.297007 
L 254.880669 263.360838 
L 256.417859 270.193581 
L 257.955049 273.755951 
L 259.492239 265.611465 
L 261.029429 263.432715 
L 262.566619 256.712279 
L 265.640999 270.265457 
L 267.17819 256.49665 
L 268.71538 264.191908 
L 270.25257 268.756054 
L 271.78976 272.399285 
L 273.32695 272.569991 
L 274.86414 256.941385 
L 276.40133 268.863869 
L 277.93852 274.452252 
L 279.47571 265.000517 
L 281.0129 270.5889 
L 282.55009 273.877242 
L 284.08728 274.178224 
L 285.624471 263.549514 
L 287.161661 269.852168 
L 288.698851 266.900747 
L 290.236041 256.393328 
L 291.773231 265.746234 
L 293.310421 263.459668 
L 294.847611 260.93052 
L 296.384801 263.477637 
L 297.921991 255.849763 
L 299.459181 260.55317 
L 300.996371 261.995188 
L 302.533561 256.878493 
L 304.070752 249.398864 
L 305.607942 265.454236 
L 307.145132 264.412029 
L 308.682322 251.653983 
L 310.219512 264.308707 
L 311.756702 273.836811 
L 313.293892 271.123481 
L 314.831082 255.449951 
L 316.368272 264.223354 
L 317.905462 258.98986 
L 319.442652 259.708623 
L 322.517033 264.74895 
L 324.054223 262.520784 
L 325.591413 265.544081 
L 327.128603 264.964579 
L 328.665793 261.653776 
L 330.202983 275.831379 
L 331.740173 264.901687 
L 333.277363 272.313932 
L 334.814553 269.393957 
L 336.351743 269.317588 
L 337.888933 255.014201 
L 339.426123 260.822706 
L 340.963314 269.196297 
L 342.500504 269.101959 
L 344.037694 265.049932 
L 345.574884 262.655552 
L 347.112074 263.697759 
L 348.649264 265.984324 
L 350.186454 264.596212 
L 351.723644 264.582736 
L 353.260834 269.560171 
L 354.798024 267.358958 
L 356.335214 269.614078 
L 357.872404 268.140613 
L 359.409595 259.22795 
L 362.483975 272.569991 
L 364.021165 272.938358 
L 365.558355 262.857704 
L 367.095545 244.830225 
L 368.632735 264.973563 
L 370.169925 266.240383 
L 371.707115 272.987772 
L 373.244305 270.579916 
L 374.781495 260.98892 
L 376.318685 267.048992 
L 377.855876 271.640092 
L 379.393066 262.803797 
L 380.930256 269.232235 
L 380.930256 269.232235 
" clip-path="url(#pbab4a561c7)" style="fill: none; stroke: #000000; stroke-width: 3; stroke-linecap: square"/>
   </g>
   <g id="line2d_25">
    <path d="M 76.566619 290.098828 
L 81.17819 290.098828 
L 82.71538 289.932614 
L 84.25257 288.8949 
L 85.78976 279.595901 
L 87.32695 273.567275 
L 88.86414 275.624735 
L 90.40133 280.238296 
L 91.93852 279.110736 
L 95.0129 281.680315 
L 98.08728 283.315501 
L 101.161661 284.133094 
L 102.698851 285.1753 
L 104.236041 285.988401 
L 105.773231 286.334306 
L 107.310421 287.142915 
L 110.384801 287.538234 
L 111.921991 288.014415 
L 113.459181 288.252505 
L 114.996371 286.725134 
L 116.533561 287.587649 
L 118.070752 288.607395 
L 119.607942 288.975761 
L 121.145132 289.182405 
L 122.682322 289.195882 
L 124.219512 289.496864 
L 125.756702 289.465418 
L 128.831082 289.640617 
L 133.442652 289.770892 
L 134.979842 238.554524 
L 136.517033 236.955276 
L 138.054223 278.028099 
L 139.591413 286.415167 
L 141.128603 288.009923 
L 142.665793 288.823024 
L 144.202983 289.110529 
L 145.740173 288.966776 
L 147.277363 287.978477 
L 148.814553 282.529354 
L 150.351743 278.275174 
L 151.888933 280.696507 
L 153.426123 281.509608 
L 154.963314 282.574276 
L 156.500504 283.032488 
L 158.037694 284.914749 
L 159.574884 286.581381 
L 162.649264 288.405242 
L 164.186454 288.764624 
L 165.723644 288.858962 
L 168.798024 288.715209 
L 171.872404 287.991954 
L 173.409595 287.165376 
L 174.946785 287.219283 
L 176.483975 287.969492 
L 178.021165 287.587649 
L 181.095545 287.947031 
L 182.632735 287.879647 
L 184.169925 287.978477 
L 185.707115 287.911093 
L 187.244305 288.018907 
L 188.781495 287.637064 
L 190.318685 287.47085 
L 193.393066 287.425928 
L 194.930256 287.704448 
L 196.467446 287.080023 
L 198.004636 287.655033 
L 199.541826 287.52925 
L 201.079016 287.86617 
L 202.616206 287.515773 
L 204.153396 287.690972 
L 205.690586 287.376513 
L 207.227776 287.852693 
L 208.764966 287.749371 
L 210.302157 287.389989 
L 211.839347 287.43042 
L 213.376537 286.662242 
L 214.913727 286.397198 
L 216.450917 286.617319 
L 219.525297 286.442121 
L 221.062487 286.626304 
L 222.599677 286.603842 
L 224.136867 286.177077 
L 225.674057 286.63978 
L 227.211247 286.428644 
L 228.748438 286.603842 
L 230.285628 285.754803 
L 231.822818 285.72785 
L 233.360008 286.788025 
L 234.897198 286.59935 
L 236.434388 286.199538 
L 239.508768 286.612827 
L 241.045958 286.266922 
L 242.583148 285.588589 
L 244.120338 286.509505 
L 245.657528 285.844649 
L 247.194718 286.082739 
L 248.731909 286.019847 
L 250.269099 286.55892 
L 251.806289 285.885079 
L 253.343479 285.597574 
L 254.880669 285.615543 
L 256.417859 285.067486 
L 259.492239 284.434076 
L 261.029429 285.80871 
L 262.566619 285.314561 
L 264.103809 284.398138 
L 265.640999 285.103424 
L 267.17819 285.399914 
L 268.71538 284.50146 
L 270.25257 284.088171 
L 271.78976 284.645213 
L 273.32695 285.071978 
L 274.86414 284.344231 
L 276.40133 284.753027 
L 277.93852 284.905764 
L 279.47571 284.537398 
L 281.0129 283.854573 
L 282.55009 284.290323 
L 284.08728 284.191493 
L 285.624471 283.818635 
L 287.161661 283.746759 
L 288.698851 284.928226 
L 290.236041 284.115125 
L 291.773231 283.616483 
L 293.310421 284.528414 
L 294.847611 283.324485 
L 296.384801 284.366692 
L 297.921991 283.634452 
L 299.459181 283.90848 
L 302.533561 284.034264 
L 304.070752 283.212179 
L 305.607942 283.652421 
L 307.145132 283.86805 
L 308.682322 283.607498 
L 311.756702 283.751251 
L 313.293892 283.697344 
L 314.831082 283.382885 
L 316.368272 284.582321 
L 317.905462 283.099872 
L 319.442652 282.911196 
L 320.979842 283.207686 
L 322.517033 281.208626 
L 324.054223 282.026219 
L 325.591413 282.426031 
L 327.128603 283.580545 
L 328.665793 281.361363 
L 330.202983 282.789905 
L 331.740173 283.221163 
L 333.277363 282.497908 
L 334.814553 281.105304 
L 336.351743 283.104364 
L 340.963314 282.565292 
L 342.500504 283.261593 
L 344.037694 282.322709 
L 345.574884 282.327201 
L 348.649264 282.520369 
L 350.186454 282.574276 
L 351.723644 282.138526 
L 353.260834 282.551815 
L 354.798024 282.497908 
L 356.335214 282.026219 
L 357.872404 281.729729 
L 359.409595 282.789905 
L 360.946785 281.86899 
L 362.483975 281.918405 
L 364.021165 282.228371 
L 365.558355 281.693791 
L 367.095545 281.801606 
L 368.632735 281.576992 
L 370.169925 281.886959 
L 371.707115 281.325425 
L 373.244305 282.183449 
L 374.781495 281.720745 
L 376.318685 281.47367 
L 377.855876 281.356871 
L 379.393066 280.242788 
L 380.930256 281.747699 
L 380.930256 281.747699 
" clip-path="url(#pbab4a561c7)" style="fill: none; stroke: #bfbf00; stroke-width: 3; stroke-linecap: square"/>
   </g>
   <g id="line2d_26">
    <path d="M 76.566619 272.345378 
L 78.103809 279.142182 
L 79.640999 280.188881 
L 81.17819 281.608438 
L 82.71538 283.665898 
L 84.25257 283.724297 
L 85.78976 284.321769 
L 87.32695 285.319053 
L 88.86414 284.357707 
L 90.40133 285.287607 
L 91.93852 285.381945 
L 93.47571 286.055785 
L 95.0129 285.723357 
L 96.55009 286.30286 
L 98.08728 286.433136 
L 99.624471 286.00637 
L 101.161661 285.90754 
L 104.236041 285.988401 
L 107.310421 285.72785 
L 108.847611 285.912033 
L 110.384801 285.835664 
L 111.921991 285.934494 
L 113.459181 284.950687 
L 114.996371 286.446613 
L 116.533561 285.642496 
L 118.070752 285.539174 
L 119.607942 285.853633 
L 121.145132 285.413391 
L 122.682322 285.844649 
L 124.219512 285.368468 
L 125.756702 285.534682 
L 127.293892 285.938986 
L 128.831082 285.422375 
L 130.368272 285.57062 
L 131.905462 285.974924 
L 133.442652 285.862618 
L 134.979842 285.390929 
L 136.517033 286.177077 
L 138.054223 285.62902 
L 139.591413 285.354991 
L 141.128603 285.664958 
L 142.665793 285.009086 
L 144.202983 285.161824 
L 147.277363 285.799726 
L 148.814553 285.184285 
L 150.351743 285.831172 
L 151.888933 284.573336 
L 153.426123 286.213015 
L 154.963314 284.64072 
L 156.500504 283.746759 
L 158.037694 285.337022 
L 159.574884 285.655973 
L 161.112074 285.238192 
L 162.649264 285.503236 
L 164.186454 284.474506 
L 165.723644 284.784473 
L 167.260834 284.820411 
L 168.798024 284.155555 
L 170.335214 283.243624 
L 173.409595 284.901272 
L 174.946785 283.814143 
L 176.483975 283.53113 
L 178.021165 283.540114 
L 179.558355 284.249893 
L 181.095545 281.828559 
L 182.632735 281.064874 
L 185.707115 280.984013 
L 187.244305 281.464686 
L 188.781495 282.295755 
L 190.318685 278.077514 
L 191.855876 279.982237 
L 193.393066 279.290427 
L 194.930256 279.160151 
L 196.467446 279.928329 
L 198.004636 276.177284 
L 199.541826 269.650016 
L 201.079016 274.295023 
L 202.616206 271.936581 
L 204.153396 277.012846 
L 205.690586 261.119196 
L 207.227776 263.365331 
L 208.764966 256.487666 
L 210.302157 266.199953 
L 211.839347 256.604465 
L 213.376537 260.93052 
L 214.913727 245.921847 
L 216.450917 260.274649 
L 217.988107 245.638834 
L 219.525297 260.840675 
L 221.062487 251.941488 
L 222.599677 257.691594 
L 224.136867 252.10321 
L 225.674057 261.366271 
L 227.211247 260.867629 
L 228.748438 257.561318 
L 230.285628 261.806513 
L 231.822818 262.83075 
L 234.897198 268.306827 
L 236.434388 268.760547 
L 237.971578 262.390508 
L 239.508768 269.991429 
L 241.045958 260.782275 
L 242.583148 256.510127 
L 244.120338 262.260232 
L 245.657528 264.973563 
L 247.194718 267.147822 
L 248.731909 257.399596 
L 250.269099 262.579183 
L 251.806289 269.735369 
L 253.343479 261.456116 
L 254.880669 254.520051 
L 256.417859 263.890926 
L 257.955049 245.423205 
L 259.492239 266.307767 
L 261.029429 247.440234 
L 262.566619 245.733172 
L 264.103809 261.757098 
L 265.640999 254.461652 
L 267.17819 251.698906 
L 268.71538 265.539589 
L 270.25257 263.52256 
L 271.78976 250.49947 
L 273.32695 263.823542 
L 274.86414 256.051915 
L 276.40133 267.902523 
L 277.93852 261.95925 
L 279.47571 259.398656 
L 281.0129 261.505531 
L 282.55009 256.599972 
L 284.08728 255.584719 
L 285.624471 253.473352 
L 287.161661 246.604672 
L 288.698851 260.656492 
L 290.236041 247.938876 
L 291.773231 243.293869 
L 293.310421 258.05996 
L 294.847611 236.631833 
L 296.384801 260.274649 
L 297.921991 264.429999 
L 299.459181 230.544807 
L 300.996371 255.422998 
L 302.533561 276.132361 
L 304.070752 224.960916 
L 305.607942 259.614285 
L 307.145132 257.502918 
L 308.682322 248.172474 
L 310.219512 258.450787 
L 311.756702 255.324168 
L 313.293892 255.198384 
L 314.831082 255.737456 
L 316.368272 253.976487 
L 317.905462 258.846107 
L 319.442652 257.615225 
L 320.979842 258.940445 
L 322.517033 252.902834 
L 324.054223 253.522767 
L 325.591413 264.695042 
L 327.128603 259.403149 
L 328.665793 257.606241 
L 330.202983 260.827198 
L 331.740173 268.540425 
L 333.277363 254.740173 
L 334.814553 256.546065 
L 336.351743 261.015873 
L 337.888933 260.607077 
L 339.426123 239.497901 
L 340.963314 263.293454 
L 342.500504 255.76441 
L 344.037694 257.035722 
L 345.574884 267.632987 
L 347.112074 260.571139 
L 348.649264 269.358018 
L 350.186454 257.983591 
L 351.723644 249.27308 
L 353.260834 247.188667 
L 354.798024 262.094018 
L 356.335214 261.658268 
L 357.872404 253.72492 
L 359.409595 263.72022 
L 360.946785 247.678324 
L 362.483975 263.122748 
L 364.021165 235.266183 
L 365.558355 265.350914 
L 367.095545 254.789588 
L 368.632735 241.4745 
L 370.169925 260.926028 
L 371.707115 263.796588 
L 373.244305 261.280917 
L 374.781495 251.312571 
L 376.318685 259.200996 
L 377.855876 260.247695 
L 379.393066 256.860524 
L 380.930256 261.298886 
L 380.930256 261.298886 
" clip-path="url(#pbab4a561c7)" style="fill: none; stroke-dasharray: 11.1,4.8; stroke-dashoffset: 0; stroke: #0000ff; stroke-width: 3"/>
   </g>
   <g id="line2d_27">
    <path d="M 76.566619 290.098828 
L 380.930256 290.098828 
L 380.930256 290.098828 
" clip-path="url(#pbab4a561c7)" style="fill: none; stroke: #00bfbf; stroke-width: 3; stroke-linecap: square"/>
   </g>
   <g id="line2d_28">
    <path d="M 76.566619 271.316648 
L 78.103809 278.598617 
L 79.640999 280.24728 
L 81.17819 281.365856 
L 82.71538 283.607498 
L 84.25257 283.760235 
L 87.32695 285.062994 
L 88.86414 284.187001 
L 90.40133 285.2337 
L 91.93852 284.802442 
L 93.47571 285.615543 
L 95.0129 285.323545 
L 96.55009 285.395422 
L 98.08728 285.651481 
L 99.624471 285.319053 
L 102.698851 285.116901 
L 104.236041 285.745819 
L 105.773231 285.597574 
L 107.310421 285.655973 
L 108.847611 285.43136 
L 110.384801 285.840156 
L 111.921991 285.422375 
L 113.459181 284.294816 
L 114.996371 285.871602 
L 116.533561 285.1753 
L 118.070752 284.770996 
L 119.607942 285.256161 
L 121.145132 285.2337 
L 122.682322 285.754803 
L 124.219512 284.784473 
L 125.756702 285.19327 
L 127.293892 285.202254 
L 128.831082 284.618259 
L 130.368272 285.224715 
L 131.905462 285.184285 
L 134.979842 284.690135 
L 136.517033 284.631736 
L 138.054223 284.46103 
L 139.591413 284.047741 
L 141.128603 284.60029 
L 142.665793 284.267862 
L 145.740173 285.03604 
L 147.277363 284.631736 
L 148.814553 284.425091 
L 150.351743 285.444837 
L 151.888933 282.156495 
L 153.426123 285.098932 
L 154.963314 284.128602 
L 156.500504 281.410778 
L 158.037694 281.738714 
L 159.574884 280.930105 
L 162.649264 280.274234 
L 165.723644 279.506056 
L 167.260834 274.277054 
L 168.798024 281.141242 
L 170.335214 268.482026 
L 171.872404 270.88539 
L 173.409595 259.250411 
L 174.946785 272.25104 
L 176.483975 258.118359 
L 178.021165 262.561214 
L 179.558355 264.686058 
L 181.095545 243.788019 
L 182.632735 261.110211 
L 184.169925 253.275693 
L 185.707115 260.625046 
L 187.244305 226.245705 
L 188.781495 241.020781 
L 190.318685 238.199635 
L 191.855876 251.150849 
L 193.393066 259.039275 
L 194.930256 245.090777 
L 196.467446 262.669029 
L 198.004636 250.99362 
L 199.541826 253.051079 
L 201.079016 271.195357 
L 202.616206 271.029143 
L 204.153396 258.774231 
L 205.690586 254.978263 
L 207.227776 275.373168 
L 208.764966 271.047112 
L 210.302157 256.622434 
L 211.839347 260.29711 
L 213.376537 272.650852 
L 214.913727 264.942117 
L 216.450917 266.447028 
L 217.988107 265.108331 
L 219.525297 266.402105 
L 221.062487 268.032799 
L 222.599677 272.596945 
L 224.136867 272.758667 
L 225.674057 264.88821 
L 227.211247 264.281754 
L 228.748438 270.391241 
L 230.285628 274.178224 
L 231.822818 273.329185 
L 233.360008 265.431775 
L 234.897198 267.300559 
L 236.434388 272.812574 
L 237.971578 268.765039 
L 239.508768 276.846632 
L 241.045958 263.055364 
L 242.583148 252.368254 
L 244.120338 265.013994 
L 245.657528 262.601645 
L 247.194718 268.140613 
L 248.731909 264.811841 
L 250.269099 257.673625 
L 251.806289 256.483173 
L 253.343479 272.808082 
L 254.880669 266.29429 
L 256.417859 264.897195 
L 257.955049 268.05526 
L 259.492239 263.428222 
L 261.029429 252.318839 
L 262.566619 271.662553 
L 264.103809 266.676133 
L 265.640999 265.930417 
L 267.17819 264.996025 
L 268.71538 261.155134 
L 270.25257 266.195461 
L 271.78976 265.000517 
L 273.32695 268.046276 
L 274.86414 269.187312 
L 276.40133 267.278098 
L 277.93852 248.900222 
L 279.47571 269.286142 
L 281.0129 267.296067 
L 282.55009 249.735784 
L 284.08728 260.481293 
L 285.624471 250.099658 
L 287.161661 250.279349 
L 288.698851 259.18752 
L 290.236041 249.389879 
L 291.773231 248.990067 
L 293.310421 259.331272 
L 294.847611 235.360521 
L 297.921991 261.132672 
L 299.459181 233.235677 
L 300.996371 257.143537 
L 302.533561 271.136957 
L 304.070752 232.930203 
L 307.145132 265.633927 
L 308.682322 250.724083 
L 310.219512 263.944833 
L 311.756702 260.045543 
L 313.293892 260.225234 
L 314.831082 245.728679 
L 316.368272 264.241323 
L 317.905462 275.323753 
L 319.442652 251.887581 
L 320.979842 245.405236 
L 322.517033 268.046276 
L 324.054223 266.828871 
L 325.591413 256.460712 
L 327.128603 256.631418 
L 328.665793 270.750622 
L 330.202983 252.889357 
L 331.740173 254.996232 
L 333.277363 269.128913 
L 334.814553 265.413806 
L 336.351743 256.941385 
L 337.888933 259.753546 
L 339.426123 254.034886 
L 340.963314 270.997697 
L 342.500504 264.003233 
L 344.037694 262.655552 
L 345.574884 269.67697 
L 347.112074 268.88633 
L 348.649264 256.375359 
L 350.186454 256.914431 
L 351.723644 264.668089 
L 353.260834 251.712383 
L 354.798024 255.036662 
L 356.335214 264.412029 
L 357.872404 261.896358 
L 359.409595 255.741949 
L 360.946785 257.332212 
L 362.483975 265.049932 
L 364.021165 256.236098 
L 365.558355 257.305259 
L 367.095545 261.28541 
L 368.632735 253.055571 
L 370.169925 261.828974 
L 371.707115 269.81623 
L 373.244305 267.686894 
L 374.781495 266.873793 
L 376.318685 260.234219 
L 377.855876 258.98986 
L 379.393066 258.935953 
L 380.930256 272.673314 
L 380.930256 272.673314 
" clip-path="url(#pbab4a561c7)" style="fill: none; stroke: #bf00bf; stroke-width: 3; stroke-linecap: square"/>
   </g>
   <g id="line2d_29">
    <path d="M 76.566619 240.019004 
L 78.103809 258.518171 
L 79.640999 259.32678 
L 82.71538 268.243936 
L 84.25257 272.480146 
L 85.78976 272.511592 
L 87.32695 273.935641 
L 88.86414 272.264517 
L 90.40133 273.028203 
L 91.93852 276.294083 
L 93.47571 274.551082 
L 95.0129 276.40639 
L 96.55009 277.394689 
L 98.08728 274.416314 
L 99.624471 276.204238 
L 101.161661 274.497175 
L 102.698851 276.639988 
L 104.236041 276.797217 
L 105.773231 275.966147 
L 107.310421 276.361467 
L 108.847611 275.768487 
L 110.384801 275.530397 
L 111.921991 273.059649 
L 113.459181 276.361467 
L 114.996371 275.454029 
L 116.533561 273.032695 
L 118.070752 277.596841 
L 119.607942 276.082946 
L 121.145132 277.480042 
L 122.682322 274.622959 
L 124.219512 275.822395 
L 125.756702 274.977848 
L 127.293892 275.939194 
L 128.831082 276.442328 
L 130.368272 274.443268 
L 131.905462 277.484535 
L 133.442652 268.917776 
L 134.979842 276.815186 
L 136.517033 274.40733 
L 138.054223 275.853841 
L 139.591413 273.270785 
L 141.128603 274.712804 
L 142.665793 276.689403 
L 144.202983 275.283322 
L 145.740173 271.415478 
L 147.277363 272.273502 
L 148.814553 272.30944 
L 150.351743 272.01295 
L 151.888933 270.517024 
L 154.963314 269.030083 
L 156.500504 271.689507 
L 158.037694 271.020158 
L 159.574884 269.699431 
L 161.112074 265.526112 
L 162.649264 271.563723 
L 164.186454 273.369615 
L 165.723644 269.133405 
L 167.260834 269.277158 
L 168.798024 260.265664 
L 170.335214 250.445563 
L 171.872404 261.038335 
L 173.409595 264.146986 
L 174.946785 269.623062 
L 176.483975 263.455176 
L 178.021165 270.732653 
L 179.558355 259.205489 
L 181.095545 270.198073 
L 182.632735 253.464368 
L 184.169925 264.447968 
L 185.707115 266.411089 
L 187.244305 262.035619 
L 188.781495 259.969175 
L 190.318685 252.3413 
L 191.855876 277.71364 
L 193.393066 256.815601 
L 194.930256 274.398345 
L 196.467446 263.235055 
L 198.004636 260.970951 
L 199.541826 262.516292 
L 201.079016 256.330436 
L 202.616206 269.335557 
L 204.153396 268.958206 
L 205.690586 262.570199 
L 207.227776 268.01483 
L 208.764966 278.80077 
L 210.302157 276.770264 
L 211.839347 262.646567 
L 213.376537 272.664329 
L 214.913727 265.984324 
L 216.450917 268.868361 
L 217.988107 260.036559 
L 219.525297 275.404614 
L 221.062487 271.747906 
L 222.599677 244.282168 
L 224.136867 268.751562 
L 225.674057 265.943893 
L 227.211247 268.423626 
L 228.748438 259.335765 
L 230.285628 262.507307 
L 231.822818 272.11178 
L 233.360008 267.399389 
L 234.897198 269.901583 
L 236.434388 268.037291 
L 237.971578 270.184596 
L 239.508768 275.808918 
L 241.045958 270.6473 
L 242.583148 255.521828 
L 244.120338 261.348301 
L 245.657528 268.980668 
L 247.194718 265.261068 
L 248.731909 266.581796 
L 250.269099 264.704027 
L 251.806289 272.471161 
L 253.343479 260.73286 
L 254.880669 262.368047 
L 256.417859 263.729204 
L 257.955049 279.106244 
L 259.492239 239.628177 
L 261.029429 269.663493 
L 262.566619 260.723876 
L 264.103809 270.728161 
L 265.640999 267.727325 
L 267.17819 259.102167 
L 268.71538 271.033635 
L 270.25257 274.865541 
L 271.78976 277.408166 
L 273.32695 274.326469 
L 274.86414 266.397613 
L 276.40133 273.230355 
L 277.93852 254.776111 
L 279.47571 268.023814 
L 281.0129 276.824171 
L 282.55009 269.367003 
L 284.08728 280.440448 
L 285.624471 265.28353 
L 287.161661 277.0398 
L 288.698851 260.247695 
L 290.236041 265.117316 
L 291.773231 275.984116 
L 293.310421 268.639255 
L 294.847611 262.633091 
L 296.384801 265.930417 
L 297.921991 255.265768 
L 299.459181 267.129853 
L 300.996371 256.887478 
L 302.533561 255.144477 
L 304.070752 273.315708 
L 305.607942 267.682402 
L 307.145132 274.016502 
L 308.682322 257.094122 
L 310.219512 250.607284 
L 311.756702 269.263681 
L 313.293892 278.630063 
L 314.831082 268.091198 
L 317.905462 260.400433 
L 319.442652 264.843287 
L 320.979842 260.894582 
L 322.517033 275.629227 
L 324.054223 276.177284 
L 325.591413 256.069884 
L 327.128603 254.124732 
L 328.665793 262.094018 
L 330.202983 274.3085 
L 331.740173 252.830958 
L 333.277363 262.004173 
L 334.814553 261.676237 
L 336.351743 263.589944 
L 337.888933 262.970011 
L 339.426123 266.334721 
L 340.963314 266.559334 
L 342.500504 273.275278 
L 344.037694 272.808082 
L 345.574884 264.811841 
L 347.112074 253.064556 
L 348.649264 265.943893 
L 350.186454 266.020262 
L 351.723644 276.033531 
L 353.260834 264.897195 
L 354.798024 267.237667 
L 356.335214 255.768902 
L 357.872404 274.389361 
L 359.409595 268.625779 
L 360.946785 265.099347 
L 362.483975 264.915164 
L 364.021165 253.257724 
L 365.558355 264.78938 
L 367.095545 270.225027 
L 368.632735 263.95831 
L 370.169925 272.156703 
L 371.707115 279.564455 
L 373.244305 272.183656 
L 374.781495 252.152625 
L 376.318685 257.004277 
L 377.855876 280.714477 
L 379.393066 266.146046 
L 380.930256 272.713744 
L 380.930256 272.713744 
" clip-path="url(#pbab4a561c7)" style="fill: none; stroke: #008000; stroke-width: 3; stroke-linecap: square"/>
   </g>
   <g id="patch_3">
    <path d="M 61.348438 290.098828 
L 61.348438 12.898828 
" style="fill: none; stroke: #000000; stroke-width: 0.8; stroke-linejoin: miter; stroke-linecap: square"/>
   </g>
   <g id="patch_4">
    <path d="M 396.148438 290.098828 
L 396.148438 12.898828 
" style="fill: none; stroke: #000000; stroke-width: 0.8; stroke-linejoin: miter; stroke-linecap: square"/>
   </g>
   <g id="patch_5">
    <path d="M 61.348438 290.098828 
L 396.148438 290.098828 
" style="fill: none; stroke: #000000; stroke-width: 0.8; stroke-linejoin: miter; stroke-linecap: square"/>
   </g>
   <g id="patch_6">
    <path d="M 61.348438 12.898828 
L 396.148438 12.898828 
" style="fill: none; stroke: #000000; stroke-width: 0.8; stroke-linejoin: miter; stroke-linecap: square"/>
   </g>
   <g id="legend_1">
    <g id="patch_7">
     <path d="M 264.596094 179.019141 
L 385.648438 179.019141 
Q 388.648438 179.019141 388.648438 176.019141 
L 388.648438 23.398828 
Q 388.648438 20.398828 385.648438 20.398828 
L 264.596094 20.398828 
Q 261.596094 20.398828 261.596094 23.398828 
L 261.596094 176.019141 
Q 261.596094 179.019141 264.596094 179.019141 
z
" style="fill: #ffffff; opacity: 0.8; stroke: #cccccc; stroke-linejoin: miter"/>
    </g>
    <g id="line2d_30">
     <path d="M 267.596094 32.546484 
L 282.596094 32.546484 
L 297.596094 32.546484 
" style="fill: none; stroke-dasharray: 11.1,4.8; stroke-dashoffset: 0; stroke: #ff0000; stroke-width: 3"/>
    </g>
    <g id="text_14">
     <!-- Gaussian -->
     <g transform="translate(309.596094 37.796484) scale(0.15 -0.15)">
      <defs>
       <path id="DejaVuSans-47" d="M 3809 666 
L 3809 1919 
L 2778 1919 
L 2778 2438 
L 4434 2438 
L 4434 434 
Q 4069 175 3628 42 
Q 3188 -91 2688 -91 
Q 1594 -91 976 548 
Q 359 1188 359 2328 
Q 359 3472 976 4111 
Q 1594 4750 2688 4750 
Q 3144 4750 3555 4637 
Q 3966 4525 4313 4306 
L 4313 3634 
Q 3963 3931 3569 4081 
Q 3175 4231 2741 4231 
Q 1884 4231 1454 3753 
Q 1025 3275 1025 2328 
Q 1025 1384 1454 906 
Q 1884 428 2741 428 
Q 3075 428 3337 486 
Q 3600 544 3809 666 
z
" transform="scale(0.015625)"/>
       <path id="DejaVuSans-75" d="M 544 1381 
L 544 3500 
L 1119 3500 
L 1119 1403 
Q 1119 906 1312 657 
Q 1506 409 1894 409 
Q 2359 409 2629 706 
Q 2900 1003 2900 1516 
L 2900 3500 
L 3475 3500 
L 3475 0 
L 2900 0 
L 2900 538 
Q 2691 219 2414 64 
Q 2138 -91 1772 -91 
Q 1169 -91 856 284 
Q 544 659 544 1381 
z
M 1991 3584 
L 1991 3584 
z
" transform="scale(0.015625)"/>
       <path id="DejaVuSans-73" d="M 2834 3397 
L 2834 2853 
Q 2591 2978 2328 3040 
Q 2066 3103 1784 3103 
Q 1356 3103 1142 2972 
Q 928 2841 928 2578 
Q 928 2378 1081 2264 
Q 1234 2150 1697 2047 
L 1894 2003 
Q 2506 1872 2764 1633 
Q 3022 1394 3022 966 
Q 3022 478 2636 193 
Q 2250 -91 1575 -91 
Q 1294 -91 989 -36 
Q 684 19 347 128 
L 347 722 
Q 666 556 975 473 
Q 1284 391 1588 391 
Q 1994 391 2212 530 
Q 2431 669 2431 922 
Q 2431 1156 2273 1281 
Q 2116 1406 1581 1522 
L 1381 1569 
Q 847 1681 609 1914 
Q 372 2147 372 2553 
Q 372 3047 722 3315 
Q 1072 3584 1716 3584 
Q 2034 3584 2315 3537 
Q 2597 3491 2834 3397 
z
" transform="scale(0.015625)"/>
       <path id="DejaVuSans-6e" d="M 3513 2113 
L 3513 0 
L 2938 0 
L 2938 2094 
Q 2938 2591 2744 2837 
Q 2550 3084 2163 3084 
Q 1697 3084 1428 2787 
Q 1159 2491 1159 1978 
L 1159 0 
L 581 0 
L 581 3500 
L 1159 3500 
L 1159 2956 
Q 1366 3272 1645 3428 
Q 1925 3584 2291 3584 
Q 2894 3584 3203 3211 
Q 3513 2838 3513 2113 
z
" transform="scale(0.015625)"/>
      </defs>
      <use xlink:href="#DejaVuSans-47"/>
      <use xlink:href="#DejaVuSans-61" x="77.490234"/>
      <use xlink:href="#DejaVuSans-75" x="138.769531"/>
      <use xlink:href="#DejaVuSans-73" x="202.148438"/>
      <use xlink:href="#DejaVuSans-73" x="254.248047"/>
      <use xlink:href="#DejaVuSans-69" x="306.347656"/>
      <use xlink:href="#DejaVuSans-61" x="334.130859"/>
      <use xlink:href="#DejaVuSans-6e" x="395.410156"/>
     </g>
    </g>
    <g id="line2d_31">
     <path d="M 267.596094 54.563672 
L 282.596094 54.563672 
L 297.596094 54.563672 
" style="fill: none; stroke: #000000; stroke-width: 3; stroke-linecap: square"/>
    </g>
    <g id="text_15">
     <!-- Fang -->
     <g transform="translate(309.596094 59.813672) scale(0.15 -0.15)">
      <defs>
       <path id="DejaVuSans-67" d="M 2906 1791 
Q 2906 2416 2648 2759 
Q 2391 3103 1925 3103 
Q 1463 3103 1205 2759 
Q 947 2416 947 1791 
Q 947 1169 1205 825 
Q 1463 481 1925 481 
Q 2391 481 2648 825 
Q 2906 1169 2906 1791 
z
M 3481 434 
Q 3481 -459 3084 -895 
Q 2688 -1331 1869 -1331 
Q 1566 -1331 1297 -1286 
Q 1028 -1241 775 -1147 
L 775 -588 
Q 1028 -725 1275 -790 
Q 1522 -856 1778 -856 
Q 2344 -856 2625 -561 
Q 2906 -266 2906 331 
L 2906 616 
Q 2728 306 2450 153 
Q 2172 0 1784 0 
Q 1141 0 747 490 
Q 353 981 353 1791 
Q 353 2603 747 3093 
Q 1141 3584 1784 3584 
Q 2172 3584 2450 3431 
Q 2728 3278 2906 2969 
L 2906 3500 
L 3481 3500 
L 3481 434 
z
" transform="scale(0.015625)"/>
      </defs>
      <use xlink:href="#DejaVuSans-46"/>
      <use xlink:href="#DejaVuSans-61" x="48.394531"/>
      <use xlink:href="#DejaVuSans-6e" x="109.673828"/>
      <use xlink:href="#DejaVuSans-67" x="173.052734"/>
     </g>
    </g>
    <g id="line2d_32">
     <path d="M 267.596094 76.580859 
L 282.596094 76.580859 
L 297.596094 76.580859 
" style="fill: none; stroke: #bfbf00; stroke-width: 3; stroke-linecap: square"/>
    </g>
    <g id="text_16">
     <!-- MyAttack -->
     <g transform="translate(309.596094 81.830859) scale(0.15 -0.15)">
      <defs>
       <path id="DejaVuSans-4d" d="M 628 4666 
L 1569 4666 
L 2759 1491 
L 3956 4666 
L 4897 4666 
L 4897 0 
L 4281 0 
L 4281 4097 
L 3078 897 
L 2444 897 
L 1241 4097 
L 1241 0 
L 628 0 
L 628 4666 
z
" transform="scale(0.015625)"/>
       <path id="DejaVuSans-79" d="M 2059 -325 
Q 1816 -950 1584 -1140 
Q 1353 -1331 966 -1331 
L 506 -1331 
L 506 -850 
L 844 -850 
Q 1081 -850 1212 -737 
Q 1344 -625 1503 -206 
L 1606 56 
L 191 3500 
L 800 3500 
L 1894 763 
L 2988 3500 
L 3597 3500 
L 2059 -325 
z
" transform="scale(0.015625)"/>
       <path id="DejaVuSans-41" d="M 2188 4044 
L 1331 1722 
L 3047 1722 
L 2188 4044 
z
M 1831 4666 
L 2547 4666 
L 4325 0 
L 3669 0 
L 3244 1197 
L 1141 1197 
L 716 0 
L 50 0 
L 1831 4666 
z
" transform="scale(0.015625)"/>
       <path id="DejaVuSans-6b" d="M 581 4863 
L 1159 4863 
L 1159 1991 
L 2875 3500 
L 3609 3500 
L 1753 1863 
L 3688 0 
L 2938 0 
L 1159 1709 
L 1159 0 
L 581 0 
L 581 4863 
z
" transform="scale(0.015625)"/>
      </defs>
      <use xlink:href="#DejaVuSans-4d"/>
      <use xlink:href="#DejaVuSans-79" x="86.279297"/>
      <use xlink:href="#DejaVuSans-41" x="145.458984"/>
      <use xlink:href="#DejaVuSans-74" x="212.117188"/>
      <use xlink:href="#DejaVuSans-74" x="251.326172"/>
      <use xlink:href="#DejaVuSans-61" x="290.535156"/>
      <use xlink:href="#DejaVuSans-63" x="351.814453"/>
      <use xlink:href="#DejaVuSans-6b" x="406.794922"/>
     </g>
    </g>
    <g id="line2d_33">
     <path d="M 267.596094 98.598047 
L 282.596094 98.598047 
L 297.596094 98.598047 
" style="fill: none; stroke-dasharray: 11.1,4.8; stroke-dashoffset: 0; stroke: #0000ff; stroke-width: 3"/>
    </g>
    <g id="text_17">
     <!-- IPM -->
     <g transform="translate(309.596094 103.848047) scale(0.15 -0.15)">
      <defs>
       <path id="DejaVuSans-49" d="M 628 4666 
L 1259 4666 
L 1259 0 
L 628 0 
L 628 4666 
z
" transform="scale(0.015625)"/>
       <path id="DejaVuSans-50" d="M 1259 4147 
L 1259 2394 
L 2053 2394 
Q 2494 2394 2734 2622 
Q 2975 2850 2975 3272 
Q 2975 3691 2734 3919 
Q 2494 4147 2053 4147 
L 1259 4147 
z
M 628 4666 
L 2053 4666 
Q 2838 4666 3239 4311 
Q 3641 3956 3641 3272 
Q 3641 2581 3239 2228 
Q 2838 1875 2053 1875 
L 1259 1875 
L 1259 0 
L 628 0 
L 628 4666 
z
" transform="scale(0.015625)"/>
      </defs>
      <use xlink:href="#DejaVuSans-49"/>
      <use xlink:href="#DejaVuSans-50" x="29.492188"/>
      <use xlink:href="#DejaVuSans-4d" x="89.794922"/>
     </g>
    </g>
    <g id="line2d_34">
     <path d="M 267.596094 120.615234 
L 282.596094 120.615234 
L 297.596094 120.615234 
" style="fill: none; stroke: #00bfbf; stroke-width: 3; stroke-linecap: square"/>
    </g>
    <g id="text_18">
     <!-- MPAF -->
     <g transform="translate(309.596094 125.865234) scale(0.15 -0.15)">
      <use xlink:href="#DejaVuSans-4d"/>
      <use xlink:href="#DejaVuSans-50" x="86.279297"/>
      <use xlink:href="#DejaVuSans-41" x="140.207031"/>
      <use xlink:href="#DejaVuSans-46" x="208.615234"/>
     </g>
    </g>
    <g id="line2d_35">
     <path d="M 267.596094 142.632422 
L 282.596094 142.632422 
L 297.596094 142.632422 
" style="fill: none; stroke: #bf00bf; stroke-width: 3; stroke-linecap: square"/>
    </g>
    <g id="text_19">
     <!-- ALIE -->
     <g transform="translate(309.596094 147.882422) scale(0.15 -0.15)">
      <defs>
       <path id="DejaVuSans-4c" d="M 628 4666 
L 1259 4666 
L 1259 531 
L 3531 531 
L 3531 0 
L 628 0 
L 628 4666 
z
" transform="scale(0.015625)"/>
      </defs>
      <use xlink:href="#DejaVuSans-41"/>
      <use xlink:href="#DejaVuSans-4c" x="68.408203"/>
      <use xlink:href="#DejaVuSans-49" x="124.121094"/>
      <use xlink:href="#DejaVuSans-45" x="153.613281"/>
     </g>
    </g>
    <g id="line2d_36">
     <path d="M 267.596094 164.649609 
L 282.596094 164.649609 
L 297.596094 164.649609 
" style="fill: none; stroke: #008000; stroke-width: 3; stroke-linecap: square"/>
    </g>
    <g id="text_20">
     <!-- No Attack -->
     <g transform="translate(309.596094 169.899609) scale(0.15 -0.15)">
      <defs>
       <path id="DejaVuSans-4e" d="M 628 4666 
L 1478 4666 
L 3547 763 
L 3547 4666 
L 4159 4666 
L 4159 0 
L 3309 0 
L 1241 3903 
L 1241 0 
L 628 0 
L 628 4666 
z
" transform="scale(0.015625)"/>
      </defs>
      <use xlink:href="#DejaVuSans-4e"/>
      <use xlink:href="#DejaVuSans-6f" x="74.804688"/>
      <use xlink:href="#DejaVuSans-20" x="135.986328"/>
      <use xlink:href="#DejaVuSans-41" x="167.773438"/>
      <use xlink:href="#DejaVuSans-74" x="234.431641"/>
      <use xlink:href="#DejaVuSans-74" x="273.640625"/>
      <use xlink:href="#DejaVuSans-61" x="312.849609"/>
      <use xlink:href="#DejaVuSans-63" x="374.128906"/>
      <use xlink:href="#DejaVuSans-6b" x="429.109375"/>
     </g>
    </g>
   </g>
  </g>
 </g>
 <defs>
  <clipPath id="pbab4a561c7">
   <rect x="61.348438" y="12.898828" width="334.8" height="277.2"/>
  </clipPath>
 </defs>
</svg>
