<?xml version="1.0" encoding="utf-8" standalone="no"?>
<!DOCTYPE svg PUBLIC "-//W3C//DTD SVG 1.1//EN"
  "http://www.w3.org/Graphics/SVG/1.1/DTD/svg11.dtd">
<svg xmlns:xlink="http://www.w3.org/1999/xlink" width="845.21125pt" height="558.28125pt" viewBox="0 0 845.21125 558.28125" xmlns="http://www.w3.org/2000/svg" version="1.1">
 <metadata>
  <rdf:RDF xmlns:dc="http://purl.org/dc/elements/1.1/" xmlns:cc="http://creativecommons.org/ns#" xmlns:rdf="http://www.w3.org/1999/02/22-rdf-syntax-ns#">
   <cc:Work>
    <dc:type rdf:resource="http://purl.org/dc/dcmitype/StillImage"/>
    <dc:date>2025-04-06T10:56:39.386028</dc:date>
    <dc:format>image/svg+xml</dc:format>
    <dc:creator>
     <cc:Agent>
      <dc:title>Matplotlib v3.7.5, https://matplotlib.org/</dc:title>
     </cc:Agent>
    </dc:creator>
   </cc:Work>
  </rdf:RDF>
 </metadata>
 <defs>
  <style type="text/css">*{stroke-linejoin: round; stroke-linecap: butt}</style>
 </defs>
 <g id="figure_1">
  <g id="patch_1">
   <path d="M 0 558.28125 
L 845.21125 558.28125 
L 845.21125 0 
L 0 0 
z
" style="fill: #ffffff"/>
  </g>
  <g id="axes_1">
   <g id="patch_2">
    <path d="M 72.23125 508.74 
L 838.01125 508.74 
L 838.01125 7.2 
L 72.23125 7.2 
z
" style="fill: #ffffff"/>
   </g>
   <g id="matplotlib.axis_1">
    <g id="xtick_1">
     <g id="line2d_1">
      <defs>
       <path id="m6bfd0cdeb3" d="M 0 0 
L 0 -3.5 
" style="stroke: #000000; stroke-width: 0.8"/>
      </defs>
      <g>
       <use xlink:href="#m6bfd0cdeb3" x="115.529232" y="508.74" style="stroke: #000000; stroke-width: 0.8"/>
      </g>
     </g>
     <g id="text_1">
      <!-- 0 -->
      <g transform="translate(110.439232 524.3975) scale(0.16 -0.16)">
       <defs>
        <path id="DejaVuSans-30" d="M 2034 4250 
Q 1547 4250 1301 3770 
Q 1056 3291 1056 2328 
Q 1056 1369 1301 889 
Q 1547 409 2034 409 
Q 2525 409 2770 889 
Q 3016 1369 3016 2328 
Q 3016 3291 2770 3770 
Q 2525 4250 2034 4250 
z
M 2034 4750 
Q 2819 4750 3233 4129 
Q 3647 3509 3647 2328 
Q 3647 1150 3233 529 
Q 2819 -91 2034 -91 
Q 1250 -91 836 529 
Q 422 1150 422 2328 
Q 422 3509 836 4129 
Q 1250 4750 2034 4750 
z
" transform="scale(0.015625)"/>
       </defs>
       <use xlink:href="#DejaVuSans-30"/>
      </g>
     </g>
    </g>
    <g id="xtick_2">
     <g id="line2d_2">
      <g>
       <use xlink:href="#m6bfd0cdeb3" x="149.488434" y="508.74" style="stroke: #000000; stroke-width: 0.8"/>
      </g>
     </g>
     <g id="text_2">
      <!-- 1 -->
      <g transform="translate(144.398434 524.3975) scale(0.16 -0.16)">
       <defs>
        <path id="DejaVuSans-31" d="M 794 531 
L 1825 531 
L 1825 4091 
L 703 3866 
L 703 4441 
L 1819 4666 
L 2450 4666 
L 2450 531 
L 3481 531 
L 3481 0 
L 794 0 
L 794 531 
z
" transform="scale(0.015625)"/>
       </defs>
       <use xlink:href="#DejaVuSans-31"/>
      </g>
     </g>
    </g>
    <g id="xtick_3">
     <g id="line2d_3">
      <g>
       <use xlink:href="#m6bfd0cdeb3" x="183.447636" y="508.74" style="stroke: #000000; stroke-width: 0.8"/>
      </g>
     </g>
     <g id="text_3">
      <!-- 2 -->
      <g transform="translate(178.357636 524.3975) scale(0.16 -0.16)">
       <defs>
        <path id="DejaVuSans-32" d="M 1228 531 
L 3431 531 
L 3431 0 
L 469 0 
L 469 531 
Q 828 903 1448 1529 
Q 2069 2156 2228 2338 
Q 2531 2678 2651 2914 
Q 2772 3150 2772 3378 
Q 2772 3750 2511 3984 
Q 2250 4219 1831 4219 
Q 1534 4219 1204 4116 
Q 875 4013 500 3803 
L 500 4441 
Q 881 4594 1212 4672 
Q 1544 4750 1819 4750 
Q 2544 4750 2975 4387 
Q 3406 4025 3406 3419 
Q 3406 3131 3298 2873 
Q 3191 2616 2906 2266 
Q 2828 2175 2409 1742 
Q 1991 1309 1228 531 
z
" transform="scale(0.015625)"/>
       </defs>
       <use xlink:href="#DejaVuSans-32"/>
      </g>
     </g>
    </g>
    <g id="xtick_4">
     <g id="line2d_4">
      <g>
       <use xlink:href="#m6bfd0cdeb3" x="217.406838" y="508.74" style="stroke: #000000; stroke-width: 0.8"/>
      </g>
     </g>
     <g id="text_4">
      <!-- 3 -->
      <g transform="translate(212.316838 524.3975) scale(0.16 -0.16)">
       <defs>
        <path id="DejaVuSans-33" d="M 2597 2516 
Q 3050 2419 3304 2112 
Q 3559 1806 3559 1356 
Q 3559 666 3084 287 
Q 2609 -91 1734 -91 
Q 1441 -91 1130 -33 
Q 819 25 488 141 
L 488 750 
Q 750 597 1062 519 
Q 1375 441 1716 441 
Q 2309 441 2620 675 
Q 2931 909 2931 1356 
Q 2931 1769 2642 2001 
Q 2353 2234 1838 2234 
L 1294 2234 
L 1294 2753 
L 1863 2753 
Q 2328 2753 2575 2939 
Q 2822 3125 2822 3475 
Q 2822 3834 2567 4026 
Q 2313 4219 1838 4219 
Q 1578 4219 1281 4162 
Q 984 4106 628 3988 
L 628 4550 
Q 988 4650 1302 4700 
Q 1616 4750 1894 4750 
Q 2613 4750 3031 4423 
Q 3450 4097 3450 3541 
Q 3450 3153 3228 2886 
Q 3006 2619 2597 2516 
z
" transform="scale(0.015625)"/>
       </defs>
       <use xlink:href="#DejaVuSans-33"/>
      </g>
     </g>
    </g>
    <g id="xtick_5">
     <g id="line2d_5">
      <g>
       <use xlink:href="#m6bfd0cdeb3" x="251.366039" y="508.74" style="stroke: #000000; stroke-width: 0.8"/>
      </g>
     </g>
     <g id="text_5">
      <!-- 4 -->
      <g transform="translate(246.276039 524.3975) scale(0.16 -0.16)">
       <defs>
        <path id="DejaVuSans-34" d="M 2419 4116 
L 825 1625 
L 2419 1625 
L 2419 4116 
z
M 2253 4666 
L 3047 4666 
L 3047 1625 
L 3713 1625 
L 3713 1100 
L 3047 1100 
L 3047 0 
L 2419 0 
L 2419 1100 
L 313 1100 
L 313 1709 
L 2253 4666 
z
" transform="scale(0.015625)"/>
       </defs>
       <use xlink:href="#DejaVuSans-34"/>
      </g>
     </g>
    </g>
    <g id="xtick_6">
     <g id="line2d_6">
      <g>
       <use xlink:href="#m6bfd0cdeb3" x="285.325241" y="508.74" style="stroke: #000000; stroke-width: 0.8"/>
      </g>
     </g>
     <g id="text_6">
      <!-- 5 -->
      <g transform="translate(280.235241 524.3975) scale(0.16 -0.16)">
       <defs>
        <path id="DejaVuSans-35" d="M 691 4666 
L 3169 4666 
L 3169 4134 
L 1269 4134 
L 1269 2991 
Q 1406 3038 1543 3061 
Q 1681 3084 1819 3084 
Q 2600 3084 3056 2656 
Q 3513 2228 3513 1497 
Q 3513 744 3044 326 
Q 2575 -91 1722 -91 
Q 1428 -91 1123 -41 
Q 819 9 494 109 
L 494 744 
Q 775 591 1075 516 
Q 1375 441 1709 441 
Q 2250 441 2565 725 
Q 2881 1009 2881 1497 
Q 2881 1984 2565 2268 
Q 2250 2553 1709 2553 
Q 1456 2553 1204 2497 
Q 953 2441 691 2322 
L 691 4666 
z
" transform="scale(0.015625)"/>
       </defs>
       <use xlink:href="#DejaVuSans-35"/>
      </g>
     </g>
    </g>
    <g id="xtick_7">
     <g id="line2d_7">
      <g>
       <use xlink:href="#m6bfd0cdeb3" x="319.284443" y="508.74" style="stroke: #000000; stroke-width: 0.8"/>
      </g>
     </g>
     <g id="text_7">
      <!-- 6 -->
      <g transform="translate(314.194443 524.3975) scale(0.16 -0.16)">
       <defs>
        <path id="DejaVuSans-36" d="M 2113 2584 
Q 1688 2584 1439 2293 
Q 1191 2003 1191 1497 
Q 1191 994 1439 701 
Q 1688 409 2113 409 
Q 2538 409 2786 701 
Q 3034 994 3034 1497 
Q 3034 2003 2786 2293 
Q 2538 2584 2113 2584 
z
M 3366 4563 
L 3366 3988 
Q 3128 4100 2886 4159 
Q 2644 4219 2406 4219 
Q 1781 4219 1451 3797 
Q 1122 3375 1075 2522 
Q 1259 2794 1537 2939 
Q 1816 3084 2150 3084 
Q 2853 3084 3261 2657 
Q 3669 2231 3669 1497 
Q 3669 778 3244 343 
Q 2819 -91 2113 -91 
Q 1303 -91 875 529 
Q 447 1150 447 2328 
Q 447 3434 972 4092 
Q 1497 4750 2381 4750 
Q 2619 4750 2861 4703 
Q 3103 4656 3366 4563 
z
" transform="scale(0.015625)"/>
       </defs>
       <use xlink:href="#DejaVuSans-36"/>
      </g>
     </g>
    </g>
    <g id="xtick_8">
     <g id="line2d_8">
      <g>
       <use xlink:href="#m6bfd0cdeb3" x="353.243645" y="508.74" style="stroke: #000000; stroke-width: 0.8"/>
      </g>
     </g>
     <g id="text_8">
      <!-- 7 -->
      <g transform="translate(348.153645 524.3975) scale(0.16 -0.16)">
       <defs>
        <path id="DejaVuSans-37" d="M 525 4666 
L 3525 4666 
L 3525 4397 
L 1831 0 
L 1172 0 
L 2766 4134 
L 525 4134 
L 525 4666 
z
" transform="scale(0.015625)"/>
       </defs>
       <use xlink:href="#DejaVuSans-37"/>
      </g>
     </g>
    </g>
    <g id="xtick_9">
     <g id="line2d_9">
      <g>
       <use xlink:href="#m6bfd0cdeb3" x="387.202846" y="508.74" style="stroke: #000000; stroke-width: 0.8"/>
      </g>
     </g>
     <g id="text_9">
      <!-- 8 -->
      <g transform="translate(382.112846 524.3975) scale(0.16 -0.16)">
       <defs>
        <path id="DejaVuSans-38" d="M 2034 2216 
Q 1584 2216 1326 1975 
Q 1069 1734 1069 1313 
Q 1069 891 1326 650 
Q 1584 409 2034 409 
Q 2484 409 2743 651 
Q 3003 894 3003 1313 
Q 3003 1734 2745 1975 
Q 2488 2216 2034 2216 
z
M 1403 2484 
Q 997 2584 770 2862 
Q 544 3141 544 3541 
Q 544 4100 942 4425 
Q 1341 4750 2034 4750 
Q 2731 4750 3128 4425 
Q 3525 4100 3525 3541 
Q 3525 3141 3298 2862 
Q 3072 2584 2669 2484 
Q 3125 2378 3379 2068 
Q 3634 1759 3634 1313 
Q 3634 634 3220 271 
Q 2806 -91 2034 -91 
Q 1263 -91 848 271 
Q 434 634 434 1313 
Q 434 1759 690 2068 
Q 947 2378 1403 2484 
z
M 1172 3481 
Q 1172 3119 1398 2916 
Q 1625 2713 2034 2713 
Q 2441 2713 2670 2916 
Q 2900 3119 2900 3481 
Q 2900 3844 2670 4047 
Q 2441 4250 2034 4250 
Q 1625 4250 1398 4047 
Q 1172 3844 1172 3481 
z
" transform="scale(0.015625)"/>
       </defs>
       <use xlink:href="#DejaVuSans-38"/>
      </g>
     </g>
    </g>
    <g id="xtick_10">
     <g id="line2d_10">
      <g>
       <use xlink:href="#m6bfd0cdeb3" x="421.162048" y="508.74" style="stroke: #000000; stroke-width: 0.8"/>
      </g>
     </g>
     <g id="text_10">
      <!-- 9 -->
      <g transform="translate(416.072048 524.3975) scale(0.16 -0.16)">
       <defs>
        <path id="DejaVuSans-39" d="M 703 97 
L 703 672 
Q 941 559 1184 500 
Q 1428 441 1663 441 
Q 2288 441 2617 861 
Q 2947 1281 2994 2138 
Q 2813 1869 2534 1725 
Q 2256 1581 1919 1581 
Q 1219 1581 811 2004 
Q 403 2428 403 3163 
Q 403 3881 828 4315 
Q 1253 4750 1959 4750 
Q 2769 4750 3195 4129 
Q 3622 3509 3622 2328 
Q 3622 1225 3098 567 
Q 2575 -91 1691 -91 
Q 1453 -91 1209 -44 
Q 966 3 703 97 
z
M 1959 2075 
Q 2384 2075 2632 2365 
Q 2881 2656 2881 3163 
Q 2881 3666 2632 3958 
Q 2384 4250 1959 4250 
Q 1534 4250 1286 3958 
Q 1038 3666 1038 3163 
Q 1038 2656 1286 2365 
Q 1534 2075 1959 2075 
z
" transform="scale(0.015625)"/>
       </defs>
       <use xlink:href="#DejaVuSans-39"/>
      </g>
     </g>
    </g>
    <g id="xtick_11">
     <g id="line2d_11">
      <g>
       <use xlink:href="#m6bfd0cdeb3" x="455.12125" y="508.74" style="stroke: #000000; stroke-width: 0.8"/>
      </g>
     </g>
     <g id="text_11">
      <!-- 10 -->
      <g transform="translate(444.94125 524.3975) scale(0.16 -0.16)">
       <use xlink:href="#DejaVuSans-31"/>
       <use xlink:href="#DejaVuSans-30" x="63.623047"/>
      </g>
     </g>
    </g>
    <g id="xtick_12">
     <g id="line2d_12">
      <g>
       <use xlink:href="#m6bfd0cdeb3" x="489.080452" y="508.74" style="stroke: #000000; stroke-width: 0.8"/>
      </g>
     </g>
     <g id="text_12">
      <!-- 11 -->
      <g transform="translate(478.900452 524.3975) scale(0.16 -0.16)">
       <use xlink:href="#DejaVuSans-31"/>
       <use xlink:href="#DejaVuSans-31" x="63.623047"/>
      </g>
     </g>
    </g>
    <g id="xtick_13">
     <g id="line2d_13">
      <g>
       <use xlink:href="#m6bfd0cdeb3" x="523.039654" y="508.74" style="stroke: #000000; stroke-width: 0.8"/>
      </g>
     </g>
     <g id="text_13">
      <!-- 12 -->
      <g transform="translate(512.859654 524.3975) scale(0.16 -0.16)">
       <use xlink:href="#DejaVuSans-31"/>
       <use xlink:href="#DejaVuSans-32" x="63.623047"/>
      </g>
     </g>
    </g>
    <g id="xtick_14">
     <g id="line2d_14">
      <g>
       <use xlink:href="#m6bfd0cdeb3" x="556.998855" y="508.74" style="stroke: #000000; stroke-width: 0.8"/>
      </g>
     </g>
     <g id="text_14">
      <!-- 13 -->
      <g transform="translate(546.818855 524.3975) scale(0.16 -0.16)">
       <use xlink:href="#DejaVuSans-31"/>
       <use xlink:href="#DejaVuSans-33" x="63.623047"/>
      </g>
     </g>
    </g>
    <g id="xtick_15">
     <g id="line2d_15">
      <g>
       <use xlink:href="#m6bfd0cdeb3" x="590.958057" y="508.74" style="stroke: #000000; stroke-width: 0.8"/>
      </g>
     </g>
     <g id="text_15">
      <!-- 14 -->
      <g transform="translate(580.778057 524.3975) scale(0.16 -0.16)">
       <use xlink:href="#DejaVuSans-31"/>
       <use xlink:href="#DejaVuSans-34" x="63.623047"/>
      </g>
     </g>
    </g>
    <g id="xtick_16">
     <g id="line2d_16">
      <g>
       <use xlink:href="#m6bfd0cdeb3" x="624.917259" y="508.74" style="stroke: #000000; stroke-width: 0.8"/>
      </g>
     </g>
     <g id="text_16">
      <!-- 15 -->
      <g transform="translate(614.737259 524.3975) scale(0.16 -0.16)">
       <use xlink:href="#DejaVuSans-31"/>
       <use xlink:href="#DejaVuSans-35" x="63.623047"/>
      </g>
     </g>
    </g>
    <g id="xtick_17">
     <g id="line2d_17">
      <g>
       <use xlink:href="#m6bfd0cdeb3" x="658.876461" y="508.74" style="stroke: #000000; stroke-width: 0.8"/>
      </g>
     </g>
     <g id="text_17">
      <!-- 16 -->
      <g transform="translate(648.696461 524.3975) scale(0.16 -0.16)">
       <use xlink:href="#DejaVuSans-31"/>
       <use xlink:href="#DejaVuSans-36" x="63.623047"/>
      </g>
     </g>
    </g>
    <g id="xtick_18">
     <g id="line2d_18">
      <g>
       <use xlink:href="#m6bfd0cdeb3" x="692.835662" y="508.74" style="stroke: #000000; stroke-width: 0.8"/>
      </g>
     </g>
     <g id="text_18">
      <!-- 17 -->
      <g transform="translate(682.655662 524.3975) scale(0.16 -0.16)">
       <use xlink:href="#DejaVuSans-31"/>
       <use xlink:href="#DejaVuSans-37" x="63.623047"/>
      </g>
     </g>
    </g>
    <g id="xtick_19">
     <g id="line2d_19">
      <g>
       <use xlink:href="#m6bfd0cdeb3" x="726.794864" y="508.74" style="stroke: #000000; stroke-width: 0.8"/>
      </g>
     </g>
     <g id="text_19">
      <!-- 18 -->
      <g transform="translate(716.614864 524.3975) scale(0.16 -0.16)">
       <use xlink:href="#DejaVuSans-31"/>
       <use xlink:href="#DejaVuSans-38" x="63.623047"/>
      </g>
     </g>
    </g>
    <g id="xtick_20">
     <g id="line2d_20">
      <g>
       <use xlink:href="#m6bfd0cdeb3" x="760.754066" y="508.74" style="stroke: #000000; stroke-width: 0.8"/>
      </g>
     </g>
     <g id="text_20">
      <!-- 19 -->
      <g transform="translate(750.574066 524.3975) scale(0.16 -0.16)">
       <use xlink:href="#DejaVuSans-31"/>
       <use xlink:href="#DejaVuSans-39" x="63.623047"/>
      </g>
     </g>
    </g>
    <g id="text_21">
     <!-- Client ID -->
     <g transform="translate(412.343125 546.921875) scale(0.2 -0.2)">
      <defs>
       <path id="DejaVuSans-43" d="M 4122 4306 
L 4122 3641 
Q 3803 3938 3442 4084 
Q 3081 4231 2675 4231 
Q 1875 4231 1450 3742 
Q 1025 3253 1025 2328 
Q 1025 1406 1450 917 
Q 1875 428 2675 428 
Q 3081 428 3442 575 
Q 3803 722 4122 1019 
L 4122 359 
Q 3791 134 3420 21 
Q 3050 -91 2638 -91 
Q 1578 -91 968 557 
Q 359 1206 359 2328 
Q 359 3453 968 4101 
Q 1578 4750 2638 4750 
Q 3056 4750 3426 4639 
Q 3797 4528 4122 4306 
z
" transform="scale(0.015625)"/>
       <path id="DejaVuSans-6c" d="M 603 4863 
L 1178 4863 
L 1178 0 
L 603 0 
L 603 4863 
z
" transform="scale(0.015625)"/>
       <path id="DejaVuSans-69" d="M 603 3500 
L 1178 3500 
L 1178 0 
L 603 0 
L 603 3500 
z
M 603 4863 
L 1178 4863 
L 1178 4134 
L 603 4134 
L 603 4863 
z
" transform="scale(0.015625)"/>
       <path id="DejaVuSans-65" d="M 3597 1894 
L 3597 1613 
L 953 1613 
Q 991 1019 1311 708 
Q 1631 397 2203 397 
Q 2534 397 2845 478 
Q 3156 559 3463 722 
L 3463 178 
Q 3153 47 2828 -22 
Q 2503 -91 2169 -91 
Q 1331 -91 842 396 
Q 353 884 353 1716 
Q 353 2575 817 3079 
Q 1281 3584 2069 3584 
Q 2775 3584 3186 3129 
Q 3597 2675 3597 1894 
z
M 3022 2063 
Q 3016 2534 2758 2815 
Q 2500 3097 2075 3097 
Q 1594 3097 1305 2825 
Q 1016 2553 972 2059 
L 3022 2063 
z
" transform="scale(0.015625)"/>
       <path id="DejaVuSans-6e" d="M 3513 2113 
L 3513 0 
L 2938 0 
L 2938 2094 
Q 2938 2591 2744 2837 
Q 2550 3084 2163 3084 
Q 1697 3084 1428 2787 
Q 1159 2491 1159 1978 
L 1159 0 
L 581 0 
L 581 3500 
L 1159 3500 
L 1159 2956 
Q 1366 3272 1645 3428 
Q 1925 3584 2291 3584 
Q 2894 3584 3203 3211 
Q 3513 2838 3513 2113 
z
" transform="scale(0.015625)"/>
       <path id="DejaVuSans-74" d="M 1172 4494 
L 1172 3500 
L 2356 3500 
L 2356 3053 
L 1172 3053 
L 1172 1153 
Q 1172 725 1289 603 
Q 1406 481 1766 481 
L 2356 481 
L 2356 0 
L 1766 0 
Q 1100 0 847 248 
Q 594 497 594 1153 
L 594 3053 
L 172 3053 
L 172 3500 
L 594 3500 
L 594 4494 
L 1172 4494 
z
" transform="scale(0.015625)"/>
       <path id="DejaVuSans-20" transform="scale(0.015625)"/>
       <path id="DejaVuSans-49" d="M 628 4666 
L 1259 4666 
L 1259 0 
L 628 0 
L 628 4666 
z
" transform="scale(0.015625)"/>
       <path id="DejaVuSans-44" d="M 1259 4147 
L 1259 519 
L 2022 519 
Q 2988 519 3436 956 
Q 3884 1394 3884 2338 
Q 3884 3275 3436 3711 
Q 2988 4147 2022 4147 
L 1259 4147 
z
M 628 4666 
L 1925 4666 
Q 3281 4666 3915 4102 
Q 4550 3538 4550 2338 
Q 4550 1131 3912 565 
Q 3275 0 1925 0 
L 628 0 
L 628 4666 
z
" transform="scale(0.015625)"/>
      </defs>
      <use xlink:href="#DejaVuSans-43"/>
      <use xlink:href="#DejaVuSans-6c" x="69.824219"/>
      <use xlink:href="#DejaVuSans-69" x="97.607422"/>
      <use xlink:href="#DejaVuSans-65" x="125.390625"/>
      <use xlink:href="#DejaVuSans-6e" x="186.914062"/>
      <use xlink:href="#DejaVuSans-74" x="250.292969"/>
      <use xlink:href="#DejaVuSans-20" x="289.501953"/>
      <use xlink:href="#DejaVuSans-49" x="321.289062"/>
      <use xlink:href="#DejaVuSans-44" x="350.78125"/>
     </g>
    </g>
   </g>
   <g id="matplotlib.axis_2">
    <g id="ytick_1">
     <g id="line2d_21">
      <path d="M 72.23125 508.74 
L 838.01125 508.74 
" clip-path="url(#p2591c880e8)" style="fill: none; stroke-dasharray: 2.96,1.28; stroke-dashoffset: 0; stroke: #b0b0b0; stroke-width: 0.8"/>
     </g>
     <g id="line2d_22">
      <defs>
       <path id="m4291af8f2c" d="M 0 0 
L 3.5 0 
" style="stroke: #000000; stroke-width: 0.8"/>
      </defs>
      <g>
       <use xlink:href="#m4291af8f2c" x="72.23125" y="508.74" style="stroke: #000000; stroke-width: 0.8"/>
      </g>
     </g>
     <g id="text_22">
      <!-- 0 -->
      <g transform="translate(59.1875 514.438828) scale(0.15 -0.15)">
       <use xlink:href="#DejaVuSans-30"/>
      </g>
     </g>
    </g>
    <g id="ytick_2">
     <g id="line2d_23">
      <path d="M 72.23125 449.181753 
L 838.01125 449.181753 
" clip-path="url(#p2591c880e8)" style="fill: none; stroke-dasharray: 2.96,1.28; stroke-dashoffset: 0; stroke: #b0b0b0; stroke-width: 0.8"/>
     </g>
     <g id="line2d_24">
      <g>
       <use xlink:href="#m4291af8f2c" x="72.23125" y="449.181753" style="stroke: #000000; stroke-width: 0.8"/>
      </g>
     </g>
     <g id="text_23">
      <!-- 500 -->
      <g transform="translate(40.1 454.880581) scale(0.15 -0.15)">
       <use xlink:href="#DejaVuSans-35"/>
       <use xlink:href="#DejaVuSans-30" x="63.623047"/>
       <use xlink:href="#DejaVuSans-30" x="127.246094"/>
      </g>
     </g>
    </g>
    <g id="ytick_3">
     <g id="line2d_25">
      <path d="M 72.23125 389.623506 
L 838.01125 389.623506 
" clip-path="url(#p2591c880e8)" style="fill: none; stroke-dasharray: 2.96,1.28; stroke-dashoffset: 0; stroke: #b0b0b0; stroke-width: 0.8"/>
     </g>
     <g id="line2d_26">
      <g>
       <use xlink:href="#m4291af8f2c" x="72.23125" y="389.623506" style="stroke: #000000; stroke-width: 0.8"/>
      </g>
     </g>
     <g id="text_24">
      <!-- 1000 -->
      <g transform="translate(30.55625 395.322334) scale(0.15 -0.15)">
       <use xlink:href="#DejaVuSans-31"/>
       <use xlink:href="#DejaVuSans-30" x="63.623047"/>
       <use xlink:href="#DejaVuSans-30" x="127.246094"/>
       <use xlink:href="#DejaVuSans-30" x="190.869141"/>
      </g>
     </g>
    </g>
    <g id="ytick_4">
     <g id="line2d_27">
      <path d="M 72.23125 330.065258 
L 838.01125 330.065258 
" clip-path="url(#p2591c880e8)" style="fill: none; stroke-dasharray: 2.96,1.28; stroke-dashoffset: 0; stroke: #b0b0b0; stroke-width: 0.8"/>
     </g>
     <g id="line2d_28">
      <g>
       <use xlink:href="#m4291af8f2c" x="72.23125" y="330.065258" style="stroke: #000000; stroke-width: 0.8"/>
      </g>
     </g>
     <g id="text_25">
      <!-- 1500 -->
      <g transform="translate(30.55625 335.764086) scale(0.15 -0.15)">
       <use xlink:href="#DejaVuSans-31"/>
       <use xlink:href="#DejaVuSans-35" x="63.623047"/>
       <use xlink:href="#DejaVuSans-30" x="127.246094"/>
       <use xlink:href="#DejaVuSans-30" x="190.869141"/>
      </g>
     </g>
    </g>
    <g id="ytick_5">
     <g id="line2d_29">
      <path d="M 72.23125 270.507011 
L 838.01125 270.507011 
" clip-path="url(#p2591c880e8)" style="fill: none; stroke-dasharray: 2.96,1.28; stroke-dashoffset: 0; stroke: #b0b0b0; stroke-width: 0.8"/>
     </g>
     <g id="line2d_30">
      <g>
       <use xlink:href="#m4291af8f2c" x="72.23125" y="270.507011" style="stroke: #000000; stroke-width: 0.8"/>
      </g>
     </g>
     <g id="text_26">
      <!-- 2000 -->
      <g transform="translate(30.55625 276.205839) scale(0.15 -0.15)">
       <use xlink:href="#DejaVuSans-32"/>
       <use xlink:href="#DejaVuSans-30" x="63.623047"/>
       <use xlink:href="#DejaVuSans-30" x="127.246094"/>
       <use xlink:href="#DejaVuSans-30" x="190.869141"/>
      </g>
     </g>
    </g>
    <g id="ytick_6">
     <g id="line2d_31">
      <path d="M 72.23125 210.948764 
L 838.01125 210.948764 
" clip-path="url(#p2591c880e8)" style="fill: none; stroke-dasharray: 2.96,1.28; stroke-dashoffset: 0; stroke: #b0b0b0; stroke-width: 0.8"/>
     </g>
     <g id="line2d_32">
      <g>
       <use xlink:href="#m4291af8f2c" x="72.23125" y="210.948764" style="stroke: #000000; stroke-width: 0.8"/>
      </g>
     </g>
     <g id="text_27">
      <!-- 2500 -->
      <g transform="translate(30.55625 216.647592) scale(0.15 -0.15)">
       <use xlink:href="#DejaVuSans-32"/>
       <use xlink:href="#DejaVuSans-35" x="63.623047"/>
       <use xlink:href="#DejaVuSans-30" x="127.246094"/>
       <use xlink:href="#DejaVuSans-30" x="190.869141"/>
      </g>
     </g>
    </g>
    <g id="ytick_7">
     <g id="line2d_33">
      <path d="M 72.23125 151.390517 
L 838.01125 151.390517 
" clip-path="url(#p2591c880e8)" style="fill: none; stroke-dasharray: 2.96,1.28; stroke-dashoffset: 0; stroke: #b0b0b0; stroke-width: 0.8"/>
     </g>
     <g id="line2d_34">
      <g>
       <use xlink:href="#m4291af8f2c" x="72.23125" y="151.390517" style="stroke: #000000; stroke-width: 0.8"/>
      </g>
     </g>
     <g id="text_28">
      <!-- 3000 -->
      <g transform="translate(30.55625 157.089345) scale(0.15 -0.15)">
       <use xlink:href="#DejaVuSans-33"/>
       <use xlink:href="#DejaVuSans-30" x="63.623047"/>
       <use xlink:href="#DejaVuSans-30" x="127.246094"/>
       <use xlink:href="#DejaVuSans-30" x="190.869141"/>
      </g>
     </g>
    </g>
    <g id="ytick_8">
     <g id="line2d_35">
      <path d="M 72.23125 91.832269 
L 838.01125 91.832269 
" clip-path="url(#p2591c880e8)" style="fill: none; stroke-dasharray: 2.96,1.28; stroke-dashoffset: 0; stroke: #b0b0b0; stroke-width: 0.8"/>
     </g>
     <g id="line2d_36">
      <g>
       <use xlink:href="#m4291af8f2c" x="72.23125" y="91.832269" style="stroke: #000000; stroke-width: 0.8"/>
      </g>
     </g>
     <g id="text_29">
      <!-- 3500 -->
      <g transform="translate(30.55625 97.531097) scale(0.15 -0.15)">
       <use xlink:href="#DejaVuSans-33"/>
       <use xlink:href="#DejaVuSans-35" x="63.623047"/>
       <use xlink:href="#DejaVuSans-30" x="127.246094"/>
       <use xlink:href="#DejaVuSans-30" x="190.869141"/>
      </g>
     </g>
    </g>
    <g id="ytick_9">
     <g id="line2d_37">
      <path d="M 72.23125 32.274022 
L 838.01125 32.274022 
" clip-path="url(#p2591c880e8)" style="fill: none; stroke-dasharray: 2.96,1.28; stroke-dashoffset: 0; stroke: #b0b0b0; stroke-width: 0.8"/>
     </g>
     <g id="line2d_38">
      <g>
       <use xlink:href="#m4291af8f2c" x="72.23125" y="32.274022" style="stroke: #000000; stroke-width: 0.8"/>
      </g>
     </g>
     <g id="text_30">
      <!-- 4000 -->
      <g transform="translate(30.55625 37.97285) scale(0.15 -0.15)">
       <use xlink:href="#DejaVuSans-34"/>
       <use xlink:href="#DejaVuSans-30" x="63.623047"/>
       <use xlink:href="#DejaVuSans-30" x="127.246094"/>
       <use xlink:href="#DejaVuSans-30" x="190.869141"/>
      </g>
     </g>
    </g>
    <g id="text_31">
     <!-- Number of Training Samples -->
     <g transform="translate(22.396875 399.473125) rotate(-90) scale(0.2 -0.2)">
      <defs>
       <path id="DejaVuSans-4e" d="M 628 4666 
L 1478 4666 
L 3547 763 
L 3547 4666 
L 4159 4666 
L 4159 0 
L 3309 0 
L 1241 3903 
L 1241 0 
L 628 0 
L 628 4666 
z
" transform="scale(0.015625)"/>
       <path id="DejaVuSans-75" d="M 544 1381 
L 544 3500 
L 1119 3500 
L 1119 1403 
Q 1119 906 1312 657 
Q 1506 409 1894 409 
Q 2359 409 2629 706 
Q 2900 1003 2900 1516 
L 2900 3500 
L 3475 3500 
L 3475 0 
L 2900 0 
L 2900 538 
Q 2691 219 2414 64 
Q 2138 -91 1772 -91 
Q 1169 -91 856 284 
Q 544 659 544 1381 
z
M 1991 3584 
L 1991 3584 
z
" transform="scale(0.015625)"/>
       <path id="DejaVuSans-6d" d="M 3328 2828 
Q 3544 3216 3844 3400 
Q 4144 3584 4550 3584 
Q 5097 3584 5394 3201 
Q 5691 2819 5691 2113 
L 5691 0 
L 5113 0 
L 5113 2094 
Q 5113 2597 4934 2840 
Q 4756 3084 4391 3084 
Q 3944 3084 3684 2787 
Q 3425 2491 3425 1978 
L 3425 0 
L 2847 0 
L 2847 2094 
Q 2847 2600 2669 2842 
Q 2491 3084 2119 3084 
Q 1678 3084 1418 2786 
Q 1159 2488 1159 1978 
L 1159 0 
L 581 0 
L 581 3500 
L 1159 3500 
L 1159 2956 
Q 1356 3278 1631 3431 
Q 1906 3584 2284 3584 
Q 2666 3584 2933 3390 
Q 3200 3197 3328 2828 
z
" transform="scale(0.015625)"/>
       <path id="DejaVuSans-62" d="M 3116 1747 
Q 3116 2381 2855 2742 
Q 2594 3103 2138 3103 
Q 1681 3103 1420 2742 
Q 1159 2381 1159 1747 
Q 1159 1113 1420 752 
Q 1681 391 2138 391 
Q 2594 391 2855 752 
Q 3116 1113 3116 1747 
z
M 1159 2969 
Q 1341 3281 1617 3432 
Q 1894 3584 2278 3584 
Q 2916 3584 3314 3078 
Q 3713 2572 3713 1747 
Q 3713 922 3314 415 
Q 2916 -91 2278 -91 
Q 1894 -91 1617 61 
Q 1341 213 1159 525 
L 1159 0 
L 581 0 
L 581 4863 
L 1159 4863 
L 1159 2969 
z
" transform="scale(0.015625)"/>
       <path id="DejaVuSans-72" d="M 2631 2963 
Q 2534 3019 2420 3045 
Q 2306 3072 2169 3072 
Q 1681 3072 1420 2755 
Q 1159 2438 1159 1844 
L 1159 0 
L 581 0 
L 581 3500 
L 1159 3500 
L 1159 2956 
Q 1341 3275 1631 3429 
Q 1922 3584 2338 3584 
Q 2397 3584 2469 3576 
Q 2541 3569 2628 3553 
L 2631 2963 
z
" transform="scale(0.015625)"/>
       <path id="DejaVuSans-6f" d="M 1959 3097 
Q 1497 3097 1228 2736 
Q 959 2375 959 1747 
Q 959 1119 1226 758 
Q 1494 397 1959 397 
Q 2419 397 2687 759 
Q 2956 1122 2956 1747 
Q 2956 2369 2687 2733 
Q 2419 3097 1959 3097 
z
M 1959 3584 
Q 2709 3584 3137 3096 
Q 3566 2609 3566 1747 
Q 3566 888 3137 398 
Q 2709 -91 1959 -91 
Q 1206 -91 779 398 
Q 353 888 353 1747 
Q 353 2609 779 3096 
Q 1206 3584 1959 3584 
z
" transform="scale(0.015625)"/>
       <path id="DejaVuSans-66" d="M 2375 4863 
L 2375 4384 
L 1825 4384 
Q 1516 4384 1395 4259 
Q 1275 4134 1275 3809 
L 1275 3500 
L 2222 3500 
L 2222 3053 
L 1275 3053 
L 1275 0 
L 697 0 
L 697 3053 
L 147 3053 
L 147 3500 
L 697 3500 
L 697 3744 
Q 697 4328 969 4595 
Q 1241 4863 1831 4863 
L 2375 4863 
z
" transform="scale(0.015625)"/>
       <path id="DejaVuSans-54" d="M -19 4666 
L 3928 4666 
L 3928 4134 
L 2272 4134 
L 2272 0 
L 1638 0 
L 1638 4134 
L -19 4134 
L -19 4666 
z
" transform="scale(0.015625)"/>
       <path id="DejaVuSans-61" d="M 2194 1759 
Q 1497 1759 1228 1600 
Q 959 1441 959 1056 
Q 959 750 1161 570 
Q 1363 391 1709 391 
Q 2188 391 2477 730 
Q 2766 1069 2766 1631 
L 2766 1759 
L 2194 1759 
z
M 3341 1997 
L 3341 0 
L 2766 0 
L 2766 531 
Q 2569 213 2275 61 
Q 1981 -91 1556 -91 
Q 1019 -91 701 211 
Q 384 513 384 1019 
Q 384 1609 779 1909 
Q 1175 2209 1959 2209 
L 2766 2209 
L 2766 2266 
Q 2766 2663 2505 2880 
Q 2244 3097 1772 3097 
Q 1472 3097 1187 3025 
Q 903 2953 641 2809 
L 641 3341 
Q 956 3463 1253 3523 
Q 1550 3584 1831 3584 
Q 2591 3584 2966 3190 
Q 3341 2797 3341 1997 
z
" transform="scale(0.015625)"/>
       <path id="DejaVuSans-67" d="M 2906 1791 
Q 2906 2416 2648 2759 
Q 2391 3103 1925 3103 
Q 1463 3103 1205 2759 
Q 947 2416 947 1791 
Q 947 1169 1205 825 
Q 1463 481 1925 481 
Q 2391 481 2648 825 
Q 2906 1169 2906 1791 
z
M 3481 434 
Q 3481 -459 3084 -895 
Q 2688 -1331 1869 -1331 
Q 1566 -1331 1297 -1286 
Q 1028 -1241 775 -1147 
L 775 -588 
Q 1028 -725 1275 -790 
Q 1522 -856 1778 -856 
Q 2344 -856 2625 -561 
Q 2906 -266 2906 331 
L 2906 616 
Q 2728 306 2450 153 
Q 2172 0 1784 0 
Q 1141 0 747 490 
Q 353 981 353 1791 
Q 353 2603 747 3093 
Q 1141 3584 1784 3584 
Q 2172 3584 2450 3431 
Q 2728 3278 2906 2969 
L 2906 3500 
L 3481 3500 
L 3481 434 
z
" transform="scale(0.015625)"/>
       <path id="DejaVuSans-53" d="M 3425 4513 
L 3425 3897 
Q 3066 4069 2747 4153 
Q 2428 4238 2131 4238 
Q 1616 4238 1336 4038 
Q 1056 3838 1056 3469 
Q 1056 3159 1242 3001 
Q 1428 2844 1947 2747 
L 2328 2669 
Q 3034 2534 3370 2195 
Q 3706 1856 3706 1288 
Q 3706 609 3251 259 
Q 2797 -91 1919 -91 
Q 1588 -91 1214 -16 
Q 841 59 441 206 
L 441 856 
Q 825 641 1194 531 
Q 1563 422 1919 422 
Q 2459 422 2753 634 
Q 3047 847 3047 1241 
Q 3047 1584 2836 1778 
Q 2625 1972 2144 2069 
L 1759 2144 
Q 1053 2284 737 2584 
Q 422 2884 422 3419 
Q 422 4038 858 4394 
Q 1294 4750 2059 4750 
Q 2388 4750 2728 4690 
Q 3069 4631 3425 4513 
z
" transform="scale(0.015625)"/>
       <path id="DejaVuSans-70" d="M 1159 525 
L 1159 -1331 
L 581 -1331 
L 581 3500 
L 1159 3500 
L 1159 2969 
Q 1341 3281 1617 3432 
Q 1894 3584 2278 3584 
Q 2916 3584 3314 3078 
Q 3713 2572 3713 1747 
Q 3713 922 3314 415 
Q 2916 -91 2278 -91 
Q 1894 -91 1617 61 
Q 1341 213 1159 525 
z
M 3116 1747 
Q 3116 2381 2855 2742 
Q 2594 3103 2138 3103 
Q 1681 3103 1420 2742 
Q 1159 2381 1159 1747 
Q 1159 1113 1420 752 
Q 1681 391 2138 391 
Q 2594 391 2855 752 
Q 3116 1113 3116 1747 
z
" transform="scale(0.015625)"/>
       <path id="DejaVuSans-73" d="M 2834 3397 
L 2834 2853 
Q 2591 2978 2328 3040 
Q 2066 3103 1784 3103 
Q 1356 3103 1142 2972 
Q 928 2841 928 2578 
Q 928 2378 1081 2264 
Q 1234 2150 1697 2047 
L 1894 2003 
Q 2506 1872 2764 1633 
Q 3022 1394 3022 966 
Q 3022 478 2636 193 
Q 2250 -91 1575 -91 
Q 1294 -91 989 -36 
Q 684 19 347 128 
L 347 722 
Q 666 556 975 473 
Q 1284 391 1588 391 
Q 1994 391 2212 530 
Q 2431 669 2431 922 
Q 2431 1156 2273 1281 
Q 2116 1406 1581 1522 
L 1381 1569 
Q 847 1681 609 1914 
Q 372 2147 372 2553 
Q 372 3047 722 3315 
Q 1072 3584 1716 3584 
Q 2034 3584 2315 3537 
Q 2597 3491 2834 3397 
z
" transform="scale(0.015625)"/>
      </defs>
      <use xlink:href="#DejaVuSans-4e"/>
      <use xlink:href="#DejaVuSans-75" x="74.804688"/>
      <use xlink:href="#DejaVuSans-6d" x="138.183594"/>
      <use xlink:href="#DejaVuSans-62" x="235.595703"/>
      <use xlink:href="#DejaVuSans-65" x="299.072266"/>
      <use xlink:href="#DejaVuSans-72" x="360.595703"/>
      <use xlink:href="#DejaVuSans-20" x="401.708984"/>
      <use xlink:href="#DejaVuSans-6f" x="433.496094"/>
      <use xlink:href="#DejaVuSans-66" x="494.677734"/>
      <use xlink:href="#DejaVuSans-20" x="529.882812"/>
      <use xlink:href="#DejaVuSans-54" x="561.669922"/>
      <use xlink:href="#DejaVuSans-72" x="608.003906"/>
      <use xlink:href="#DejaVuSans-61" x="649.117188"/>
      <use xlink:href="#DejaVuSans-69" x="710.396484"/>
      <use xlink:href="#DejaVuSans-6e" x="738.179688"/>
      <use xlink:href="#DejaVuSans-69" x="801.558594"/>
      <use xlink:href="#DejaVuSans-6e" x="829.341797"/>
      <use xlink:href="#DejaVuSans-67" x="892.720703"/>
      <use xlink:href="#DejaVuSans-20" x="956.197266"/>
      <use xlink:href="#DejaVuSans-53" x="987.984375"/>
      <use xlink:href="#DejaVuSans-61" x="1051.460938"/>
      <use xlink:href="#DejaVuSans-6d" x="1112.740234"/>
      <use xlink:href="#DejaVuSans-70" x="1210.152344"/>
      <use xlink:href="#DejaVuSans-6c" x="1273.628906"/>
      <use xlink:href="#DejaVuSans-65" x="1301.412109"/>
      <use xlink:href="#DejaVuSans-73" x="1362.935547"/>
     </g>
    </g>
   </g>
   <g id="patch_3">
    <path d="M 72.23125 508.74 
L 72.23125 7.2 
" style="fill: none; stroke: #000000; stroke-width: 0.8; stroke-linejoin: miter; stroke-linecap: square"/>
   </g>
   <g id="patch_4">
    <path d="M 838.01125 508.74 
L 838.01125 7.2 
" style="fill: none; stroke: #000000; stroke-width: 0.8; stroke-linejoin: miter; stroke-linecap: square"/>
   </g>
   <g id="patch_5">
    <path d="M 72.23125 508.74 
L 838.01125 508.74 
" style="fill: none; stroke: #000000; stroke-width: 0.8; stroke-linejoin: miter; stroke-linecap: square"/>
   </g>
   <g id="patch_6">
    <path d="M 72.23125 7.2 
L 838.01125 7.2 
" style="fill: none; stroke: #000000; stroke-width: 0.8; stroke-linejoin: miter; stroke-linecap: square"/>
   </g>
   <g id="patch_7">
    <path d="M 107.039432 508.74 
L 124.019033 508.74 
L 124.019033 360.320848 
L 107.039432 360.320848 
z
" clip-path="url(#p2591c880e8)" style="fill: #1f77b4"/>
   </g>
   <g id="patch_8">
    <path d="M 140.998634 508.74 
L 157.978234 508.74 
L 157.978234 344.835704 
L 140.998634 344.835704 
z
" clip-path="url(#p2591c880e8)" style="fill: #1f77b4"/>
   </g>
   <g id="patch_9">
    <path d="M 174.957835 508.74 
L 191.937436 508.74 
L 191.937436 484.440235 
L 174.957835 484.440235 
z
" clip-path="url(#p2591c880e8)" style="fill: #1f77b4"/>
   </g>
   <g id="patch_10">
    <path d="M 208.917037 508.74 
L 225.896638 508.74 
L 225.896638 506.000321 
L 208.917037 506.000321 
z
" clip-path="url(#p2591c880e8)" style="fill: #1f77b4"/>
   </g>
   <g id="patch_11">
    <path d="M 242.876239 508.74 
L 259.85584 508.74 
L 259.85584 473.243285 
L 242.876239 473.243285 
z
" clip-path="url(#p2591c880e8)" style="fill: #1f77b4"/>
   </g>
   <g id="patch_12">
    <path d="M 276.835441 508.74 
L 293.815042 508.74 
L 293.815042 452.159665 
L 276.835441 452.159665 
z
" clip-path="url(#p2591c880e8)" style="fill: #1f77b4"/>
   </g>
   <g id="patch_13">
    <path d="M 310.794642 508.74 
L 327.774243 508.74 
L 327.774243 507.667952 
L 310.794642 507.667952 
z
" clip-path="url(#p2591c880e8)" style="fill: #1f77b4"/>
   </g>
   <g id="patch_14">
    <path d="M 344.753844 508.74 
L 361.733445 508.74 
L 361.733445 508.74 
L 344.753844 508.74 
z
" clip-path="url(#p2591c880e8)" style="fill: #1f77b4"/>
   </g>
   <g id="patch_15">
    <path d="M 378.713046 508.74 
L 395.692647 508.74 
L 395.692647 508.620884 
L 378.713046 508.620884 
z
" clip-path="url(#p2591c880e8)" style="fill: #1f77b4"/>
   </g>
   <g id="patch_16">
    <path d="M 412.672248 508.74 
L 429.651849 508.74 
L 429.651849 500.520962 
L 412.672248 500.520962 
z
" clip-path="url(#p2591c880e8)" style="fill: #1f77b4"/>
   </g>
   <g id="patch_17">
    <path d="M 446.63145 508.74 
L 463.61105 508.74 
L 463.61105 472.05212 
L 446.63145 472.05212 
z
" clip-path="url(#p2591c880e8)" style="fill: #1f77b4"/>
   </g>
   <g id="patch_18">
    <path d="M 480.590651 508.74 
L 497.570252 508.74 
L 497.570252 507.429719 
L 480.590651 507.429719 
z
" clip-path="url(#p2591c880e8)" style="fill: #1f77b4"/>
   </g>
   <g id="patch_19">
    <path d="M 514.549853 508.74 
L 531.529454 508.74 
L 531.529454 492.659273 
L 514.549853 492.659273 
z
" clip-path="url(#p2591c880e8)" style="fill: #1f77b4"/>
   </g>
   <g id="patch_20">
    <path d="M 548.509055 508.74 
L 565.488656 508.74 
L 565.488656 480.271158 
L 548.509055 480.271158 
z
" clip-path="url(#p2591c880e8)" style="fill: #1f77b4"/>
   </g>
   <g id="patch_21">
    <path d="M 582.468257 508.74 
L 599.447858 508.74 
L 599.447858 496.709234 
L 582.468257 496.709234 
z
" clip-path="url(#p2591c880e8)" style="fill: #1f77b4"/>
   </g>
   <g id="patch_22">
    <path d="M 616.427458 508.74 
L 633.407059 508.74 
L 633.407059 507.667952 
L 616.427458 507.667952 
z
" clip-path="url(#p2591c880e8)" style="fill: #1f77b4"/>
   </g>
   <g id="patch_23">
    <path d="M 650.38666 508.74 
L 667.366261 508.74 
L 667.366261 496.828351 
L 650.38666 496.828351 
z
" clip-path="url(#p2591c880e8)" style="fill: #1f77b4"/>
   </g>
   <g id="patch_24">
    <path d="M 684.345862 508.74 
L 701.325463 508.74 
L 701.325463 501.831243 
L 684.345862 501.831243 
z
" clip-path="url(#p2591c880e8)" style="fill: #1f77b4"/>
   </g>
   <g id="patch_25">
    <path d="M 718.305064 508.74 
L 735.284665 508.74 
L 735.284665 501.95036 
L 718.305064 501.95036 
z
" clip-path="url(#p2591c880e8)" style="fill: #1f77b4"/>
   </g>
   <g id="patch_26">
    <path d="M 752.264266 508.74 
L 769.243866 508.74 
L 769.243866 475.268265 
L 752.264266 475.268265 
z
" clip-path="url(#p2591c880e8)" style="fill: #1f77b4"/>
   </g>
   <g id="patch_27">
    <path d="M 786.223467 508.74 
L 803.203068 508.74 
L 803.203068 508.74 
L 786.223467 508.74 
z
" clip-path="url(#p2591c880e8)" style="fill: #1f77b4"/>
   </g>
   <g id="patch_28">
    <path d="M 107.039432 360.320848 
L 124.019033 360.320848 
L 124.019033 353.173858 
L 107.039432 353.173858 
z
" clip-path="url(#p2591c880e8)" style="fill: #ff7f0e"/>
   </g>
   <g id="patch_29">
    <path d="M 140.998634 344.835704 
L 157.978234 344.835704 
L 157.978234 317.558026 
L 140.998634 317.558026 
z
" clip-path="url(#p2591c880e8)" style="fill: #ff7f0e"/>
   </g>
   <g id="patch_30">
    <path d="M 174.957835 484.440235 
L 191.937436 484.440235 
L 191.937436 468.716858 
L 174.957835 468.716858 
z
" clip-path="url(#p2591c880e8)" style="fill: #ff7f0e"/>
   </g>
   <g id="patch_31">
    <path d="M 208.917037 506.000321 
L 225.896638 506.000321 
L 225.896638 422.499658 
L 208.917037 422.499658 
z
" clip-path="url(#p2591c880e8)" style="fill: #ff7f0e"/>
   </g>
   <g id="patch_32">
    <path d="M 242.876239 473.243285 
L 259.85584 473.243285 
L 259.85584 451.087617 
L 242.876239 451.087617 
z
" clip-path="url(#p2591c880e8)" style="fill: #ff7f0e"/>
   </g>
   <g id="patch_33">
    <path d="M 276.835441 452.159665 
L 293.815042 452.159665 
L 293.815042 351.863577 
L 276.835441 351.863577 
z
" clip-path="url(#p2591c880e8)" style="fill: #ff7f0e"/>
   </g>
   <g id="patch_34">
    <path d="M 310.794642 507.667952 
L 327.774243 507.667952 
L 327.774243 452.874364 
L 310.794642 452.874364 
z
" clip-path="url(#p2591c880e8)" style="fill: #ff7f0e"/>
   </g>
   <g id="patch_35">
    <path d="M 344.753844 508.74 
L 361.733445 508.74 
L 361.733445 419.164396 
L 344.753844 419.164396 
z
" clip-path="url(#p2591c880e8)" style="fill: #ff7f0e"/>
   </g>
   <g id="patch_36">
    <path d="M 378.713046 508.620884 
L 395.692647 508.620884 
L 395.692647 503.022408 
L 378.713046 503.022408 
z
" clip-path="url(#p2591c880e8)" style="fill: #ff7f0e"/>
   </g>
   <g id="patch_37">
    <path d="M 412.672248 500.520962 
L 429.651849 500.520962 
L 429.651849 440.605365 
L 412.672248 440.605365 
z
" clip-path="url(#p2591c880e8)" style="fill: #ff7f0e"/>
   </g>
   <g id="patch_38">
    <path d="M 446.63145 472.05212 
L 463.61105 472.05212 
L 463.61105 453.35083 
L 446.63145 453.35083 
z
" clip-path="url(#p2591c880e8)" style="fill: #ff7f0e"/>
   </g>
   <g id="patch_39">
    <path d="M 480.590651 507.429719 
L 497.570252 507.429719 
L 497.570252 473.838867 
L 480.590651 473.838867 
z
" clip-path="url(#p2591c880e8)" style="fill: #ff7f0e"/>
   </g>
   <g id="patch_40">
    <path d="M 514.549853 492.659273 
L 531.529454 492.659273 
L 531.529454 479.199109 
L 514.549853 479.199109 
z
" clip-path="url(#p2591c880e8)" style="fill: #ff7f0e"/>
   </g>
   <g id="patch_41">
    <path d="M 548.509055 480.271158 
L 565.488656 480.271158 
L 565.488656 480.152041 
L 548.509055 480.152041 
z
" clip-path="url(#p2591c880e8)" style="fill: #ff7f0e"/>
   </g>
   <g id="patch_42">
    <path d="M 582.468257 496.709234 
L 599.447858 496.709234 
L 599.447858 495.875419 
L 582.468257 495.875419 
z
" clip-path="url(#p2591c880e8)" style="fill: #ff7f0e"/>
   </g>
   <g id="patch_43">
    <path d="M 616.427458 507.667952 
L 633.407059 507.667952 
L 633.407059 500.878311 
L 616.427458 500.878311 
z
" clip-path="url(#p2591c880e8)" style="fill: #ff7f0e"/>
   </g>
   <g id="patch_44">
    <path d="M 650.38666 496.828351 
L 667.366261 496.828351 
L 667.366261 496.709234 
L 650.38666 496.709234 
z
" clip-path="url(#p2591c880e8)" style="fill: #ff7f0e"/>
   </g>
   <g id="patch_45">
    <path d="M 684.345862 501.831243 
L 701.325463 501.831243 
L 701.325463 474.910916 
L 684.345862 474.910916 
z
" clip-path="url(#p2591c880e8)" style="fill: #ff7f0e"/>
   </g>
   <g id="patch_46">
    <path d="M 718.305064 501.95036 
L 735.284665 501.95036 
L 735.284665 485.035818 
L 718.305064 485.035818 
z
" clip-path="url(#p2591c880e8)" style="fill: #ff7f0e"/>
   </g>
   <g id="patch_47">
    <path d="M 752.264266 475.268265 
L 769.243866 475.268265 
L 769.243866 463.118383 
L 752.264266 463.118383 
z
" clip-path="url(#p2591c880e8)" style="fill: #ff7f0e"/>
   </g>
   <g id="patch_48">
    <path d="M 786.223467 508.74 
L 803.203068 508.74 
L 803.203068 508.74 
L 786.223467 508.74 
z
" clip-path="url(#p2591c880e8)" style="fill: #ff7f0e"/>
   </g>
   <g id="patch_49">
    <path d="M 107.039432 353.173858 
L 124.019033 353.173858 
L 124.019033 332.566705 
L 107.039432 332.566705 
z
" clip-path="url(#p2591c880e8)" style="fill: #2ca02c"/>
   </g>
   <g id="patch_50">
    <path d="M 140.998634 317.558026 
L 157.978234 317.558026 
L 157.978234 278.249583 
L 140.998634 278.249583 
z
" clip-path="url(#p2591c880e8)" style="fill: #2ca02c"/>
   </g>
   <g id="patch_51">
    <path d="M 174.957835 468.716858 
L 191.937436 468.716858 
L 191.937436 458.234606 
L 174.957835 458.234606 
z
" clip-path="url(#p2591c880e8)" style="fill: #2ca02c"/>
   </g>
   <g id="patch_52">
    <path d="M 208.917037 422.499658 
L 225.896638 422.499658 
L 225.896638 412.732105 
L 208.917037 412.732105 
z
" clip-path="url(#p2591c880e8)" style="fill: #2ca02c"/>
   </g>
   <g id="patch_53">
    <path d="M 242.876239 451.087617 
L 259.85584 451.087617 
L 259.85584 433.339259 
L 242.876239 433.339259 
z
" clip-path="url(#p2591c880e8)" style="fill: #2ca02c"/>
   </g>
   <g id="patch_54">
    <path d="M 276.835441 351.863577 
L 293.815042 351.863577 
L 293.815042 319.702123 
L 276.835441 319.702123 
z
" clip-path="url(#p2591c880e8)" style="fill: #2ca02c"/>
   </g>
   <g id="patch_55">
    <path d="M 310.794642 452.874364 
L 327.774243 452.874364 
L 327.774243 447.514122 
L 310.794642 447.514122 
z
" clip-path="url(#p2591c880e8)" style="fill: #2ca02c"/>
   </g>
   <g id="patch_56">
    <path d="M 344.753844 419.164396 
L 361.733445 419.164396 
L 361.733445 405.227766 
L 344.753844 405.227766 
z
" clip-path="url(#p2591c880e8)" style="fill: #2ca02c"/>
   </g>
   <g id="patch_57">
    <path d="M 378.713046 503.022408 
L 395.692647 503.022408 
L 395.692647 502.426826 
L 378.713046 502.426826 
z
" clip-path="url(#p2591c880e8)" style="fill: #2ca02c"/>
   </g>
   <g id="patch_58">
    <path d="M 412.672248 440.605365 
L 429.651849 440.605365 
L 429.651849 399.271942 
L 412.672248 399.271942 
z
" clip-path="url(#p2591c880e8)" style="fill: #2ca02c"/>
   </g>
   <g id="patch_59">
    <path d="M 446.63145 453.35083 
L 463.61105 453.35083 
L 463.61105 393.792583 
L 446.63145 393.792583 
z
" clip-path="url(#p2591c880e8)" style="fill: #2ca02c"/>
   </g>
   <g id="patch_60">
    <path d="M 480.590651 473.838867 
L 497.570252 473.838867 
L 497.570252 460.616936 
L 480.590651 460.616936 
z
" clip-path="url(#p2591c880e8)" style="fill: #2ca02c"/>
   </g>
   <g id="patch_61">
    <path d="M 514.549853 479.199109 
L 531.529454 479.199109 
L 531.529454 476.816779 
L 514.549853 476.816779 
z
" clip-path="url(#p2591c880e8)" style="fill: #2ca02c"/>
   </g>
   <g id="patch_62">
    <path d="M 548.509055 480.152041 
L 565.488656 480.152041 
L 565.488656 462.88015 
L 548.509055 462.88015 
z
" clip-path="url(#p2591c880e8)" style="fill: #2ca02c"/>
   </g>
   <g id="patch_63">
    <path d="M 582.468257 495.875419 
L 599.447858 495.875419 
L 599.447858 438.223035 
L 582.468257 438.223035 
z
" clip-path="url(#p2591c880e8)" style="fill: #2ca02c"/>
   </g>
   <g id="patch_64">
    <path d="M 616.427458 500.878311 
L 633.407059 500.878311 
L 633.407059 500.878311 
L 616.427458 500.878311 
z
" clip-path="url(#p2591c880e8)" style="fill: #2ca02c"/>
   </g>
   <g id="patch_65">
    <path d="M 650.38666 496.709234 
L 667.366261 496.709234 
L 667.366261 496.590118 
L 650.38666 496.590118 
z
" clip-path="url(#p2591c880e8)" style="fill: #2ca02c"/>
   </g>
   <g id="patch_66">
    <path d="M 684.345862 474.910916 
L 701.325463 474.910916 
L 701.325463 452.040549 
L 684.345862 452.040549 
z
" clip-path="url(#p2591c880e8)" style="fill: #2ca02c"/>
   </g>
   <g id="patch_67">
    <path d="M 718.305064 485.035818 
L 735.284665 485.035818 
L 735.284665 469.550673 
L 718.305064 469.550673 
z
" clip-path="url(#p2591c880e8)" style="fill: #2ca02c"/>
   </g>
   <g id="patch_68">
    <path d="M 752.264266 463.118383 
L 769.243866 463.118383 
L 769.243866 247.398411 
L 752.264266 247.398411 
z
" clip-path="url(#p2591c880e8)" style="fill: #2ca02c"/>
   </g>
   <g id="patch_69">
    <path d="M 786.223467 508.74 
L 803.203068 508.74 
L 803.203068 508.74 
L 786.223467 508.74 
z
" clip-path="url(#p2591c880e8)" style="fill: #2ca02c"/>
   </g>
   <g id="patch_70">
    <path d="M 107.039432 332.566705 
L 124.019033 332.566705 
L 124.019033 332.566705 
L 107.039432 332.566705 
z
" clip-path="url(#p2591c880e8)" style="fill: #d62728"/>
   </g>
   <g id="patch_71">
    <path d="M 140.998634 278.249583 
L 157.978234 278.249583 
L 157.978234 256.808614 
L 140.998634 256.808614 
z
" clip-path="url(#p2591c880e8)" style="fill: #d62728"/>
   </g>
   <g id="patch_72">
    <path d="M 174.957835 458.234606 
L 191.937436 458.234606 
L 191.937436 449.896452 
L 174.957835 449.896452 
z
" clip-path="url(#p2591c880e8)" style="fill: #d62728"/>
   </g>
   <g id="patch_73">
    <path d="M 208.917037 412.732105 
L 225.896638 412.732105 
L 225.896638 406.418931 
L 208.917037 406.418931 
z
" clip-path="url(#p2591c880e8)" style="fill: #d62728"/>
   </g>
   <g id="patch_74">
    <path d="M 242.876239 433.339259 
L 259.85584 433.339259 
L 259.85584 401.773388 
L 242.876239 401.773388 
z
" clip-path="url(#p2591c880e8)" style="fill: #d62728"/>
   </g>
   <g id="patch_75">
    <path d="M 276.835441 319.702123 
L 293.815042 319.702123 
L 293.815042 318.034492 
L 276.835441 318.034492 
z
" clip-path="url(#p2591c880e8)" style="fill: #d62728"/>
   </g>
   <g id="patch_76">
    <path d="M 310.794642 447.514122 
L 327.774243 447.514122 
L 327.774243 409.039494 
L 310.794642 409.039494 
z
" clip-path="url(#p2591c880e8)" style="fill: #d62728"/>
   </g>
   <g id="patch_77">
    <path d="M 344.753844 405.227766 
L 361.733445 405.227766 
L 361.733445 404.989533 
L 344.753844 404.989533 
z
" clip-path="url(#p2591c880e8)" style="fill: #d62728"/>
   </g>
   <g id="patch_78">
    <path d="M 378.713046 502.426826 
L 395.692647 502.426826 
L 395.692647 467.883042 
L 378.713046 467.883042 
z
" clip-path="url(#p2591c880e8)" style="fill: #d62728"/>
   </g>
   <g id="patch_79">
    <path d="M 412.672248 399.271942 
L 429.651849 399.271942 
L 429.651849 398.914592 
L 412.672248 398.914592 
z
" clip-path="url(#p2591c880e8)" style="fill: #d62728"/>
   </g>
   <g id="patch_80">
    <path d="M 446.63145 393.792583 
L 463.61105 393.792583 
L 463.61105 350.553295 
L 446.63145 350.553295 
z
" clip-path="url(#p2591c880e8)" style="fill: #d62728"/>
   </g>
   <g id="patch_81">
    <path d="M 480.590651 460.616936 
L 497.570252 460.616936 
L 497.570252 454.780228 
L 480.590651 454.780228 
z
" clip-path="url(#p2591c880e8)" style="fill: #d62728"/>
   </g>
   <g id="patch_82">
    <path d="M 514.549853 476.816779 
L 531.529454 476.816779 
L 531.529454 470.027139 
L 514.549853 470.027139 
z
" clip-path="url(#p2591c880e8)" style="fill: #d62728"/>
   </g>
   <g id="patch_83">
    <path d="M 548.509055 462.88015 
L 565.488656 462.88015 
L 565.488656 457.400791 
L 548.509055 457.400791 
z
" clip-path="url(#p2591c880e8)" style="fill: #d62728"/>
   </g>
   <g id="patch_84">
    <path d="M 582.468257 438.223035 
L 599.447858 438.223035 
L 599.447858 321.369754 
L 582.468257 321.369754 
z
" clip-path="url(#p2591c880e8)" style="fill: #d62728"/>
   </g>
   <g id="patch_85">
    <path d="M 616.427458 500.878311 
L 633.407059 500.878311 
L 633.407059 321.727104 
L 616.427458 321.727104 
z
" clip-path="url(#p2591c880e8)" style="fill: #d62728"/>
   </g>
   <g id="patch_86">
    <path d="M 650.38666 496.590118 
L 667.366261 496.590118 
L 667.366261 496.113652 
L 650.38666 496.113652 
z
" clip-path="url(#p2591c880e8)" style="fill: #d62728"/>
   </g>
   <g id="patch_87">
    <path d="M 684.345862 452.040549 
L 701.325463 452.040549 
L 701.325463 436.198055 
L 684.345862 436.198055 
z
" clip-path="url(#p2591c880e8)" style="fill: #d62728"/>
   </g>
   <g id="patch_88">
    <path d="M 718.305064 469.550673 
L 735.284665 469.550673 
L 735.284665 393.077884 
L 718.305064 393.077884 
z
" clip-path="url(#p2591c880e8)" style="fill: #d62728"/>
   </g>
   <g id="patch_89">
    <path d="M 752.264266 247.398411 
L 769.243866 247.398411 
L 769.243866 244.896965 
L 752.264266 244.896965 
z
" clip-path="url(#p2591c880e8)" style="fill: #d62728"/>
   </g>
   <g id="patch_90">
    <path d="M 786.223467 508.74 
L 803.203068 508.74 
L 803.203068 508.74 
L 786.223467 508.74 
z
" clip-path="url(#p2591c880e8)" style="fill: #d62728"/>
   </g>
   <g id="patch_91">
    <path d="M 107.039432 332.566705 
L 124.019033 332.566705 
L 124.019033 330.422608 
L 107.039432 330.422608 
z
" clip-path="url(#p2591c880e8)" style="fill: #9467bd"/>
   </g>
   <g id="patch_92">
    <path d="M 140.998634 256.808614 
L 157.978234 256.808614 
L 157.978234 256.332148 
L 140.998634 256.332148 
z
" clip-path="url(#p2591c880e8)" style="fill: #9467bd"/>
   </g>
   <g id="patch_93">
    <path d="M 174.957835 449.896452 
L 191.937436 449.896452 
L 191.937436 449.777335 
L 174.957835 449.777335 
z
" clip-path="url(#p2591c880e8)" style="fill: #9467bd"/>
   </g>
   <g id="patch_94">
    <path d="M 208.917037 406.418931 
L 225.896638 406.418931 
L 225.896638 318.391842 
L 208.917037 318.391842 
z
" clip-path="url(#p2591c880e8)" style="fill: #9467bd"/>
   </g>
   <g id="patch_95">
    <path d="M 242.876239 401.773388 
L 259.85584 401.773388 
L 259.85584 387.836758 
L 242.876239 387.836758 
z
" clip-path="url(#p2591c880e8)" style="fill: #9467bd"/>
   </g>
   <g id="patch_96">
    <path d="M 276.835441 318.034492 
L 293.815042 318.034492 
L 293.815042 240.847004 
L 276.835441 240.847004 
z
" clip-path="url(#p2591c880e8)" style="fill: #9467bd"/>
   </g>
   <g id="patch_97">
    <path d="M 310.794642 409.039494 
L 327.774243 409.039494 
L 327.774243 373.423662 
L 310.794642 373.423662 
z
" clip-path="url(#p2591c880e8)" style="fill: #9467bd"/>
   </g>
   <g id="patch_98">
    <path d="M 344.753844 404.989533 
L 361.733445 404.989533 
L 361.733445 343.763655 
L 344.753844 343.763655 
z
" clip-path="url(#p2591c880e8)" style="fill: #9467bd"/>
   </g>
   <g id="patch_99">
    <path d="M 378.713046 467.883042 
L 395.692647 467.883042 
L 395.692647 462.284567 
L 378.713046 462.284567 
z
" clip-path="url(#p2591c880e8)" style="fill: #9467bd"/>
   </g>
   <g id="patch_100">
    <path d="M 412.672248 398.914592 
L 429.651849 398.914592 
L 429.651849 395.102864 
L 412.672248 395.102864 
z
" clip-path="url(#p2591c880e8)" style="fill: #9467bd"/>
   </g>
   <g id="patch_101">
    <path d="M 446.63145 350.553295 
L 463.61105 350.553295 
L 463.61105 306.599309 
L 446.63145 306.599309 
z
" clip-path="url(#p2591c880e8)" style="fill: #9467bd"/>
   </g>
   <g id="patch_102">
    <path d="M 480.590651 454.780228 
L 497.570252 454.780228 
L 497.570252 452.993481 
L 480.590651 452.993481 
z
" clip-path="url(#p2591c880e8)" style="fill: #9467bd"/>
   </g>
   <g id="patch_103">
    <path d="M 514.549853 470.027139 
L 531.529454 470.027139 
L 531.529454 426.549619 
L 514.549853 426.549619 
z
" clip-path="url(#p2591c880e8)" style="fill: #9467bd"/>
   </g>
   <g id="patch_104">
    <path d="M 548.509055 457.400791 
L 565.488656 457.400791 
L 565.488656 452.159665 
L 548.509055 452.159665 
z
" clip-path="url(#p2591c880e8)" style="fill: #9467bd"/>
   </g>
   <g id="patch_105">
    <path d="M 582.468257 321.369754 
L 599.447858 321.369754 
L 599.447858 320.774172 
L 582.468257 320.774172 
z
" clip-path="url(#p2591c880e8)" style="fill: #9467bd"/>
   </g>
   <g id="patch_106">
    <path d="M 616.427458 321.727104 
L 633.407059 321.727104 
L 633.407059 319.940356 
L 616.427458 319.940356 
z
" clip-path="url(#p2591c880e8)" style="fill: #9467bd"/>
   </g>
   <g id="patch_107">
    <path d="M 650.38666 496.113652 
L 667.366261 496.113652 
L 667.366261 494.684254 
L 650.38666 494.684254 
z
" clip-path="url(#p2591c880e8)" style="fill: #9467bd"/>
   </g>
   <g id="patch_108">
    <path d="M 684.345862 436.198055 
L 701.325463 436.198055 
L 701.325463 345.550403 
L 684.345862 345.550403 
z
" clip-path="url(#p2591c880e8)" style="fill: #9467bd"/>
   </g>
   <g id="patch_109">
    <path d="M 718.305064 393.077884 
L 735.284665 393.077884 
L 735.284665 382.714749 
L 718.305064 382.714749 
z
" clip-path="url(#p2591c880e8)" style="fill: #9467bd"/>
   </g>
   <g id="patch_110">
    <path d="M 752.264266 244.896965 
L 769.243866 244.896965 
L 769.243866 136.739188 
L 752.264266 136.739188 
z
" clip-path="url(#p2591c880e8)" style="fill: #9467bd"/>
   </g>
   <g id="patch_111">
    <path d="M 786.223467 508.74 
L 803.203068 508.74 
L 803.203068 508.74 
L 786.223467 508.74 
z
" clip-path="url(#p2591c880e8)" style="fill: #9467bd"/>
   </g>
   <g id="patch_112">
    <path d="M 107.039432 330.422608 
L 124.019033 330.422608 
L 124.019033 318.868308 
L 107.039432 318.868308 
z
" clip-path="url(#p2591c880e8)" style="fill: #8c564b"/>
   </g>
   <g id="patch_113">
    <path d="M 140.998634 256.332148 
L 157.978234 256.332148 
L 157.978234 75.275077 
L 140.998634 75.275077 
z
" clip-path="url(#p2591c880e8)" style="fill: #8c564b"/>
   </g>
   <g id="patch_114">
    <path d="M 174.957835 449.777335 
L 191.937436 449.777335 
L 191.937436 322.084453 
L 174.957835 322.084453 
z
" clip-path="url(#p2591c880e8)" style="fill: #8c564b"/>
   </g>
   <g id="patch_115">
    <path d="M 208.917037 318.391842 
L 225.896638 318.391842 
L 225.896638 308.147823 
L 208.917037 308.147823 
z
" clip-path="url(#p2591c880e8)" style="fill: #8c564b"/>
   </g>
   <g id="patch_116">
    <path d="M 242.876239 387.836758 
L 259.85584 387.836758 
L 259.85584 386.40736 
L 242.876239 386.40736 
z
" clip-path="url(#p2591c880e8)" style="fill: #8c564b"/>
   </g>
   <g id="patch_117">
    <path d="M 276.835441 240.847004 
L 293.815042 240.847004 
L 293.815042 180.931407 
L 276.835441 180.931407 
z
" clip-path="url(#p2591c880e8)" style="fill: #8c564b"/>
   </g>
   <g id="patch_118">
    <path d="M 310.794642 373.423662 
L 327.774243 373.423662 
L 327.774243 369.969284 
L 310.794642 369.969284 
z
" clip-path="url(#p2591c880e8)" style="fill: #8c564b"/>
   </g>
   <g id="patch_119">
    <path d="M 344.753844 343.763655 
L 361.733445 343.763655 
L 361.733445 341.381325 
L 344.753844 341.381325 
z
" clip-path="url(#p2591c880e8)" style="fill: #8c564b"/>
   </g>
   <g id="patch_120">
    <path d="M 378.713046 462.284567 
L 395.692647 462.284567 
L 395.692647 459.902237 
L 378.713046 459.902237 
z
" clip-path="url(#p2591c880e8)" style="fill: #8c564b"/>
   </g>
   <g id="patch_121">
    <path d="M 412.672248 395.102864 
L 429.651849 395.102864 
L 429.651849 394.983748 
L 412.672248 394.983748 
z
" clip-path="url(#p2591c880e8)" style="fill: #8c564b"/>
   </g>
   <g id="patch_122">
    <path d="M 446.63145 306.599309 
L 463.61105 306.599309 
L 463.61105 299.333203 
L 446.63145 299.333203 
z
" clip-path="url(#p2591c880e8)" style="fill: #8c564b"/>
   </g>
   <g id="patch_123">
    <path d="M 480.590651 452.993481 
L 497.570252 452.993481 
L 497.570252 433.696608 
L 480.590651 433.696608 
z
" clip-path="url(#p2591c880e8)" style="fill: #8c564b"/>
   </g>
   <g id="patch_124">
    <path d="M 514.549853 426.549619 
L 531.529454 426.549619 
L 531.529454 426.192269 
L 514.549853 426.192269 
z
" clip-path="url(#p2591c880e8)" style="fill: #8c564b"/>
   </g>
   <g id="patch_125">
    <path d="M 548.509055 452.159665 
L 565.488656 452.159665 
L 565.488656 444.17886 
L 548.509055 444.17886 
z
" clip-path="url(#p2591c880e8)" style="fill: #8c564b"/>
   </g>
   <g id="patch_126">
    <path d="M 582.468257 320.774172 
L 599.447858 320.774172 
L 599.447858 251.091022 
L 582.468257 251.091022 
z
" clip-path="url(#p2591c880e8)" style="fill: #8c564b"/>
   </g>
   <g id="patch_127">
    <path d="M 616.427458 319.940356 
L 633.407059 319.940356 
L 633.407059 318.630075 
L 616.427458 318.630075 
z
" clip-path="url(#p2591c880e8)" style="fill: #8c564b"/>
   </g>
   <g id="patch_128">
    <path d="M 650.38666 494.684254 
L 667.366261 494.684254 
L 667.366261 474.791799 
L 650.38666 474.791799 
z
" clip-path="url(#p2591c880e8)" style="fill: #8c564b"/>
   </g>
   <g id="patch_129">
    <path d="M 684.345862 345.550403 
L 701.325463 345.550403 
L 701.325463 343.287189 
L 684.345862 343.287189 
z
" clip-path="url(#p2591c880e8)" style="fill: #8c564b"/>
   </g>
   <g id="patch_130">
    <path d="M 718.305064 382.714749 
L 735.284665 382.714749 
L 735.284665 367.110488 
L 718.305064 367.110488 
z
" clip-path="url(#p2591c880e8)" style="fill: #8c564b"/>
   </g>
   <g id="patch_131">
    <path d="M 752.264266 136.739188 
L 769.243866 136.739188 
L 769.243866 85.042629 
L 752.264266 85.042629 
z
" clip-path="url(#p2591c880e8)" style="fill: #8c564b"/>
   </g>
   <g id="patch_132">
    <path d="M 786.223467 508.74 
L 803.203068 508.74 
L 803.203068 508.74 
L 786.223467 508.74 
z
" clip-path="url(#p2591c880e8)" style="fill: #8c564b"/>
   </g>
   <g id="patch_133">
    <path d="M 107.039432 318.868308 
L 124.019033 318.868308 
L 124.019033 306.837542 
L 107.039432 306.837542 
z
" clip-path="url(#p2591c880e8)" style="fill: #e377c2"/>
   </g>
   <g id="patch_134">
    <path d="M 140.998634 75.275077 
L 157.978234 75.275077 
L 157.978234 75.036844 
L 140.998634 75.036844 
z
" clip-path="url(#p2591c880e8)" style="fill: #e377c2"/>
   </g>
   <g id="patch_135">
    <path d="M 174.957835 322.084453 
L 191.937436 322.084453 
L 191.937436 288.612718 
L 174.957835 288.612718 
z
" clip-path="url(#p2591c880e8)" style="fill: #e377c2"/>
   </g>
   <g id="patch_136">
    <path d="M 208.917037 308.147823 
L 225.896638 308.147823 
L 225.896638 299.809669 
L 208.917037 299.809669 
z
" clip-path="url(#p2591c880e8)" style="fill: #e377c2"/>
   </g>
   <g id="patch_137">
    <path d="M 242.876239 386.40736 
L 259.85584 386.40736 
L 259.85584 376.044225 
L 242.876239 376.044225 
z
" clip-path="url(#p2591c880e8)" style="fill: #e377c2"/>
   </g>
   <g id="patch_138">
    <path d="M 276.835441 180.931407 
L 293.815042 180.931407 
L 293.815042 100.527773 
L 276.835441 100.527773 
z
" clip-path="url(#p2591c880e8)" style="fill: #e377c2"/>
   </g>
   <g id="patch_139">
    <path d="M 310.794642 369.969284 
L 327.774243 369.969284 
L 327.774243 358.5341 
L 310.794642 358.5341 
z
" clip-path="url(#p2591c880e8)" style="fill: #e377c2"/>
   </g>
   <g id="patch_140">
    <path d="M 344.753844 341.381325 
L 361.733445 341.381325 
L 361.733445 314.103648 
L 344.753844 314.103648 
z
" clip-path="url(#p2591c880e8)" style="fill: #e377c2"/>
   </g>
   <g id="patch_141">
    <path d="M 378.713046 459.902237 
L 395.692647 459.902237 
L 395.692647 443.940627 
L 378.713046 443.940627 
z
" clip-path="url(#p2591c880e8)" style="fill: #e377c2"/>
   </g>
   <g id="patch_142">
    <path d="M 412.672248 394.983748 
L 429.651849 394.983748 
L 429.651849 243.34845 
L 412.672248 243.34845 
z
" clip-path="url(#p2591c880e8)" style="fill: #e377c2"/>
   </g>
   <g id="patch_143">
    <path d="M 446.63145 299.333203 
L 463.61105 299.333203 
L 463.61105 298.380271 
L 446.63145 298.380271 
z
" clip-path="url(#p2591c880e8)" style="fill: #e377c2"/>
   </g>
   <g id="patch_144">
    <path d="M 480.590651 433.696608 
L 497.570252 433.696608 
L 497.570252 401.535155 
L 480.590651 401.535155 
z
" clip-path="url(#p2591c880e8)" style="fill: #e377c2"/>
   </g>
   <g id="patch_145">
    <path d="M 514.549853 426.192269 
L 531.529454 426.192269 
L 531.529454 385.573545 
L 514.549853 385.573545 
z
" clip-path="url(#p2591c880e8)" style="fill: #e377c2"/>
   </g>
   <g id="patch_146">
    <path d="M 548.509055 444.17886 
L 565.488656 444.17886 
L 565.488656 424.286405 
L 548.509055 424.286405 
z
" clip-path="url(#p2591c880e8)" style="fill: #e377c2"/>
   </g>
   <g id="patch_147">
    <path d="M 582.468257 251.091022 
L 599.447858 251.091022 
L 599.447858 249.661625 
L 582.468257 249.661625 
z
" clip-path="url(#p2591c880e8)" style="fill: #e377c2"/>
   </g>
   <g id="patch_148">
    <path d="M 616.427458 318.630075 
L 633.407059 318.630075 
L 633.407059 279.083399 
L 616.427458 279.083399 
z
" clip-path="url(#p2591c880e8)" style="fill: #e377c2"/>
   </g>
   <g id="patch_149">
    <path d="M 650.38666 474.791799 
L 667.366261 474.791799 
L 667.366261 460.616936 
L 650.38666 460.616936 
z
" clip-path="url(#p2591c880e8)" style="fill: #e377c2"/>
   </g>
   <g id="patch_150">
    <path d="M 684.345862 343.287189 
L 701.325463 343.287189 
L 701.325463 258.595362 
L 684.345862 258.595362 
z
" clip-path="url(#p2591c880e8)" style="fill: #e377c2"/>
   </g>
   <g id="patch_151">
    <path d="M 718.305064 367.110488 
L 735.284665 367.110488 
L 735.284665 357.104703 
L 718.305064 357.104703 
z
" clip-path="url(#p2591c880e8)" style="fill: #e377c2"/>
   </g>
   <g id="patch_152">
    <path d="M 752.264266 85.042629 
L 769.243866 85.042629 
L 769.243866 84.089697 
L 752.264266 84.089697 
z
" clip-path="url(#p2591c880e8)" style="fill: #e377c2"/>
   </g>
   <g id="patch_153">
    <path d="M 786.223467 508.74 
L 803.203068 508.74 
L 803.203068 508.74 
L 786.223467 508.74 
z
" clip-path="url(#p2591c880e8)" style="fill: #e377c2"/>
   </g>
   <g id="patch_154">
    <path d="M 107.039432 306.837542 
L 124.019033 306.837542 
L 124.019033 302.072882 
L 107.039432 302.072882 
z
" clip-path="url(#p2591c880e8)" style="fill: #7f7f7f"/>
   </g>
   <g id="patch_155">
    <path d="M 140.998634 75.036844 
L 157.978234 75.036844 
L 157.978234 47.759166 
L 140.998634 47.759166 
z
" clip-path="url(#p2591c880e8)" style="fill: #7f7f7f"/>
   </g>
   <g id="patch_156">
    <path d="M 174.957835 288.612718 
L 191.937436 288.612718 
L 191.937436 288.612718 
L 174.957835 288.612718 
z
" clip-path="url(#p2591c880e8)" style="fill: #7f7f7f"/>
   </g>
   <g id="patch_157">
    <path d="M 208.917037 299.809669 
L 225.896638 299.809669 
L 225.896638 264.312953 
L 208.917037 264.312953 
z
" clip-path="url(#p2591c880e8)" style="fill: #7f7f7f"/>
   </g>
   <g id="patch_158">
    <path d="M 242.876239 376.044225 
L 259.85584 376.044225 
L 259.85584 354.12679 
L 242.876239 354.12679 
z
" clip-path="url(#p2591c880e8)" style="fill: #7f7f7f"/>
   </g>
   <g id="patch_159">
    <path d="M 276.835441 100.527773 
L 293.815042 100.527773 
L 293.815042 87.305843 
L 276.835441 87.305843 
z
" clip-path="url(#p2591c880e8)" style="fill: #7f7f7f"/>
   </g>
   <g id="patch_160">
    <path d="M 310.794642 358.5341 
L 327.774243 358.5341 
L 327.774243 303.025814 
L 310.794642 303.025814 
z
" clip-path="url(#p2591c880e8)" style="fill: #7f7f7f"/>
   </g>
   <g id="patch_161">
    <path d="M 344.753844 314.103648 
L 361.733445 314.103648 
L 361.733445 302.906698 
L 344.753844 302.906698 
z
" clip-path="url(#p2591c880e8)" style="fill: #7f7f7f"/>
   </g>
   <g id="patch_162">
    <path d="M 378.713046 443.940627 
L 395.692647 443.940627 
L 395.692647 359.725265 
L 378.713046 359.725265 
z
" clip-path="url(#p2591c880e8)" style="fill: #7f7f7f"/>
   </g>
   <g id="patch_163">
    <path d="M 412.672248 243.34845 
L 429.651849 243.34845 
L 429.651849 192.962173 
L 412.672248 192.962173 
z
" clip-path="url(#p2591c880e8)" style="fill: #7f7f7f"/>
   </g>
   <g id="patch_164">
    <path d="M 446.63145 298.380271 
L 463.61105 298.380271 
L 463.61105 243.7058 
L 446.63145 243.7058 
z
" clip-path="url(#p2591c880e8)" style="fill: #7f7f7f"/>
   </g>
   <g id="patch_165">
    <path d="M 480.590651 401.535155 
L 497.570252 401.535155 
L 497.570252 397.723427 
L 480.590651 397.723427 
z
" clip-path="url(#p2591c880e8)" style="fill: #7f7f7f"/>
   </g>
   <g id="patch_166">
    <path d="M 514.549853 385.573545 
L 531.529454 385.573545 
L 531.529454 326.729996 
L 514.549853 326.729996 
z
" clip-path="url(#p2591c880e8)" style="fill: #7f7f7f"/>
   </g>
   <g id="patch_167">
    <path d="M 548.509055 424.286405 
L 565.488656 424.286405 
L 565.488656 424.048172 
L 548.509055 424.048172 
z
" clip-path="url(#p2591c880e8)" style="fill: #7f7f7f"/>
   </g>
   <g id="patch_168">
    <path d="M 582.468257 249.661625 
L 599.447858 249.661625 
L 599.447858 245.849897 
L 582.468257 245.849897 
z
" clip-path="url(#p2591c880e8)" style="fill: #7f7f7f"/>
   </g>
   <g id="patch_169">
    <path d="M 616.427458 279.083399 
L 633.407059 279.083399 
L 633.407059 144.719993 
L 616.427458 144.719993 
z
" clip-path="url(#p2591c880e8)" style="fill: #7f7f7f"/>
   </g>
   <g id="patch_170">
    <path d="M 650.38666 460.616936 
L 667.366261 460.616936 
L 667.366261 457.639024 
L 650.38666 457.639024 
z
" clip-path="url(#p2591c880e8)" style="fill: #7f7f7f"/>
   </g>
   <g id="patch_171">
    <path d="M 684.345862 258.595362 
L 701.325463 258.595362 
L 701.325463 257.64243 
L 684.345862 257.64243 
z
" clip-path="url(#p2591c880e8)" style="fill: #7f7f7f"/>
   </g>
   <g id="patch_172">
    <path d="M 718.305064 357.104703 
L 735.284665 357.104703 
L 735.284665 335.901967 
L 718.305064 335.901967 
z
" clip-path="url(#p2591c880e8)" style="fill: #7f7f7f"/>
   </g>
   <g id="patch_173">
    <path d="M 752.264266 84.089697 
L 769.243866 84.089697 
L 769.243866 73.369213 
L 752.264266 73.369213 
z
" clip-path="url(#p2591c880e8)" style="fill: #7f7f7f"/>
   </g>
   <g id="patch_174">
    <path d="M 786.223467 508.74 
L 803.203068 508.74 
L 803.203068 508.74 
L 786.223467 508.74 
z
" clip-path="url(#p2591c880e8)" style="fill: #7f7f7f"/>
   </g>
   <g id="patch_175">
    <path d="M 107.039432 302.072882 
L 124.019033 302.072882 
L 124.019033 291.471514 
L 107.039432 291.471514 
z
" clip-path="url(#p2591c880e8)" style="fill: #bcbd22"/>
   </g>
   <g id="patch_176">
    <path d="M 140.998634 47.759166 
L 157.978234 47.759166 
L 157.978234 31.201974 
L 140.998634 31.201974 
z
" clip-path="url(#p2591c880e8)" style="fill: #bcbd22"/>
   </g>
   <g id="patch_177">
    <path d="M 174.957835 288.612718 
L 191.937436 288.612718 
L 191.937436 278.726049 
L 174.957835 278.726049 
z
" clip-path="url(#p2591c880e8)" style="fill: #bcbd22"/>
   </g>
   <g id="patch_178">
    <path d="M 208.917037 264.312953 
L 225.896638 264.312953 
L 225.896638 254.307168 
L 208.917037 254.307168 
z
" clip-path="url(#p2591c880e8)" style="fill: #bcbd22"/>
   </g>
   <g id="patch_179">
    <path d="M 242.876239 354.12679 
L 259.85584 354.12679 
L 259.85584 282.41866 
L 242.876239 282.41866 
z
" clip-path="url(#p2591c880e8)" style="fill: #bcbd22"/>
   </g>
   <g id="patch_180">
    <path d="M 276.835441 87.305843 
L 293.815042 87.305843 
L 293.815042 61.934029 
L 276.835441 61.934029 
z
" clip-path="url(#p2591c880e8)" style="fill: #bcbd22"/>
   </g>
   <g id="patch_181">
    <path d="M 310.794642 303.025814 
L 327.774243 303.025814 
L 327.774243 297.427339 
L 310.794642 297.427339 
z
" clip-path="url(#p2591c880e8)" style="fill: #bcbd22"/>
   </g>
   <g id="patch_182">
    <path d="M 344.753844 302.906698 
L 361.733445 302.906698 
L 361.733445 280.631913 
L 344.753844 280.631913 
z
" clip-path="url(#p2591c880e8)" style="fill: #bcbd22"/>
   </g>
   <g id="patch_183">
    <path d="M 378.713046 359.725265 
L 395.692647 359.725265 
L 395.692647 346.384218 
L 378.713046 346.384218 
z
" clip-path="url(#p2591c880e8)" style="fill: #bcbd22"/>
   </g>
   <g id="patch_184">
    <path d="M 412.672248 192.962173 
L 429.651849 192.962173 
L 429.651849 175.332932 
L 412.672248 175.332932 
z
" clip-path="url(#p2591c880e8)" style="fill: #bcbd22"/>
   </g>
   <g id="patch_185">
    <path d="M 446.63145 243.7058 
L 463.61105 243.7058 
L 463.61105 237.988208 
L 446.63145 237.988208 
z
" clip-path="url(#p2591c880e8)" style="fill: #bcbd22"/>
   </g>
   <g id="patch_186">
    <path d="M 480.590651 397.723427 
L 497.570252 397.723427 
L 497.570252 341.976908 
L 480.590651 341.976908 
z
" clip-path="url(#p2591c880e8)" style="fill: #bcbd22"/>
   </g>
   <g id="patch_187">
    <path d="M 514.549853 326.729996 
L 531.529454 326.729996 
L 531.529454 322.441803 
L 514.549853 322.441803 
z
" clip-path="url(#p2591c880e8)" style="fill: #bcbd22"/>
   </g>
   <g id="patch_188">
    <path d="M 548.509055 424.048172 
L 565.488656 424.048172 
L 565.488656 420.712911 
L 548.509055 420.712911 
z
" clip-path="url(#p2591c880e8)" style="fill: #bcbd22"/>
   </g>
   <g id="patch_189">
    <path d="M 582.468257 245.849897 
L 599.447858 245.849897 
L 599.447858 242.514635 
L 582.468257 242.514635 
z
" clip-path="url(#p2591c880e8)" style="fill: #bcbd22"/>
   </g>
   <g id="patch_190">
    <path d="M 616.427458 144.719993 
L 633.407059 144.719993 
L 633.407059 134.714207 
L 616.427458 134.714207 
z
" clip-path="url(#p2591c880e8)" style="fill: #bcbd22"/>
   </g>
   <g id="patch_191">
    <path d="M 650.38666 457.639024 
L 667.366261 457.639024 
L 667.366261 440.962715 
L 650.38666 440.962715 
z
" clip-path="url(#p2591c880e8)" style="fill: #bcbd22"/>
   </g>
   <g id="patch_192">
    <path d="M 684.345862 257.64243 
L 701.325463 257.64243 
L 701.325463 131.378945 
L 684.345862 131.378945 
z
" clip-path="url(#p2591c880e8)" style="fill: #bcbd22"/>
   </g>
   <g id="patch_193">
    <path d="M 718.305064 335.901967 
L 735.284665 335.901967 
L 735.284665 205.707638 
L 718.305064 205.707638 
z
" clip-path="url(#p2591c880e8)" style="fill: #bcbd22"/>
   </g>
   <g id="patch_194">
    <path d="M 752.264266 73.369213 
L 769.243866 73.369213 
L 769.243866 36.323983 
L 752.264266 36.323983 
z
" clip-path="url(#p2591c880e8)" style="fill: #bcbd22"/>
   </g>
   <g id="patch_195">
    <path d="M 786.223467 508.74 
L 803.203068 508.74 
L 803.203068 508.74 
L 786.223467 508.74 
z
" clip-path="url(#p2591c880e8)" style="fill: #bcbd22"/>
   </g>
   <g id="patch_196">
    <path d="M 107.039432 291.471514 
L 124.019033 291.471514 
L 124.019033 184.266669 
L 107.039432 184.266669 
z
" clip-path="url(#p2591c880e8)" style="fill: #17becf"/>
   </g>
   <g id="patch_197">
    <path d="M 140.998634 31.201974 
L 157.978234 31.201974 
L 157.978234 31.082857 
L 140.998634 31.082857 
z
" clip-path="url(#p2591c880e8)" style="fill: #17becf"/>
   </g>
   <g id="patch_198">
    <path d="M 174.957835 278.726049 
L 191.937436 278.726049 
L 191.937436 278.130467 
L 174.957835 278.130467 
z
" clip-path="url(#p2591c880e8)" style="fill: #17becf"/>
   </g>
   <g id="patch_199">
    <path d="M 208.917037 254.307168 
L 225.896638 254.307168 
L 225.896638 234.17648 
L 208.917037 234.17648 
z
" clip-path="url(#p2591c880e8)" style="fill: #17becf"/>
   </g>
   <g id="patch_200">
    <path d="M 242.876239 282.41866 
L 259.85584 282.41866 
L 259.85584 267.886448 
L 242.876239 267.886448 
z
" clip-path="url(#p2591c880e8)" style="fill: #17becf"/>
   </g>
   <g id="patch_201">
    <path d="M 276.835441 61.934029 
L 293.815042 61.934029 
L 293.815042 37.038682 
L 276.835441 37.038682 
z
" clip-path="url(#p2591c880e8)" style="fill: #17becf"/>
   </g>
   <g id="patch_202">
    <path d="M 310.794642 297.427339 
L 327.774243 297.427339 
L 327.774243 292.662679 
L 310.794642 292.662679 
z
" clip-path="url(#p2591c880e8)" style="fill: #17becf"/>
   </g>
   <g id="patch_203">
    <path d="M 344.753844 280.631913 
L 361.733445 280.631913 
L 361.733445 257.761546 
L 344.753844 257.761546 
z
" clip-path="url(#p2591c880e8)" style="fill: #17becf"/>
   </g>
   <g id="patch_204">
    <path d="M 378.713046 346.384218 
L 395.692647 346.384218 
L 395.692647 337.926947 
L 378.713046 337.926947 
z
" clip-path="url(#p2591c880e8)" style="fill: #17becf"/>
   </g>
   <g id="patch_205">
    <path d="M 412.672248 175.332932 
L 429.651849 175.332932 
L 429.651849 124.470189 
L 412.672248 124.470189 
z
" clip-path="url(#p2591c880e8)" style="fill: #17becf"/>
   </g>
   <g id="patch_206">
    <path d="M 446.63145 237.988208 
L 463.61105 237.988208 
L 463.61105 156.274293 
L 446.63145 156.274293 
z
" clip-path="url(#p2591c880e8)" style="fill: #17becf"/>
   </g>
   <g id="patch_207">
    <path d="M 480.590651 341.976908 
L 497.570252 341.976908 
L 497.570252 322.918269 
L 480.590651 322.918269 
z
" clip-path="url(#p2591c880e8)" style="fill: #17becf"/>
   </g>
   <g id="patch_208">
    <path d="M 514.549853 322.441803 
L 531.529454 322.441803 
L 531.529454 321.250638 
L 514.549853 321.250638 
z
" clip-path="url(#p2591c880e8)" style="fill: #17becf"/>
   </g>
   <g id="patch_209">
    <path d="M 548.509055 420.712911 
L 565.488656 420.712911 
L 565.488656 387.241176 
L 548.509055 387.241176 
z
" clip-path="url(#p2591c880e8)" style="fill: #17becf"/>
   </g>
   <g id="patch_210">
    <path d="M 582.468257 242.514635 
L 599.447858 242.514635 
L 599.447858 99.574841 
L 582.468257 99.574841 
z
" clip-path="url(#p2591c880e8)" style="fill: #17becf"/>
   </g>
   <g id="patch_211">
    <path d="M 616.427458 134.714207 
L 633.407059 134.714207 
L 633.407059 132.331877 
L 616.427458 132.331877 
z
" clip-path="url(#p2591c880e8)" style="fill: #17becf"/>
   </g>
   <g id="patch_212">
    <path d="M 650.38666 440.962715 
L 667.366261 440.962715 
L 667.366261 410.111543 
L 650.38666 410.111543 
z
" clip-path="url(#p2591c880e8)" style="fill: #17becf"/>
   </g>
   <g id="patch_213">
    <path d="M 684.345862 131.378945 
L 701.325463 131.378945 
L 701.325463 128.281917 
L 684.345862 128.281917 
z
" clip-path="url(#p2591c880e8)" style="fill: #17becf"/>
   </g>
   <g id="patch_214">
    <path d="M 718.305064 205.707638 
L 735.284665 205.707638 
L 735.284665 180.097592 
L 718.305064 180.097592 
z
" clip-path="url(#p2591c880e8)" style="fill: #17becf"/>
   </g>
   <g id="patch_215">
    <path d="M 752.264266 36.323983 
L 769.243866 36.323983 
L 769.243866 35.490167 
L 752.264266 35.490167 
z
" clip-path="url(#p2591c880e8)" style="fill: #17becf"/>
   </g>
   <g id="patch_216">
    <path d="M 786.223467 508.74 
L 803.203068 508.74 
L 803.203068 508.74 
L 786.223467 508.74 
z
" clip-path="url(#p2591c880e8)" style="fill: #17becf"/>
   </g>
   <g id="legend_1">
    <g id="patch_217">
     <path d="M 783.57625 192.9375 
L 829.61125 192.9375 
Q 832.01125 192.9375 832.01125 190.5375 
L 832.01125 15.6 
Q 832.01125 13.2 829.61125 13.2 
L 783.57625 13.2 
Q 781.17625 13.2 781.17625 15.6 
L 781.17625 190.5375 
Q 781.17625 192.9375 783.57625 192.9375 
z
" style="fill: #ffffff; opacity: 0.8; stroke: #cccccc; stroke-linejoin: miter"/>
    </g>
    <g id="patch_218">
     <path d="M 785.97625 27.118125 
L 809.97625 27.118125 
L 809.97625 18.718125 
L 785.97625 18.718125 
z
" style="fill: #1f77b4"/>
    </g>
    <g id="text_32">
     <!-- 0 -->
     <g transform="translate(819.57625 27.118125) scale(0.12 -0.12)">
      <use xlink:href="#DejaVuSans-30"/>
     </g>
    </g>
    <g id="patch_219">
     <path d="M 785.97625 44.731875 
L 809.97625 44.731875 
L 809.97625 36.331875 
L 785.97625 36.331875 
z
" style="fill: #ff7f0e"/>
    </g>
    <g id="text_33">
     <!-- 1 -->
     <g transform="translate(819.57625 44.731875) scale(0.12 -0.12)">
      <use xlink:href="#DejaVuSans-31"/>
     </g>
    </g>
    <g id="patch_220">
     <path d="M 785.97625 62.345625 
L 809.97625 62.345625 
L 809.97625 53.945625 
L 785.97625 53.945625 
z
" style="fill: #2ca02c"/>
    </g>
    <g id="text_34">
     <!-- 2 -->
     <g transform="translate(819.57625 62.345625) scale(0.12 -0.12)">
      <use xlink:href="#DejaVuSans-32"/>
     </g>
    </g>
    <g id="patch_221">
     <path d="M 785.97625 79.959375 
L 809.97625 79.959375 
L 809.97625 71.559375 
L 785.97625 71.559375 
z
" style="fill: #d62728"/>
    </g>
    <g id="text_35">
     <!-- 3 -->
     <g transform="translate(819.57625 79.959375) scale(0.12 -0.12)">
      <use xlink:href="#DejaVuSans-33"/>
     </g>
    </g>
    <g id="patch_222">
     <path d="M 785.97625 97.573125 
L 809.97625 97.573125 
L 809.97625 89.173125 
L 785.97625 89.173125 
z
" style="fill: #9467bd"/>
    </g>
    <g id="text_36">
     <!-- 4 -->
     <g transform="translate(819.57625 97.573125) scale(0.12 -0.12)">
      <use xlink:href="#DejaVuSans-34"/>
     </g>
    </g>
    <g id="patch_223">
     <path d="M 785.97625 115.186875 
L 809.97625 115.186875 
L 809.97625 106.786875 
L 785.97625 106.786875 
z
" style="fill: #8c564b"/>
    </g>
    <g id="text_37">
     <!-- 5 -->
     <g transform="translate(819.57625 115.186875) scale(0.12 -0.12)">
      <use xlink:href="#DejaVuSans-35"/>
     </g>
    </g>
    <g id="patch_224">
     <path d="M 785.97625 132.800625 
L 809.97625 132.800625 
L 809.97625 124.400625 
L 785.97625 124.400625 
z
" style="fill: #e377c2"/>
    </g>
    <g id="text_38">
     <!-- 6 -->
     <g transform="translate(819.57625 132.800625) scale(0.12 -0.12)">
      <use xlink:href="#DejaVuSans-36"/>
     </g>
    </g>
    <g id="patch_225">
     <path d="M 785.97625 150.414375 
L 809.97625 150.414375 
L 809.97625 142.014375 
L 785.97625 142.014375 
z
" style="fill: #7f7f7f"/>
    </g>
    <g id="text_39">
     <!-- 7 -->
     <g transform="translate(819.57625 150.414375) scale(0.12 -0.12)">
      <use xlink:href="#DejaVuSans-37"/>
     </g>
    </g>
    <g id="patch_226">
     <path d="M 785.97625 168.028125 
L 809.97625 168.028125 
L 809.97625 159.628125 
L 785.97625 159.628125 
z
" style="fill: #bcbd22"/>
    </g>
    <g id="text_40">
     <!-- 8 -->
     <g transform="translate(819.57625 168.028125) scale(0.12 -0.12)">
      <use xlink:href="#DejaVuSans-38"/>
     </g>
    </g>
    <g id="patch_227">
     <path d="M 785.97625 185.641875 
L 809.97625 185.641875 
L 809.97625 177.241875 
L 785.97625 177.241875 
z
" style="fill: #17becf"/>
    </g>
    <g id="text_41">
     <!-- 9 -->
     <g transform="translate(819.57625 185.641875) scale(0.12 -0.12)">
      <use xlink:href="#DejaVuSans-39"/>
     </g>
    </g>
   </g>
  </g>
 </g>
 <defs>
  <clipPath id="p2591c880e8">
   <rect x="72.23125" y="7.2" width="765.78" height="501.54"/>
  </clipPath>
 </defs>
</svg>
