<?xml version="1.0" encoding="utf-8" standalone="no"?>
<!DOCTYPE svg PUBLIC "-//W3C//DTD SVG 1.1//EN"
  "http://www.w3.org/Graphics/SVG/1.1/DTD/svg11.dtd">
<svg xmlns:xlink="http://www.w3.org/1999/xlink" width="845.12125pt" height="557.600482pt" viewBox="0 0 845.12125 557.600482" xmlns="http://www.w3.org/2000/svg" version="1.1">
 <metadata>
  <rdf:RDF xmlns:dc="http://purl.org/dc/elements/1.1/" xmlns:cc="http://creativecommons.org/ns#" xmlns:rdf="http://www.w3.org/1999/02/22-rdf-syntax-ns#">
   <cc:Work>
    <dc:type rdf:resource="http://purl.org/dc/dcmitype/StillImage"/>
    <dc:date>2025-03-31T16:18:58.117190</dc:date>
    <dc:format>image/svg+xml</dc:format>
    <dc:creator>
     <cc:Agent>
      <dc:title>Matplotlib v3.7.5, https://matplotlib.org/</dc:title>
     </cc:Agent>
    </dc:creator>
   </cc:Work>
  </rdf:RDF>
 </metadata>
 <defs>
  <style type="text/css">*{stroke-linejoin: round; stroke-linecap: butt}</style>
 </defs>
 <g id="figure_1">
  <g id="patch_1">
   <path d="M 0 557.600482 
L 845.12125 557.600482 
L 845.12125 0 
L 0 0 
z
" style="fill: #ffffff"/>
  </g>
  <g id="axes_1">
   <g id="patch_2">
    <path d="M 72.23125 508.059232 
L 837.92125 508.059232 
L 837.92125 7.464443 
L 72.23125 7.464443 
z
" style="fill: #ffffff"/>
   </g>
   <g id="matplotlib.axis_1">
    <g id="xtick_1">
     <g id="line2d_1">
      <defs>
       <path id="m646dfa9a1e" d="M 0 0 
L 0 -3.5 
" style="stroke: #000000; stroke-width: 0.8"/>
      </defs>
      <g>
       <use xlink:href="#m646dfa9a1e" x="115.524144" y="508.059232" style="stroke: #000000; stroke-width: 0.8"/>
      </g>
     </g>
     <g id="text_1">
      <!-- 0 -->
      <g transform="translate(110.434144 523.716732) scale(0.16 -0.16)">
       <defs>
        <path id="DejaVuSans-30" d="M 2034 4250 
Q 1547 4250 1301 3770 
Q 1056 3291 1056 2328 
Q 1056 1369 1301 889 
Q 1547 409 2034 409 
Q 2525 409 2770 889 
Q 3016 1369 3016 2328 
Q 3016 3291 2770 3770 
Q 2525 4250 2034 4250 
z
M 2034 4750 
Q 2819 4750 3233 4129 
Q 3647 3509 3647 2328 
Q 3647 1150 3233 529 
Q 2819 -91 2034 -91 
Q 1250 -91 836 529 
Q 422 1150 422 2328 
Q 422 3509 836 4129 
Q 1250 4750 2034 4750 
z
" transform="scale(0.015625)"/>
       </defs>
       <use xlink:href="#DejaVuSans-30"/>
      </g>
     </g>
    </g>
    <g id="xtick_2">
     <g id="line2d_2">
      <g>
       <use xlink:href="#m646dfa9a1e" x="149.479354" y="508.059232" style="stroke: #000000; stroke-width: 0.8"/>
      </g>
     </g>
     <g id="text_2">
      <!-- 1 -->
      <g transform="translate(144.389354 523.716732) scale(0.16 -0.16)">
       <defs>
        <path id="DejaVuSans-31" d="M 794 531 
L 1825 531 
L 1825 4091 
L 703 3866 
L 703 4441 
L 1819 4666 
L 2450 4666 
L 2450 531 
L 3481 531 
L 3481 0 
L 794 0 
L 794 531 
z
" transform="scale(0.015625)"/>
       </defs>
       <use xlink:href="#DejaVuSans-31"/>
      </g>
     </g>
    </g>
    <g id="xtick_3">
     <g id="line2d_3">
      <g>
       <use xlink:href="#m646dfa9a1e" x="183.434565" y="508.059232" style="stroke: #000000; stroke-width: 0.8"/>
      </g>
     </g>
     <g id="text_3">
      <!-- 2 -->
      <g transform="translate(178.344565 523.716732) scale(0.16 -0.16)">
       <defs>
        <path id="DejaVuSans-32" d="M 1228 531 
L 3431 531 
L 3431 0 
L 469 0 
L 469 531 
Q 828 903 1448 1529 
Q 2069 2156 2228 2338 
Q 2531 2678 2651 2914 
Q 2772 3150 2772 3378 
Q 2772 3750 2511 3984 
Q 2250 4219 1831 4219 
Q 1534 4219 1204 4116 
Q 875 4013 500 3803 
L 500 4441 
Q 881 4594 1212 4672 
Q 1544 4750 1819 4750 
Q 2544 4750 2975 4387 
Q 3406 4025 3406 3419 
Q 3406 3131 3298 2873 
Q 3191 2616 2906 2266 
Q 2828 2175 2409 1742 
Q 1991 1309 1228 531 
z
" transform="scale(0.015625)"/>
       </defs>
       <use xlink:href="#DejaVuSans-32"/>
      </g>
     </g>
    </g>
    <g id="xtick_4">
     <g id="line2d_4">
      <g>
       <use xlink:href="#m646dfa9a1e" x="217.389775" y="508.059232" style="stroke: #000000; stroke-width: 0.8"/>
      </g>
     </g>
     <g id="text_4">
      <!-- 3 -->
      <g transform="translate(212.299775 523.716732) scale(0.16 -0.16)">
       <defs>
        <path id="DejaVuSans-33" d="M 2597 2516 
Q 3050 2419 3304 2112 
Q 3559 1806 3559 1356 
Q 3559 666 3084 287 
Q 2609 -91 1734 -91 
Q 1441 -91 1130 -33 
Q 819 25 488 141 
L 488 750 
Q 750 597 1062 519 
Q 1375 441 1716 441 
Q 2309 441 2620 675 
Q 2931 909 2931 1356 
Q 2931 1769 2642 2001 
Q 2353 2234 1838 2234 
L 1294 2234 
L 1294 2753 
L 1863 2753 
Q 2328 2753 2575 2939 
Q 2822 3125 2822 3475 
Q 2822 3834 2567 4026 
Q 2313 4219 1838 4219 
Q 1578 4219 1281 4162 
Q 984 4106 628 3988 
L 628 4550 
Q 988 4650 1302 4700 
Q 1616 4750 1894 4750 
Q 2613 4750 3031 4423 
Q 3450 4097 3450 3541 
Q 3450 3153 3228 2886 
Q 3006 2619 2597 2516 
z
" transform="scale(0.015625)"/>
       </defs>
       <use xlink:href="#DejaVuSans-33"/>
      </g>
     </g>
    </g>
    <g id="xtick_5">
     <g id="line2d_5">
      <g>
       <use xlink:href="#m646dfa9a1e" x="251.344986" y="508.059232" style="stroke: #000000; stroke-width: 0.8"/>
      </g>
     </g>
     <g id="text_5">
      <!-- 4 -->
      <g transform="translate(246.254986 523.716732) scale(0.16 -0.16)">
       <defs>
        <path id="DejaVuSans-34" d="M 2419 4116 
L 825 1625 
L 2419 1625 
L 2419 4116 
z
M 2253 4666 
L 3047 4666 
L 3047 1625 
L 3713 1625 
L 3713 1100 
L 3047 1100 
L 3047 0 
L 2419 0 
L 2419 1100 
L 313 1100 
L 313 1709 
L 2253 4666 
z
" transform="scale(0.015625)"/>
       </defs>
       <use xlink:href="#DejaVuSans-34"/>
      </g>
     </g>
    </g>
    <g id="xtick_6">
     <g id="line2d_6">
      <g>
       <use xlink:href="#m646dfa9a1e" x="285.300197" y="508.059232" style="stroke: #000000; stroke-width: 0.8"/>
      </g>
     </g>
     <g id="text_6">
      <!-- 5 -->
      <g transform="translate(280.210197 523.716732) scale(0.16 -0.16)">
       <defs>
        <path id="DejaVuSans-35" d="M 691 4666 
L 3169 4666 
L 3169 4134 
L 1269 4134 
L 1269 2991 
Q 1406 3038 1543 3061 
Q 1681 3084 1819 3084 
Q 2600 3084 3056 2656 
Q 3513 2228 3513 1497 
Q 3513 744 3044 326 
Q 2575 -91 1722 -91 
Q 1428 -91 1123 -41 
Q 819 9 494 109 
L 494 744 
Q 775 591 1075 516 
Q 1375 441 1709 441 
Q 2250 441 2565 725 
Q 2881 1009 2881 1497 
Q 2881 1984 2565 2268 
Q 2250 2553 1709 2553 
Q 1456 2553 1204 2497 
Q 953 2441 691 2322 
L 691 4666 
z
" transform="scale(0.015625)"/>
       </defs>
       <use xlink:href="#DejaVuSans-35"/>
      </g>
     </g>
    </g>
    <g id="xtick_7">
     <g id="line2d_7">
      <g>
       <use xlink:href="#m646dfa9a1e" x="319.255407" y="508.059232" style="stroke: #000000; stroke-width: 0.8"/>
      </g>
     </g>
     <g id="text_7">
      <!-- 6 -->
      <g transform="translate(314.165407 523.716732) scale(0.16 -0.16)">
       <defs>
        <path id="DejaVuSans-36" d="M 2113 2584 
Q 1688 2584 1439 2293 
Q 1191 2003 1191 1497 
Q 1191 994 1439 701 
Q 1688 409 2113 409 
Q 2538 409 2786 701 
Q 3034 994 3034 1497 
Q 3034 2003 2786 2293 
Q 2538 2584 2113 2584 
z
M 3366 4563 
L 3366 3988 
Q 3128 4100 2886 4159 
Q 2644 4219 2406 4219 
Q 1781 4219 1451 3797 
Q 1122 3375 1075 2522 
Q 1259 2794 1537 2939 
Q 1816 3084 2150 3084 
Q 2853 3084 3261 2657 
Q 3669 2231 3669 1497 
Q 3669 778 3244 343 
Q 2819 -91 2113 -91 
Q 1303 -91 875 529 
Q 447 1150 447 2328 
Q 447 3434 972 4092 
Q 1497 4750 2381 4750 
Q 2619 4750 2861 4703 
Q 3103 4656 3366 4563 
z
" transform="scale(0.015625)"/>
       </defs>
       <use xlink:href="#DejaVuSans-36"/>
      </g>
     </g>
    </g>
    <g id="xtick_8">
     <g id="line2d_8">
      <g>
       <use xlink:href="#m646dfa9a1e" x="353.210618" y="508.059232" style="stroke: #000000; stroke-width: 0.8"/>
      </g>
     </g>
     <g id="text_8">
      <!-- 7 -->
      <g transform="translate(348.120618 523.716732) scale(0.16 -0.16)">
       <defs>
        <path id="DejaVuSans-37" d="M 525 4666 
L 3525 4666 
L 3525 4397 
L 1831 0 
L 1172 0 
L 2766 4134 
L 525 4134 
L 525 4666 
z
" transform="scale(0.015625)"/>
       </defs>
       <use xlink:href="#DejaVuSans-37"/>
      </g>
     </g>
    </g>
    <g id="xtick_9">
     <g id="line2d_9">
      <g>
       <use xlink:href="#m646dfa9a1e" x="387.165829" y="508.059232" style="stroke: #000000; stroke-width: 0.8"/>
      </g>
     </g>
     <g id="text_9">
      <!-- 8 -->
      <g transform="translate(382.075829 523.716732) scale(0.16 -0.16)">
       <defs>
        <path id="DejaVuSans-38" d="M 2034 2216 
Q 1584 2216 1326 1975 
Q 1069 1734 1069 1313 
Q 1069 891 1326 650 
Q 1584 409 2034 409 
Q 2484 409 2743 651 
Q 3003 894 3003 1313 
Q 3003 1734 2745 1975 
Q 2488 2216 2034 2216 
z
M 1403 2484 
Q 997 2584 770 2862 
Q 544 3141 544 3541 
Q 544 4100 942 4425 
Q 1341 4750 2034 4750 
Q 2731 4750 3128 4425 
Q 3525 4100 3525 3541 
Q 3525 3141 3298 2862 
Q 3072 2584 2669 2484 
Q 3125 2378 3379 2068 
Q 3634 1759 3634 1313 
Q 3634 634 3220 271 
Q 2806 -91 2034 -91 
Q 1263 -91 848 271 
Q 434 634 434 1313 
Q 434 1759 690 2068 
Q 947 2378 1403 2484 
z
M 1172 3481 
Q 1172 3119 1398 2916 
Q 1625 2713 2034 2713 
Q 2441 2713 2670 2916 
Q 2900 3119 2900 3481 
Q 2900 3844 2670 4047 
Q 2441 4250 2034 4250 
Q 1625 4250 1398 4047 
Q 1172 3844 1172 3481 
z
" transform="scale(0.015625)"/>
       </defs>
       <use xlink:href="#DejaVuSans-38"/>
      </g>
     </g>
    </g>
    <g id="xtick_10">
     <g id="line2d_10">
      <g>
       <use xlink:href="#m646dfa9a1e" x="421.121039" y="508.059232" style="stroke: #000000; stroke-width: 0.8"/>
      </g>
     </g>
     <g id="text_10">
      <!-- 9 -->
      <g transform="translate(416.031039 523.716732) scale(0.16 -0.16)">
       <defs>
        <path id="DejaVuSans-39" d="M 703 97 
L 703 672 
Q 941 559 1184 500 
Q 1428 441 1663 441 
Q 2288 441 2617 861 
Q 2947 1281 2994 2138 
Q 2813 1869 2534 1725 
Q 2256 1581 1919 1581 
Q 1219 1581 811 2004 
Q 403 2428 403 3163 
Q 403 3881 828 4315 
Q 1253 4750 1959 4750 
Q 2769 4750 3195 4129 
Q 3622 3509 3622 2328 
Q 3622 1225 3098 567 
Q 2575 -91 1691 -91 
Q 1453 -91 1209 -44 
Q 966 3 703 97 
z
M 1959 2075 
Q 2384 2075 2632 2365 
Q 2881 2656 2881 3163 
Q 2881 3666 2632 3958 
Q 2384 4250 1959 4250 
Q 1534 4250 1286 3958 
Q 1038 3666 1038 3163 
Q 1038 2656 1286 2365 
Q 1534 2075 1959 2075 
z
" transform="scale(0.015625)"/>
       </defs>
       <use xlink:href="#DejaVuSans-39"/>
      </g>
     </g>
    </g>
    <g id="xtick_11">
     <g id="line2d_11">
      <g>
       <use xlink:href="#m646dfa9a1e" x="455.07625" y="508.059232" style="stroke: #000000; stroke-width: 0.8"/>
      </g>
     </g>
     <g id="text_11">
      <!-- 10 -->
      <g transform="translate(444.89625 523.716732) scale(0.16 -0.16)">
       <use xlink:href="#DejaVuSans-31"/>
       <use xlink:href="#DejaVuSans-30" x="63.623047"/>
      </g>
     </g>
    </g>
    <g id="xtick_12">
     <g id="line2d_12">
      <g>
       <use xlink:href="#m646dfa9a1e" x="489.031461" y="508.059232" style="stroke: #000000; stroke-width: 0.8"/>
      </g>
     </g>
     <g id="text_12">
      <!-- 11 -->
      <g transform="translate(478.851461 523.716732) scale(0.16 -0.16)">
       <use xlink:href="#DejaVuSans-31"/>
       <use xlink:href="#DejaVuSans-31" x="63.623047"/>
      </g>
     </g>
    </g>
    <g id="xtick_13">
     <g id="line2d_13">
      <g>
       <use xlink:href="#m646dfa9a1e" x="522.986671" y="508.059232" style="stroke: #000000; stroke-width: 0.8"/>
      </g>
     </g>
     <g id="text_13">
      <!-- 12 -->
      <g transform="translate(512.806671 523.716732) scale(0.16 -0.16)">
       <use xlink:href="#DejaVuSans-31"/>
       <use xlink:href="#DejaVuSans-32" x="63.623047"/>
      </g>
     </g>
    </g>
    <g id="xtick_14">
     <g id="line2d_14">
      <g>
       <use xlink:href="#m646dfa9a1e" x="556.941882" y="508.059232" style="stroke: #000000; stroke-width: 0.8"/>
      </g>
     </g>
     <g id="text_14">
      <!-- 13 -->
      <g transform="translate(546.761882 523.716732) scale(0.16 -0.16)">
       <use xlink:href="#DejaVuSans-31"/>
       <use xlink:href="#DejaVuSans-33" x="63.623047"/>
      </g>
     </g>
    </g>
    <g id="xtick_15">
     <g id="line2d_15">
      <g>
       <use xlink:href="#m646dfa9a1e" x="590.897093" y="508.059232" style="stroke: #000000; stroke-width: 0.8"/>
      </g>
     </g>
     <g id="text_15">
      <!-- 14 -->
      <g transform="translate(580.717093 523.716732) scale(0.16 -0.16)">
       <use xlink:href="#DejaVuSans-31"/>
       <use xlink:href="#DejaVuSans-34" x="63.623047"/>
      </g>
     </g>
    </g>
    <g id="xtick_16">
     <g id="line2d_16">
      <g>
       <use xlink:href="#m646dfa9a1e" x="624.852303" y="508.059232" style="stroke: #000000; stroke-width: 0.8"/>
      </g>
     </g>
     <g id="text_16">
      <!-- 15 -->
      <g transform="translate(614.672303 523.716732) scale(0.16 -0.16)">
       <use xlink:href="#DejaVuSans-31"/>
       <use xlink:href="#DejaVuSans-35" x="63.623047"/>
      </g>
     </g>
    </g>
    <g id="xtick_17">
     <g id="line2d_17">
      <g>
       <use xlink:href="#m646dfa9a1e" x="658.807514" y="508.059232" style="stroke: #000000; stroke-width: 0.8"/>
      </g>
     </g>
     <g id="text_17">
      <!-- 16 -->
      <g transform="translate(648.627514 523.716732) scale(0.16 -0.16)">
       <use xlink:href="#DejaVuSans-31"/>
       <use xlink:href="#DejaVuSans-36" x="63.623047"/>
      </g>
     </g>
    </g>
    <g id="xtick_18">
     <g id="line2d_18">
      <g>
       <use xlink:href="#m646dfa9a1e" x="692.762725" y="508.059232" style="stroke: #000000; stroke-width: 0.8"/>
      </g>
     </g>
     <g id="text_18">
      <!-- 17 -->
      <g transform="translate(682.582725 523.716732) scale(0.16 -0.16)">
       <use xlink:href="#DejaVuSans-31"/>
       <use xlink:href="#DejaVuSans-37" x="63.623047"/>
      </g>
     </g>
    </g>
    <g id="xtick_19">
     <g id="line2d_19">
      <g>
       <use xlink:href="#m646dfa9a1e" x="726.717935" y="508.059232" style="stroke: #000000; stroke-width: 0.8"/>
      </g>
     </g>
     <g id="text_19">
      <!-- 18 -->
      <g transform="translate(716.537935 523.716732) scale(0.16 -0.16)">
       <use xlink:href="#DejaVuSans-31"/>
       <use xlink:href="#DejaVuSans-38" x="63.623047"/>
      </g>
     </g>
    </g>
    <g id="xtick_20">
     <g id="line2d_20">
      <g>
       <use xlink:href="#m646dfa9a1e" x="760.673146" y="508.059232" style="stroke: #000000; stroke-width: 0.8"/>
      </g>
     </g>
     <g id="text_20">
      <!-- 19 -->
      <g transform="translate(750.493146 523.716732) scale(0.16 -0.16)">
       <use xlink:href="#DejaVuSans-31"/>
       <use xlink:href="#DejaVuSans-39" x="63.623047"/>
      </g>
     </g>
    </g>
    <g id="text_21">
     <!-- Client ID -->
     <g transform="translate(412.298125 546.241107) scale(0.2 -0.2)">
      <defs>
       <path id="DejaVuSans-43" d="M 4122 4306 
L 4122 3641 
Q 3803 3938 3442 4084 
Q 3081 4231 2675 4231 
Q 1875 4231 1450 3742 
Q 1025 3253 1025 2328 
Q 1025 1406 1450 917 
Q 1875 428 2675 428 
Q 3081 428 3442 575 
Q 3803 722 4122 1019 
L 4122 359 
Q 3791 134 3420 21 
Q 3050 -91 2638 -91 
Q 1578 -91 968 557 
Q 359 1206 359 2328 
Q 359 3453 968 4101 
Q 1578 4750 2638 4750 
Q 3056 4750 3426 4639 
Q 3797 4528 4122 4306 
z
" transform="scale(0.015625)"/>
       <path id="DejaVuSans-6c" d="M 603 4863 
L 1178 4863 
L 1178 0 
L 603 0 
L 603 4863 
z
" transform="scale(0.015625)"/>
       <path id="DejaVuSans-69" d="M 603 3500 
L 1178 3500 
L 1178 0 
L 603 0 
L 603 3500 
z
M 603 4863 
L 1178 4863 
L 1178 4134 
L 603 4134 
L 603 4863 
z
" transform="scale(0.015625)"/>
       <path id="DejaVuSans-65" d="M 3597 1894 
L 3597 1613 
L 953 1613 
Q 991 1019 1311 708 
Q 1631 397 2203 397 
Q 2534 397 2845 478 
Q 3156 559 3463 722 
L 3463 178 
Q 3153 47 2828 -22 
Q 2503 -91 2169 -91 
Q 1331 -91 842 396 
Q 353 884 353 1716 
Q 353 2575 817 3079 
Q 1281 3584 2069 3584 
Q 2775 3584 3186 3129 
Q 3597 2675 3597 1894 
z
M 3022 2063 
Q 3016 2534 2758 2815 
Q 2500 3097 2075 3097 
Q 1594 3097 1305 2825 
Q 1016 2553 972 2059 
L 3022 2063 
z
" transform="scale(0.015625)"/>
       <path id="DejaVuSans-6e" d="M 3513 2113 
L 3513 0 
L 2938 0 
L 2938 2094 
Q 2938 2591 2744 2837 
Q 2550 3084 2163 3084 
Q 1697 3084 1428 2787 
Q 1159 2491 1159 1978 
L 1159 0 
L 581 0 
L 581 3500 
L 1159 3500 
L 1159 2956 
Q 1366 3272 1645 3428 
Q 1925 3584 2291 3584 
Q 2894 3584 3203 3211 
Q 3513 2838 3513 2113 
z
" transform="scale(0.015625)"/>
       <path id="DejaVuSans-74" d="M 1172 4494 
L 1172 3500 
L 2356 3500 
L 2356 3053 
L 1172 3053 
L 1172 1153 
Q 1172 725 1289 603 
Q 1406 481 1766 481 
L 2356 481 
L 2356 0 
L 1766 0 
Q 1100 0 847 248 
Q 594 497 594 1153 
L 594 3053 
L 172 3053 
L 172 3500 
L 594 3500 
L 594 4494 
L 1172 4494 
z
" transform="scale(0.015625)"/>
       <path id="DejaVuSans-20" transform="scale(0.015625)"/>
       <path id="DejaVuSans-49" d="M 628 4666 
L 1259 4666 
L 1259 0 
L 628 0 
L 628 4666 
z
" transform="scale(0.015625)"/>
       <path id="DejaVuSans-44" d="M 1259 4147 
L 1259 519 
L 2022 519 
Q 2988 519 3436 956 
Q 3884 1394 3884 2338 
Q 3884 3275 3436 3711 
Q 2988 4147 2022 4147 
L 1259 4147 
z
M 628 4666 
L 1925 4666 
Q 3281 4666 3915 4102 
Q 4550 3538 4550 2338 
Q 4550 1131 3912 565 
Q 3275 0 1925 0 
L 628 0 
L 628 4666 
z
" transform="scale(0.015625)"/>
      </defs>
      <use xlink:href="#DejaVuSans-43"/>
      <use xlink:href="#DejaVuSans-6c" x="69.824219"/>
      <use xlink:href="#DejaVuSans-69" x="97.607422"/>
      <use xlink:href="#DejaVuSans-65" x="125.390625"/>
      <use xlink:href="#DejaVuSans-6e" x="186.914062"/>
      <use xlink:href="#DejaVuSans-74" x="250.292969"/>
      <use xlink:href="#DejaVuSans-20" x="289.501953"/>
      <use xlink:href="#DejaVuSans-49" x="321.289062"/>
      <use xlink:href="#DejaVuSans-44" x="350.78125"/>
     </g>
    </g>
   </g>
   <g id="matplotlib.axis_2">
    <g id="ytick_1">
     <g id="line2d_21">
      <path d="M 72.23125 508.059232 
L 837.92125 508.059232 
" clip-path="url(#pdf83efd4e1)" style="fill: none; stroke-dasharray: 2.96,1.28; stroke-dashoffset: 0; stroke: #b0b0b0; stroke-width: 0.8"/>
     </g>
     <g id="line2d_22">
      <defs>
       <path id="ma54eea36c6" d="M 0 0 
L 3.5 0 
" style="stroke: #000000; stroke-width: 0.8"/>
      </defs>
      <g>
       <use xlink:href="#ma54eea36c6" x="72.23125" y="508.059232" style="stroke: #000000; stroke-width: 0.8"/>
      </g>
     </g>
     <g id="text_22">
      <!-- 0 -->
      <g transform="translate(59.1875 513.75806) scale(0.15 -0.15)">
       <use xlink:href="#DejaVuSans-30"/>
      </g>
     </g>
    </g>
    <g id="ytick_2">
     <g id="line2d_23">
      <path d="M 72.23125 425.532498 
L 837.92125 425.532498 
" clip-path="url(#pdf83efd4e1)" style="fill: none; stroke-dasharray: 2.96,1.28; stroke-dashoffset: 0; stroke: #b0b0b0; stroke-width: 0.8"/>
     </g>
     <g id="line2d_24">
      <g>
       <use xlink:href="#ma54eea36c6" x="72.23125" y="425.532498" style="stroke: #000000; stroke-width: 0.8"/>
      </g>
     </g>
     <g id="text_23">
      <!-- 1000 -->
      <g transform="translate(30.55625 431.231326) scale(0.15 -0.15)">
       <use xlink:href="#DejaVuSans-31"/>
       <use xlink:href="#DejaVuSans-30" x="63.623047"/>
       <use xlink:href="#DejaVuSans-30" x="127.246094"/>
       <use xlink:href="#DejaVuSans-30" x="190.869141"/>
      </g>
     </g>
    </g>
    <g id="ytick_3">
     <g id="line2d_25">
      <path d="M 72.23125 343.005764 
L 837.92125 343.005764 
" clip-path="url(#pdf83efd4e1)" style="fill: none; stroke-dasharray: 2.96,1.28; stroke-dashoffset: 0; stroke: #b0b0b0; stroke-width: 0.8"/>
     </g>
     <g id="line2d_26">
      <g>
       <use xlink:href="#ma54eea36c6" x="72.23125" y="343.005764" style="stroke: #000000; stroke-width: 0.8"/>
      </g>
     </g>
     <g id="text_24">
      <!-- 2000 -->
      <g transform="translate(30.55625 348.704592) scale(0.15 -0.15)">
       <use xlink:href="#DejaVuSans-32"/>
       <use xlink:href="#DejaVuSans-30" x="63.623047"/>
       <use xlink:href="#DejaVuSans-30" x="127.246094"/>
       <use xlink:href="#DejaVuSans-30" x="190.869141"/>
      </g>
     </g>
    </g>
    <g id="ytick_4">
     <g id="line2d_27">
      <path d="M 72.23125 260.47903 
L 837.92125 260.47903 
" clip-path="url(#pdf83efd4e1)" style="fill: none; stroke-dasharray: 2.96,1.28; stroke-dashoffset: 0; stroke: #b0b0b0; stroke-width: 0.8"/>
     </g>
     <g id="line2d_28">
      <g>
       <use xlink:href="#ma54eea36c6" x="72.23125" y="260.47903" style="stroke: #000000; stroke-width: 0.8"/>
      </g>
     </g>
     <g id="text_25">
      <!-- 3000 -->
      <g transform="translate(30.55625 266.177858) scale(0.15 -0.15)">
       <use xlink:href="#DejaVuSans-33"/>
       <use xlink:href="#DejaVuSans-30" x="63.623047"/>
       <use xlink:href="#DejaVuSans-30" x="127.246094"/>
       <use xlink:href="#DejaVuSans-30" x="190.869141"/>
      </g>
     </g>
    </g>
    <g id="ytick_5">
     <g id="line2d_29">
      <path d="M 72.23125 177.952296 
L 837.92125 177.952296 
" clip-path="url(#pdf83efd4e1)" style="fill: none; stroke-dasharray: 2.96,1.28; stroke-dashoffset: 0; stroke: #b0b0b0; stroke-width: 0.8"/>
     </g>
     <g id="line2d_30">
      <g>
       <use xlink:href="#ma54eea36c6" x="72.23125" y="177.952296" style="stroke: #000000; stroke-width: 0.8"/>
      </g>
     </g>
     <g id="text_26">
      <!-- 4000 -->
      <g transform="translate(30.55625 183.651124) scale(0.15 -0.15)">
       <use xlink:href="#DejaVuSans-34"/>
       <use xlink:href="#DejaVuSans-30" x="63.623047"/>
       <use xlink:href="#DejaVuSans-30" x="127.246094"/>
       <use xlink:href="#DejaVuSans-30" x="190.869141"/>
      </g>
     </g>
    </g>
    <g id="ytick_6">
     <g id="line2d_31">
      <path d="M 72.23125 95.425562 
L 837.92125 95.425562 
" clip-path="url(#pdf83efd4e1)" style="fill: none; stroke-dasharray: 2.96,1.28; stroke-dashoffset: 0; stroke: #b0b0b0; stroke-width: 0.8"/>
     </g>
     <g id="line2d_32">
      <g>
       <use xlink:href="#ma54eea36c6" x="72.23125" y="95.425562" style="stroke: #000000; stroke-width: 0.8"/>
      </g>
     </g>
     <g id="text_27">
      <!-- 5000 -->
      <g transform="translate(30.55625 101.12439) scale(0.15 -0.15)">
       <use xlink:href="#DejaVuSans-35"/>
       <use xlink:href="#DejaVuSans-30" x="63.623047"/>
       <use xlink:href="#DejaVuSans-30" x="127.246094"/>
       <use xlink:href="#DejaVuSans-30" x="190.869141"/>
      </g>
     </g>
    </g>
    <g id="ytick_7">
     <g id="line2d_33">
      <path d="M 72.23125 12.898828 
L 837.92125 12.898828 
" clip-path="url(#pdf83efd4e1)" style="fill: none; stroke-dasharray: 2.96,1.28; stroke-dashoffset: 0; stroke: #b0b0b0; stroke-width: 0.8"/>
     </g>
     <g id="line2d_34">
      <g>
       <use xlink:href="#ma54eea36c6" x="72.23125" y="12.898828" style="stroke: #000000; stroke-width: 0.8"/>
      </g>
     </g>
     <g id="text_28">
      <!-- 6000 -->
      <g transform="translate(30.55625 18.597656) scale(0.15 -0.15)">
       <use xlink:href="#DejaVuSans-36"/>
       <use xlink:href="#DejaVuSans-30" x="63.623047"/>
       <use xlink:href="#DejaVuSans-30" x="127.246094"/>
       <use xlink:href="#DejaVuSans-30" x="190.869141"/>
      </g>
     </g>
    </g>
    <g id="text_29">
     <!-- Number of Training Samples -->
     <g transform="translate(22.396875 399.264963) rotate(-90) scale(0.2 -0.2)">
      <defs>
       <path id="DejaVuSans-4e" d="M 628 4666 
L 1478 4666 
L 3547 763 
L 3547 4666 
L 4159 4666 
L 4159 0 
L 3309 0 
L 1241 3903 
L 1241 0 
L 628 0 
L 628 4666 
z
" transform="scale(0.015625)"/>
       <path id="DejaVuSans-75" d="M 544 1381 
L 544 3500 
L 1119 3500 
L 1119 1403 
Q 1119 906 1312 657 
Q 1506 409 1894 409 
Q 2359 409 2629 706 
Q 2900 1003 2900 1516 
L 2900 3500 
L 3475 3500 
L 3475 0 
L 2900 0 
L 2900 538 
Q 2691 219 2414 64 
Q 2138 -91 1772 -91 
Q 1169 -91 856 284 
Q 544 659 544 1381 
z
M 1991 3584 
L 1991 3584 
z
" transform="scale(0.015625)"/>
       <path id="DejaVuSans-6d" d="M 3328 2828 
Q 3544 3216 3844 3400 
Q 4144 3584 4550 3584 
Q 5097 3584 5394 3201 
Q 5691 2819 5691 2113 
L 5691 0 
L 5113 0 
L 5113 2094 
Q 5113 2597 4934 2840 
Q 4756 3084 4391 3084 
Q 3944 3084 3684 2787 
Q 3425 2491 3425 1978 
L 3425 0 
L 2847 0 
L 2847 2094 
Q 2847 2600 2669 2842 
Q 2491 3084 2119 3084 
Q 1678 3084 1418 2786 
Q 1159 2488 1159 1978 
L 1159 0 
L 581 0 
L 581 3500 
L 1159 3500 
L 1159 2956 
Q 1356 3278 1631 3431 
Q 1906 3584 2284 3584 
Q 2666 3584 2933 3390 
Q 3200 3197 3328 2828 
z
" transform="scale(0.015625)"/>
       <path id="DejaVuSans-62" d="M 3116 1747 
Q 3116 2381 2855 2742 
Q 2594 3103 2138 3103 
Q 1681 3103 1420 2742 
Q 1159 2381 1159 1747 
Q 1159 1113 1420 752 
Q 1681 391 2138 391 
Q 2594 391 2855 752 
Q 3116 1113 3116 1747 
z
M 1159 2969 
Q 1341 3281 1617 3432 
Q 1894 3584 2278 3584 
Q 2916 3584 3314 3078 
Q 3713 2572 3713 1747 
Q 3713 922 3314 415 
Q 2916 -91 2278 -91 
Q 1894 -91 1617 61 
Q 1341 213 1159 525 
L 1159 0 
L 581 0 
L 581 4863 
L 1159 4863 
L 1159 2969 
z
" transform="scale(0.015625)"/>
       <path id="DejaVuSans-72" d="M 2631 2963 
Q 2534 3019 2420 3045 
Q 2306 3072 2169 3072 
Q 1681 3072 1420 2755 
Q 1159 2438 1159 1844 
L 1159 0 
L 581 0 
L 581 3500 
L 1159 3500 
L 1159 2956 
Q 1341 3275 1631 3429 
Q 1922 3584 2338 3584 
Q 2397 3584 2469 3576 
Q 2541 3569 2628 3553 
L 2631 2963 
z
" transform="scale(0.015625)"/>
       <path id="DejaVuSans-6f" d="M 1959 3097 
Q 1497 3097 1228 2736 
Q 959 2375 959 1747 
Q 959 1119 1226 758 
Q 1494 397 1959 397 
Q 2419 397 2687 759 
Q 2956 1122 2956 1747 
Q 2956 2369 2687 2733 
Q 2419 3097 1959 3097 
z
M 1959 3584 
Q 2709 3584 3137 3096 
Q 3566 2609 3566 1747 
Q 3566 888 3137 398 
Q 2709 -91 1959 -91 
Q 1206 -91 779 398 
Q 353 888 353 1747 
Q 353 2609 779 3096 
Q 1206 3584 1959 3584 
z
" transform="scale(0.015625)"/>
       <path id="DejaVuSans-66" d="M 2375 4863 
L 2375 4384 
L 1825 4384 
Q 1516 4384 1395 4259 
Q 1275 4134 1275 3809 
L 1275 3500 
L 2222 3500 
L 2222 3053 
L 1275 3053 
L 1275 0 
L 697 0 
L 697 3053 
L 147 3053 
L 147 3500 
L 697 3500 
L 697 3744 
Q 697 4328 969 4595 
Q 1241 4863 1831 4863 
L 2375 4863 
z
" transform="scale(0.015625)"/>
       <path id="DejaVuSans-54" d="M -19 4666 
L 3928 4666 
L 3928 4134 
L 2272 4134 
L 2272 0 
L 1638 0 
L 1638 4134 
L -19 4134 
L -19 4666 
z
" transform="scale(0.015625)"/>
       <path id="DejaVuSans-61" d="M 2194 1759 
Q 1497 1759 1228 1600 
Q 959 1441 959 1056 
Q 959 750 1161 570 
Q 1363 391 1709 391 
Q 2188 391 2477 730 
Q 2766 1069 2766 1631 
L 2766 1759 
L 2194 1759 
z
M 3341 1997 
L 3341 0 
L 2766 0 
L 2766 531 
Q 2569 213 2275 61 
Q 1981 -91 1556 -91 
Q 1019 -91 701 211 
Q 384 513 384 1019 
Q 384 1609 779 1909 
Q 1175 2209 1959 2209 
L 2766 2209 
L 2766 2266 
Q 2766 2663 2505 2880 
Q 2244 3097 1772 3097 
Q 1472 3097 1187 3025 
Q 903 2953 641 2809 
L 641 3341 
Q 956 3463 1253 3523 
Q 1550 3584 1831 3584 
Q 2591 3584 2966 3190 
Q 3341 2797 3341 1997 
z
" transform="scale(0.015625)"/>
       <path id="DejaVuSans-67" d="M 2906 1791 
Q 2906 2416 2648 2759 
Q 2391 3103 1925 3103 
Q 1463 3103 1205 2759 
Q 947 2416 947 1791 
Q 947 1169 1205 825 
Q 1463 481 1925 481 
Q 2391 481 2648 825 
Q 2906 1169 2906 1791 
z
M 3481 434 
Q 3481 -459 3084 -895 
Q 2688 -1331 1869 -1331 
Q 1566 -1331 1297 -1286 
Q 1028 -1241 775 -1147 
L 775 -588 
Q 1028 -725 1275 -790 
Q 1522 -856 1778 -856 
Q 2344 -856 2625 -561 
Q 2906 -266 2906 331 
L 2906 616 
Q 2728 306 2450 153 
Q 2172 0 1784 0 
Q 1141 0 747 490 
Q 353 981 353 1791 
Q 353 2603 747 3093 
Q 1141 3584 1784 3584 
Q 2172 3584 2450 3431 
Q 2728 3278 2906 2969 
L 2906 3500 
L 3481 3500 
L 3481 434 
z
" transform="scale(0.015625)"/>
       <path id="DejaVuSans-53" d="M 3425 4513 
L 3425 3897 
Q 3066 4069 2747 4153 
Q 2428 4238 2131 4238 
Q 1616 4238 1336 4038 
Q 1056 3838 1056 3469 
Q 1056 3159 1242 3001 
Q 1428 2844 1947 2747 
L 2328 2669 
Q 3034 2534 3370 2195 
Q 3706 1856 3706 1288 
Q 3706 609 3251 259 
Q 2797 -91 1919 -91 
Q 1588 -91 1214 -16 
Q 841 59 441 206 
L 441 856 
Q 825 641 1194 531 
Q 1563 422 1919 422 
Q 2459 422 2753 634 
Q 3047 847 3047 1241 
Q 3047 1584 2836 1778 
Q 2625 1972 2144 2069 
L 1759 2144 
Q 1053 2284 737 2584 
Q 422 2884 422 3419 
Q 422 4038 858 4394 
Q 1294 4750 2059 4750 
Q 2388 4750 2728 4690 
Q 3069 4631 3425 4513 
z
" transform="scale(0.015625)"/>
       <path id="DejaVuSans-70" d="M 1159 525 
L 1159 -1331 
L 581 -1331 
L 581 3500 
L 1159 3500 
L 1159 2969 
Q 1341 3281 1617 3432 
Q 1894 3584 2278 3584 
Q 2916 3584 3314 3078 
Q 3713 2572 3713 1747 
Q 3713 922 3314 415 
Q 2916 -91 2278 -91 
Q 1894 -91 1617 61 
Q 1341 213 1159 525 
z
M 3116 1747 
Q 3116 2381 2855 2742 
Q 2594 3103 2138 3103 
Q 1681 3103 1420 2742 
Q 1159 2381 1159 1747 
Q 1159 1113 1420 752 
Q 1681 391 2138 391 
Q 2594 391 2855 752 
Q 3116 1113 3116 1747 
z
" transform="scale(0.015625)"/>
       <path id="DejaVuSans-73" d="M 2834 3397 
L 2834 2853 
Q 2591 2978 2328 3040 
Q 2066 3103 1784 3103 
Q 1356 3103 1142 2972 
Q 928 2841 928 2578 
Q 928 2378 1081 2264 
Q 1234 2150 1697 2047 
L 1894 2003 
Q 2506 1872 2764 1633 
Q 3022 1394 3022 966 
Q 3022 478 2636 193 
Q 2250 -91 1575 -91 
Q 1294 -91 989 -36 
Q 684 19 347 128 
L 347 722 
Q 666 556 975 473 
Q 1284 391 1588 391 
Q 1994 391 2212 530 
Q 2431 669 2431 922 
Q 2431 1156 2273 1281 
Q 2116 1406 1581 1522 
L 1381 1569 
Q 847 1681 609 1914 
Q 372 2147 372 2553 
Q 372 3047 722 3315 
Q 1072 3584 1716 3584 
Q 2034 3584 2315 3537 
Q 2597 3491 2834 3397 
z
" transform="scale(0.015625)"/>
      </defs>
      <use xlink:href="#DejaVuSans-4e"/>
      <use xlink:href="#DejaVuSans-75" x="74.804688"/>
      <use xlink:href="#DejaVuSans-6d" x="138.183594"/>
      <use xlink:href="#DejaVuSans-62" x="235.595703"/>
      <use xlink:href="#DejaVuSans-65" x="299.072266"/>
      <use xlink:href="#DejaVuSans-72" x="360.595703"/>
      <use xlink:href="#DejaVuSans-20" x="401.708984"/>
      <use xlink:href="#DejaVuSans-6f" x="433.496094"/>
      <use xlink:href="#DejaVuSans-66" x="494.677734"/>
      <use xlink:href="#DejaVuSans-20" x="529.882812"/>
      <use xlink:href="#DejaVuSans-54" x="561.669922"/>
      <use xlink:href="#DejaVuSans-72" x="608.003906"/>
      <use xlink:href="#DejaVuSans-61" x="649.117188"/>
      <use xlink:href="#DejaVuSans-69" x="710.396484"/>
      <use xlink:href="#DejaVuSans-6e" x="738.179688"/>
      <use xlink:href="#DejaVuSans-69" x="801.558594"/>
      <use xlink:href="#DejaVuSans-6e" x="829.341797"/>
      <use xlink:href="#DejaVuSans-67" x="892.720703"/>
      <use xlink:href="#DejaVuSans-20" x="956.197266"/>
      <use xlink:href="#DejaVuSans-53" x="987.984375"/>
      <use xlink:href="#DejaVuSans-61" x="1051.460938"/>
      <use xlink:href="#DejaVuSans-6d" x="1112.740234"/>
      <use xlink:href="#DejaVuSans-70" x="1210.152344"/>
      <use xlink:href="#DejaVuSans-6c" x="1273.628906"/>
      <use xlink:href="#DejaVuSans-65" x="1301.412109"/>
      <use xlink:href="#DejaVuSans-73" x="1362.935547"/>
     </g>
    </g>
   </g>
   <g id="patch_3">
    <path d="M 72.23125 508.059232 
L 72.23125 7.464443 
" style="fill: none; stroke: #000000; stroke-width: 0.8; stroke-linejoin: miter; stroke-linecap: square"/>
   </g>
   <g id="patch_4">
    <path d="M 837.92125 508.059232 
L 837.92125 7.464443 
" style="fill: none; stroke: #000000; stroke-width: 0.8; stroke-linejoin: miter; stroke-linecap: square"/>
   </g>
   <g id="patch_5">
    <path d="M 72.23125 508.059232 
L 837.92125 508.059232 
" style="fill: none; stroke: #000000; stroke-width: 0.8; stroke-linejoin: miter; stroke-linecap: square"/>
   </g>
   <g id="patch_6">
    <path d="M 72.23125 7.464443 
L 837.92125 7.464443 
" style="fill: none; stroke: #000000; stroke-width: 0.8; stroke-linejoin: miter; stroke-linecap: square"/>
   </g>
   <g id="patch_7">
    <path d="M 107.035341 508.059232 
L 124.012946 508.059232 
L 124.012946 383.03123 
L 107.035341 383.03123 
z
" clip-path="url(#pdf83efd4e1)" style="fill: #1f77b4"/>
   </g>
   <g id="patch_8">
    <path d="M 140.990552 508.059232 
L 157.968157 508.059232 
L 157.968157 364.792822 
L 140.990552 364.792822 
z
" clip-path="url(#pdf83efd4e1)" style="fill: #1f77b4"/>
   </g>
   <g id="patch_9">
    <path d="M 174.945762 508.059232 
L 191.923368 508.059232 
L 191.923368 507.646599 
L 174.945762 507.646599 
z
" clip-path="url(#pdf83efd4e1)" style="fill: #1f77b4"/>
   </g>
   <g id="patch_10">
    <path d="M 208.900973 508.059232 
L 225.878578 508.059232 
L 225.878578 487.510076 
L 208.900973 487.510076 
z
" clip-path="url(#pdf83efd4e1)" style="fill: #1f77b4"/>
   </g>
   <g id="patch_11">
    <path d="M 242.856183 508.059232 
L 259.833789 508.059232 
L 259.833789 472.407683 
L 242.856183 472.407683 
z
" clip-path="url(#pdf83efd4e1)" style="fill: #1f77b4"/>
   </g>
   <g id="patch_12">
    <path d="M 276.811394 508.059232 
L 293.788999 508.059232 
L 293.788999 507.894179 
L 276.811394 507.894179 
z
" clip-path="url(#pdf83efd4e1)" style="fill: #1f77b4"/>
   </g>
   <g id="patch_13">
    <path d="M 310.766605 508.059232 
L 327.74421 508.059232 
L 327.74421 508.059232 
L 310.766605 508.059232 
z
" clip-path="url(#pdf83efd4e1)" style="fill: #1f77b4"/>
   </g>
   <g id="patch_14">
    <path d="M 344.721815 508.059232 
L 361.699421 508.059232 
L 361.699421 508.059232 
L 344.721815 508.059232 
z
" clip-path="url(#pdf83efd4e1)" style="fill: #1f77b4"/>
   </g>
   <g id="patch_15">
    <path d="M 378.677026 508.059232 
L 395.654631 508.059232 
L 395.654631 505.253323 
L 378.677026 505.253323 
z
" clip-path="url(#pdf83efd4e1)" style="fill: #1f77b4"/>
   </g>
   <g id="patch_16">
    <path d="M 412.632237 508.059232 
L 429.609842 508.059232 
L 429.609842 486.684808 
L 412.632237 486.684808 
z
" clip-path="url(#pdf83efd4e1)" style="fill: #1f77b4"/>
   </g>
   <g id="patch_17">
    <path d="M 446.587447 508.059232 
L 463.565053 508.059232 
L 463.565053 507.976706 
L 446.587447 507.976706 
z
" clip-path="url(#pdf83efd4e1)" style="fill: #1f77b4"/>
   </g>
   <g id="patch_18">
    <path d="M 480.542658 508.059232 
L 497.520263 508.059232 
L 497.520263 499.889086 
L 480.542658 499.889086 
z
" clip-path="url(#pdf83efd4e1)" style="fill: #1f77b4"/>
   </g>
   <g id="patch_19">
    <path d="M 514.497869 508.059232 
L 531.475474 508.059232 
L 531.475474 492.049046 
L 514.497869 492.049046 
z
" clip-path="url(#pdf83efd4e1)" style="fill: #1f77b4"/>
   </g>
   <g id="patch_20">
    <path d="M 548.453079 508.059232 
L 565.430685 508.059232 
L 565.430685 502.694995 
L 548.453079 502.694995 
z
" clip-path="url(#pdf83efd4e1)" style="fill: #1f77b4"/>
   </g>
   <g id="patch_21">
    <path d="M 582.40829 508.059232 
L 599.385895 508.059232 
L 599.385895 503.025102 
L 582.40829 503.025102 
z
" clip-path="url(#pdf83efd4e1)" style="fill: #1f77b4"/>
   </g>
   <g id="patch_22">
    <path d="M 616.363501 508.059232 
L 633.341106 508.059232 
L 633.341106 507.976706 
L 616.363501 507.976706 
z
" clip-path="url(#pdf83efd4e1)" style="fill: #1f77b4"/>
   </g>
   <g id="patch_23">
    <path d="M 650.318711 508.059232 
L 667.296317 508.059232 
L 667.296317 502.860048 
L 650.318711 502.860048 
z
" clip-path="url(#pdf83efd4e1)" style="fill: #1f77b4"/>
   </g>
   <g id="patch_24">
    <path d="M 684.273922 508.059232 
L 701.251527 508.059232 
L 701.251527 505.913537 
L 684.273922 505.913537 
z
" clip-path="url(#pdf83efd4e1)" style="fill: #1f77b4"/>
   </g>
   <g id="patch_25">
    <path d="M 718.229132 508.059232 
L 735.206738 508.059232 
L 735.206738 505.996064 
L 718.229132 505.996064 
z
" clip-path="url(#pdf83efd4e1)" style="fill: #1f77b4"/>
   </g>
   <g id="patch_26">
    <path d="M 752.184343 508.059232 
L 769.161948 508.059232 
L 769.161948 488.830503 
L 752.184343 488.830503 
z
" clip-path="url(#pdf83efd4e1)" style="fill: #1f77b4"/>
   </g>
   <g id="patch_27">
    <path d="M 786.139554 508.059232 
L 803.117159 508.059232 
L 803.117159 508.059232 
L 786.139554 508.059232 
z
" clip-path="url(#pdf83efd4e1)" style="fill: #1f77b4"/>
   </g>
   <g id="patch_28">
    <path d="M 107.035341 383.03123 
L 124.012946 383.03123 
L 124.012946 380.720482 
L 107.035341 380.720482 
z
" clip-path="url(#pdf83efd4e1)" style="fill: #ff7f0e"/>
   </g>
   <g id="patch_29">
    <path d="M 140.990552 364.792822 
L 157.968157 364.792822 
L 157.968157 347.132101 
L 140.990552 347.132101 
z
" clip-path="url(#pdf83efd4e1)" style="fill: #ff7f0e"/>
   </g>
   <g id="patch_30">
    <path d="M 174.945762 507.646599 
L 191.923368 507.646599 
L 191.923368 498.981292 
L 174.945762 498.981292 
z
" clip-path="url(#pdf83efd4e1)" style="fill: #ff7f0e"/>
   </g>
   <g id="patch_31">
    <path d="M 208.900973 487.510076 
L 225.878578 487.510076 
L 225.878578 422.231429 
L 208.900973 422.231429 
z
" clip-path="url(#pdf83efd4e1)" style="fill: #ff7f0e"/>
   </g>
   <g id="patch_32">
    <path d="M 242.856183 472.407683 
L 259.833789 472.407683 
L 259.833789 466.383232 
L 242.856183 466.383232 
z
" clip-path="url(#pdf83efd4e1)" style="fill: #ff7f0e"/>
   </g>
   <g id="patch_33">
    <path d="M 276.811394 507.894179 
L 293.788999 507.894179 
L 293.788999 425.284918 
L 276.811394 425.284918 
z
" clip-path="url(#pdf83efd4e1)" style="fill: #ff7f0e"/>
   </g>
   <g id="patch_34">
    <path d="M 310.766605 508.059232 
L 327.74421 508.059232 
L 327.74421 469.106614 
L 310.766605 469.106614 
z
" clip-path="url(#pdf83efd4e1)" style="fill: #ff7f0e"/>
   </g>
   <g id="patch_35">
    <path d="M 344.721815 508.059232 
L 361.699421 508.059232 
L 361.699421 436.673607 
L 344.721815 436.673607 
z
" clip-path="url(#pdf83efd4e1)" style="fill: #ff7f0e"/>
   </g>
   <g id="patch_36">
    <path d="M 378.677026 505.253323 
L 395.654631 505.253323 
L 395.654631 503.767842 
L 378.677026 503.767842 
z
" clip-path="url(#pdf83efd4e1)" style="fill: #ff7f0e"/>
   </g>
   <g id="patch_37">
    <path d="M 412.632237 486.684808 
L 429.609842 486.684808 
L 429.609842 443.275746 
L 412.632237 443.275746 
z
" clip-path="url(#pdf83efd4e1)" style="fill: #ff7f0e"/>
   </g>
   <g id="patch_38">
    <path d="M 446.587447 507.976706 
L 463.565053 507.976706 
L 463.565053 496.918123 
L 446.587447 496.918123 
z
" clip-path="url(#pdf83efd4e1)" style="fill: #ff7f0e"/>
   </g>
   <g id="patch_39">
    <path d="M 480.542658 499.889086 
L 497.520263 499.889086 
L 497.520263 477.771921 
L 480.542658 477.771921 
z
" clip-path="url(#pdf83efd4e1)" style="fill: #ff7f0e"/>
   </g>
   <g id="patch_40">
    <path d="M 514.497869 492.049046 
L 531.475474 492.049046 
L 531.475474 485.281854 
L 514.497869 485.281854 
z
" clip-path="url(#pdf83efd4e1)" style="fill: #ff7f0e"/>
   </g>
   <g id="patch_41">
    <path d="M 548.453079 502.694995 
L 565.430685 502.694995 
L 565.430685 502.694995 
L 548.453079 502.694995 
z
" clip-path="url(#pdf83efd4e1)" style="fill: #ff7f0e"/>
   </g>
   <g id="patch_42">
    <path d="M 582.40829 503.025102 
L 599.385895 503.025102 
L 599.385895 502.942575 
L 582.40829 502.942575 
z
" clip-path="url(#pdf83efd4e1)" style="fill: #ff7f0e"/>
   </g>
   <g id="patch_43">
    <path d="M 616.363501 507.976706 
L 633.341106 507.976706 
L 633.341106 505.831011 
L 616.363501 505.831011 
z
" clip-path="url(#pdf83efd4e1)" style="fill: #ff7f0e"/>
   </g>
   <g id="patch_44">
    <path d="M 650.318711 502.860048 
L 667.296317 502.860048 
L 667.296317 502.860048 
L 650.318711 502.860048 
z
" clip-path="url(#pdf83efd4e1)" style="fill: #ff7f0e"/>
   </g>
   <g id="patch_45">
    <path d="M 684.273922 505.913537 
L 701.251527 505.913537 
L 701.251527 488.500396 
L 684.273922 488.500396 
z
" clip-path="url(#pdf83efd4e1)" style="fill: #ff7f0e"/>
   </g>
   <g id="patch_46">
    <path d="M 718.229132 505.996064 
L 735.206738 505.996064 
L 735.206738 496.422963 
L 718.229132 496.422963 
z
" clip-path="url(#pdf83efd4e1)" style="fill: #ff7f0e"/>
   </g>
   <g id="patch_47">
    <path d="M 752.184343 488.830503 
L 769.161948 488.830503 
L 769.161948 483.136159 
L 752.184343 483.136159 
z
" clip-path="url(#pdf83efd4e1)" style="fill: #ff7f0e"/>
   </g>
   <g id="patch_48">
    <path d="M 786.139554 508.059232 
L 803.117159 508.059232 
L 803.117159 508.059232 
L 786.139554 508.059232 
z
" clip-path="url(#pdf83efd4e1)" style="fill: #ff7f0e"/>
   </g>
   <g id="patch_49">
    <path d="M 107.035341 380.720482 
L 124.012946 380.720482 
L 124.012946 369.744426 
L 107.035341 369.744426 
z
" clip-path="url(#pdf83efd4e1)" style="fill: #2ca02c"/>
   </g>
   <g id="patch_50">
    <path d="M 140.990552 347.132101 
L 157.968157 347.132101 
L 157.968157 343.583451 
L 140.990552 343.583451 
z
" clip-path="url(#pdf83efd4e1)" style="fill: #2ca02c"/>
   </g>
   <g id="patch_51">
    <path d="M 174.945762 498.981292 
L 191.923368 498.981292 
L 191.923368 495.845276 
L 174.945762 495.845276 
z
" clip-path="url(#pdf83efd4e1)" style="fill: #2ca02c"/>
   </g>
   <g id="patch_52">
    <path d="M 208.900973 422.231429 
L 225.878578 422.231429 
L 225.878578 413.648649 
L 208.900973 413.648649 
z
" clip-path="url(#pdf83efd4e1)" style="fill: #2ca02c"/>
   </g>
   <g id="patch_53">
    <path d="M 242.856183 466.383232 
L 259.833789 466.383232 
L 259.833789 445.503968 
L 242.856183 445.503968 
z
" clip-path="url(#pdf83efd4e1)" style="fill: #2ca02c"/>
   </g>
   <g id="patch_54">
    <path d="M 276.811394 425.284918 
L 293.788999 425.284918 
L 293.788999 424.047017 
L 276.811394 424.047017 
z
" clip-path="url(#pdf83efd4e1)" style="fill: #2ca02c"/>
   </g>
   <g id="patch_55">
    <path d="M 310.766605 469.106614 
L 327.74421 469.106614 
L 327.74421 463.412269 
L 310.766605 463.412269 
z
" clip-path="url(#pdf83efd4e1)" style="fill: #2ca02c"/>
   </g>
   <g id="patch_56">
    <path d="M 344.721815 436.673607 
L 361.699421 436.673607 
L 361.699421 436.673607 
L 344.721815 436.673607 
z
" clip-path="url(#pdf83efd4e1)" style="fill: #2ca02c"/>
   </g>
   <g id="patch_57">
    <path d="M 378.677026 503.767842 
L 395.654631 503.767842 
L 395.654631 475.296119 
L 378.677026 475.296119 
z
" clip-path="url(#pdf83efd4e1)" style="fill: #2ca02c"/>
   </g>
   <g id="patch_58">
    <path d="M 412.632237 443.275746 
L 429.609842 443.275746 
L 429.609842 440.222257 
L 412.632237 440.222257 
z
" clip-path="url(#pdf83efd4e1)" style="fill: #2ca02c"/>
   </g>
   <g id="patch_59">
    <path d="M 446.587447 496.918123 
L 463.565053 496.918123 
L 463.565053 454.169275 
L 446.587447 454.169275 
z
" clip-path="url(#pdf83efd4e1)" style="fill: #2ca02c"/>
   </g>
   <g id="patch_60">
    <path d="M 480.542658 477.771921 
L 497.520263 477.771921 
L 497.520263 472.572737 
L 480.542658 472.572737 
z
" clip-path="url(#pdf83efd4e1)" style="fill: #2ca02c"/>
   </g>
   <g id="patch_61">
    <path d="M 514.497869 485.281854 
L 531.475474 485.281854 
L 531.475474 484.951747 
L 514.497869 484.951747 
z
" clip-path="url(#pdf83efd4e1)" style="fill: #2ca02c"/>
   </g>
   <g id="patch_62">
    <path d="M 548.453079 502.694995 
L 565.430685 502.694995 
L 565.430685 494.607375 
L 548.453079 494.607375 
z
" clip-path="url(#pdf83efd4e1)" style="fill: #2ca02c"/>
   </g>
   <g id="patch_63">
    <path d="M 582.40829 502.942575 
L 599.385895 502.942575 
L 599.385895 461.761735 
L 582.40829 461.761735 
z
" clip-path="url(#pdf83efd4e1)" style="fill: #2ca02c"/>
   </g>
   <g id="patch_64">
    <path d="M 616.363501 505.831011 
L 633.341106 505.831011 
L 633.341106 505.831011 
L 616.363501 505.831011 
z
" clip-path="url(#pdf83efd4e1)" style="fill: #2ca02c"/>
   </g>
   <g id="patch_65">
    <path d="M 650.318711 502.860048 
L 667.296317 502.860048 
L 667.296317 502.860048 
L 650.318711 502.860048 
z
" clip-path="url(#pdf83efd4e1)" style="fill: #2ca02c"/>
   </g>
   <g id="patch_66">
    <path d="M 684.273922 488.500396 
L 701.251527 488.500396 
L 701.251527 475.626226 
L 684.273922 475.626226 
z
" clip-path="url(#pdf83efd4e1)" style="fill: #2ca02c"/>
   </g>
   <g id="patch_67">
    <path d="M 718.229132 496.422963 
L 735.206738 496.422963 
L 735.206738 489.655771 
L 718.229132 489.655771 
z
" clip-path="url(#pdf83efd4e1)" style="fill: #2ca02c"/>
   </g>
   <g id="patch_68">
    <path d="M 752.184343 483.136159 
L 769.161948 483.136159 
L 769.161948 273.270674 
L 752.184343 273.270674 
z
" clip-path="url(#pdf83efd4e1)" style="fill: #2ca02c"/>
   </g>
   <g id="patch_69">
    <path d="M 786.139554 508.059232 
L 803.117159 508.059232 
L 803.117159 508.059232 
L 786.139554 508.059232 
z
" clip-path="url(#pdf83efd4e1)" style="fill: #2ca02c"/>
   </g>
   <g id="patch_70">
    <path d="M 107.035341 369.744426 
L 124.012946 369.744426 
L 124.012946 369.744426 
L 107.035341 369.744426 
z
" clip-path="url(#pdf83efd4e1)" style="fill: #d62728"/>
   </g>
   <g id="patch_71">
    <path d="M 140.990552 343.583451 
L 157.968157 343.583451 
L 157.968157 331.947182 
L 140.990552 331.947182 
z
" clip-path="url(#pdf83efd4e1)" style="fill: #d62728"/>
   </g>
   <g id="patch_72">
    <path d="M 174.945762 495.845276 
L 191.923368 495.845276 
L 191.923368 493.121894 
L 174.945762 493.121894 
z
" clip-path="url(#pdf83efd4e1)" style="fill: #d62728"/>
   </g>
   <g id="patch_73">
    <path d="M 208.900973 413.648649 
L 225.878578 413.648649 
L 225.878578 411.998114 
L 208.900973 411.998114 
z
" clip-path="url(#pdf83efd4e1)" style="fill: #d62728"/>
   </g>
   <g id="patch_74">
    <path d="M 242.856183 445.503968 
L 259.833789 445.503968 
L 259.833789 427.348086 
L 242.856183 427.348086 
z
" clip-path="url(#pdf83efd4e1)" style="fill: #d62728"/>
   </g>
   <g id="patch_75">
    <path d="M 276.811394 424.047017 
L 293.788999 424.047017 
L 293.788999 423.881964 
L 276.811394 423.881964 
z
" clip-path="url(#pdf83efd4e1)" style="fill: #d62728"/>
   </g>
   <g id="patch_76">
    <path d="M 310.766605 463.412269 
L 327.74421 463.412269 
L 327.74421 440.717417 
L 310.766605 440.717417 
z
" clip-path="url(#pdf83efd4e1)" style="fill: #d62728"/>
   </g>
   <g id="patch_77">
    <path d="M 344.721815 436.673607 
L 361.699421 436.673607 
L 361.699421 436.673607 
L 344.721815 436.673607 
z
" clip-path="url(#pdf83efd4e1)" style="fill: #d62728"/>
   </g>
   <g id="patch_78">
    <path d="M 378.677026 475.296119 
L 395.654631 475.296119 
L 395.654631 455.324649 
L 378.677026 455.324649 
z
" clip-path="url(#pdf83efd4e1)" style="fill: #d62728"/>
   </g>
   <g id="patch_79">
    <path d="M 412.632237 440.222257 
L 429.609842 440.222257 
L 429.609842 440.13973 
L 412.632237 440.13973 
z
" clip-path="url(#pdf83efd4e1)" style="fill: #d62728"/>
   </g>
   <g id="patch_80">
    <path d="M 446.587447 454.169275 
L 463.565053 454.169275 
L 463.565053 428.338407 
L 446.587447 428.338407 
z
" clip-path="url(#pdf83efd4e1)" style="fill: #d62728"/>
   </g>
   <g id="patch_81">
    <path d="M 480.542658 472.572737 
L 497.520263 472.572737 
L 497.520263 471.087256 
L 480.542658 471.087256 
z
" clip-path="url(#pdf83efd4e1)" style="fill: #d62728"/>
   </g>
   <g id="patch_82">
    <path d="M 514.497869 484.951747 
L 531.475474 484.951747 
L 531.475474 483.053632 
L 514.497869 483.053632 
z
" clip-path="url(#pdf83efd4e1)" style="fill: #d62728"/>
   </g>
   <g id="patch_83">
    <path d="M 548.453079 494.607375 
L 565.430685 494.607375 
L 565.430685 493.286947 
L 548.453079 493.286947 
z
" clip-path="url(#pdf83efd4e1)" style="fill: #d62728"/>
   </g>
   <g id="patch_84">
    <path d="M 582.40829 461.761735 
L 599.385895 461.761735 
L 599.385895 373.210549 
L 582.40829 373.210549 
z
" clip-path="url(#pdf83efd4e1)" style="fill: #d62728"/>
   </g>
   <g id="patch_85">
    <path d="M 616.363501 505.831011 
L 633.341106 505.831011 
L 633.341106 348.865162 
L 616.363501 348.865162 
z
" clip-path="url(#pdf83efd4e1)" style="fill: #d62728"/>
   </g>
   <g id="patch_86">
    <path d="M 650.318711 502.860048 
L 667.296317 502.860048 
L 667.296317 502.860048 
L 650.318711 502.860048 
z
" clip-path="url(#pdf83efd4e1)" style="fill: #d62728"/>
   </g>
   <g id="patch_87">
    <path d="M 684.273922 475.626226 
L 701.251527 475.626226 
L 701.251527 467.95124 
L 684.273922 467.95124 
z
" clip-path="url(#pdf83efd4e1)" style="fill: #d62728"/>
   </g>
   <g id="patch_88">
    <path d="M 718.229132 489.655771 
L 735.206738 489.655771 
L 735.206738 438.241615 
L 718.229132 438.241615 
z
" clip-path="url(#pdf83efd4e1)" style="fill: #d62728"/>
   </g>
   <g id="patch_89">
    <path d="M 752.184343 273.270674 
L 769.161948 273.270674 
L 769.161948 272.85804 
L 752.184343 272.85804 
z
" clip-path="url(#pdf83efd4e1)" style="fill: #d62728"/>
   </g>
   <g id="patch_90">
    <path d="M 786.139554 508.059232 
L 803.117159 508.059232 
L 803.117159 508.059232 
L 786.139554 508.059232 
z
" clip-path="url(#pdf83efd4e1)" style="fill: #d62728"/>
   </g>
   <g id="patch_91">
    <path d="M 107.035341 369.744426 
L 124.012946 369.744426 
L 124.012946 369.414319 
L 107.035341 369.414319 
z
" clip-path="url(#pdf83efd4e1)" style="fill: #9467bd"/>
   </g>
   <g id="patch_92">
    <path d="M 140.990552 331.947182 
L 157.968157 331.947182 
L 157.968157 331.947182 
L 140.990552 331.947182 
z
" clip-path="url(#pdf83efd4e1)" style="fill: #9467bd"/>
   </g>
   <g id="patch_93">
    <path d="M 174.945762 493.121894 
L 191.923368 493.121894 
L 191.923368 493.121894 
L 174.945762 493.121894 
z
" clip-path="url(#pdf83efd4e1)" style="fill: #9467bd"/>
   </g>
   <g id="patch_94">
    <path d="M 208.900973 411.998114 
L 225.878578 411.998114 
L 225.878578 345.564093 
L 208.900973 345.564093 
z
" clip-path="url(#pdf83efd4e1)" style="fill: #9467bd"/>
   </g>
   <g id="patch_95">
    <path d="M 242.856183 427.348086 
L 259.833789 427.348086 
L 259.833789 420.168261 
L 242.856183 420.168261 
z
" clip-path="url(#pdf83efd4e1)" style="fill: #9467bd"/>
   </g>
   <g id="patch_96">
    <path d="M 276.811394 423.881964 
L 293.788999 423.881964 
L 293.788999 368.093891 
L 276.811394 368.093891 
z
" clip-path="url(#pdf83efd4e1)" style="fill: #9467bd"/>
   </g>
   <g id="patch_97">
    <path d="M 310.766605 440.717417 
L 327.74421 440.717417 
L 327.74421 419.590573 
L 310.766605 419.590573 
z
" clip-path="url(#pdf83efd4e1)" style="fill: #9467bd"/>
   </g>
   <g id="patch_98">
    <path d="M 344.721815 436.673607 
L 361.699421 436.673607 
L 361.699421 395.327714 
L 344.721815 395.327714 
z
" clip-path="url(#pdf83efd4e1)" style="fill: #9467bd"/>
   </g>
   <g id="patch_99">
    <path d="M 378.677026 455.324649 
L 395.654631 455.324649 
L 395.654631 453.509061 
L 378.677026 453.509061 
z
" clip-path="url(#pdf83efd4e1)" style="fill: #9467bd"/>
   </g>
   <g id="patch_100">
    <path d="M 412.632237 440.13973 
L 429.609842 440.13973 
L 429.609842 439.314463 
L 412.632237 439.314463 
z
" clip-path="url(#pdf83efd4e1)" style="fill: #9467bd"/>
   </g>
   <g id="patch_101">
    <path d="M 446.587447 428.338407 
L 463.565053 428.338407 
L 463.565053 400.939532 
L 446.587447 400.939532 
z
" clip-path="url(#pdf83efd4e1)" style="fill: #9467bd"/>
   </g>
   <g id="patch_102">
    <path d="M 480.542658 471.087256 
L 497.520263 471.087256 
L 497.520263 470.839675 
L 480.542658 470.839675 
z
" clip-path="url(#pdf83efd4e1)" style="fill: #9467bd"/>
   </g>
   <g id="patch_103">
    <path d="M 514.497869 483.053632 
L 531.475474 483.053632 
L 531.475474 456.06739 
L 514.497869 456.06739 
z
" clip-path="url(#pdf83efd4e1)" style="fill: #9467bd"/>
   </g>
   <g id="patch_104">
    <path d="M 548.453079 493.286947 
L 565.430685 493.286947 
L 565.430685 491.801466 
L 548.453079 491.801466 
z
" clip-path="url(#pdf83efd4e1)" style="fill: #9467bd"/>
   </g>
   <g id="patch_105">
    <path d="M 582.40829 373.210549 
L 599.385895 373.210549 
L 599.385895 373.128022 
L 582.40829 373.128022 
z
" clip-path="url(#pdf83efd4e1)" style="fill: #9467bd"/>
   </g>
   <g id="patch_106">
    <path d="M 616.363501 348.865162 
L 633.341106 348.865162 
L 633.341106 348.617582 
L 616.363501 348.617582 
z
" clip-path="url(#pdf83efd4e1)" style="fill: #9467bd"/>
   </g>
   <g id="patch_107">
    <path d="M 650.318711 502.860048 
L 667.296317 502.860048 
L 667.296317 502.694995 
L 650.318711 502.694995 
z
" clip-path="url(#pdf83efd4e1)" style="fill: #9467bd"/>
   </g>
   <g id="patch_108">
    <path d="M 684.273922 467.95124 
L 701.251527 467.95124 
L 701.251527 398.95889 
L 684.273922 398.95889 
z
" clip-path="url(#pdf83efd4e1)" style="fill: #9467bd"/>
   </g>
   <g id="patch_109">
    <path d="M 718.229132 438.241615 
L 735.206738 438.241615 
L 735.206738 433.537592 
L 718.229132 433.537592 
z
" clip-path="url(#pdf83efd4e1)" style="fill: #9467bd"/>
   </g>
   <g id="patch_110">
    <path d="M 752.184343 272.85804 
L 769.161948 272.85804 
L 769.161948 185.379702 
L 752.184343 185.379702 
z
" clip-path="url(#pdf83efd4e1)" style="fill: #9467bd"/>
   </g>
   <g id="patch_111">
    <path d="M 786.139554 508.059232 
L 803.117159 508.059232 
L 803.117159 508.059232 
L 786.139554 508.059232 
z
" clip-path="url(#pdf83efd4e1)" style="fill: #9467bd"/>
   </g>
   <g id="patch_112">
    <path d="M 107.035341 369.414319 
L 124.012946 369.414319 
L 124.012946 364.545242 
L 107.035341 364.545242 
z
" clip-path="url(#pdf83efd4e1)" style="fill: #8c564b"/>
   </g>
   <g id="patch_113">
    <path d="M 140.990552 331.947182 
L 157.968157 331.947182 
L 157.968157 169.78215 
L 140.990552 169.78215 
z
" clip-path="url(#pdf83efd4e1)" style="fill: #8c564b"/>
   </g>
   <g id="patch_114">
    <path d="M 174.945762 493.121894 
L 191.923368 493.121894 
L 191.923368 392.521805 
L 174.945762 392.521805 
z
" clip-path="url(#pdf83efd4e1)" style="fill: #8c564b"/>
   </g>
   <g id="patch_115">
    <path d="M 208.900973 345.564093 
L 225.878578 345.564093 
L 225.878578 341.520283 
L 208.900973 341.520283 
z
" clip-path="url(#pdf83efd4e1)" style="fill: #8c564b"/>
   </g>
   <g id="patch_116">
    <path d="M 242.856183 420.168261 
L 259.833789 420.168261 
L 259.833789 420.003207 
L 242.856183 420.003207 
z
" clip-path="url(#pdf83efd4e1)" style="fill: #8c564b"/>
   </g>
   <g id="patch_117">
    <path d="M 276.811394 368.093891 
L 293.788999 368.093891 
L 293.788999 330.214121 
L 276.811394 330.214121 
z
" clip-path="url(#pdf83efd4e1)" style="fill: #8c564b"/>
   </g>
   <g id="patch_118">
    <path d="M 310.766605 419.590573 
L 327.74421 419.590573 
L 327.74421 418.93036 
L 310.766605 418.93036 
z
" clip-path="url(#pdf83efd4e1)" style="fill: #8c564b"/>
   </g>
   <g id="patch_119">
    <path d="M 344.721815 395.327714 
L 361.699421 395.327714 
L 361.699421 394.91508 
L 344.721815 394.91508 
z
" clip-path="url(#pdf83efd4e1)" style="fill: #8c564b"/>
   </g>
   <g id="patch_120">
    <path d="M 378.677026 453.509061 
L 395.654631 453.509061 
L 395.654631 453.178954 
L 378.677026 453.178954 
z
" clip-path="url(#pdf83efd4e1)" style="fill: #8c564b"/>
   </g>
   <g id="patch_121">
    <path d="M 412.632237 439.314463 
L 429.609842 439.314463 
L 429.609842 439.314463 
L 412.632237 439.314463 
z
" clip-path="url(#pdf83efd4e1)" style="fill: #8c564b"/>
   </g>
   <g id="patch_122">
    <path d="M 446.587447 400.939532 
L 463.565053 400.939532 
L 463.565053 398.71131 
L 446.587447 398.71131 
z
" clip-path="url(#pdf83efd4e1)" style="fill: #8c564b"/>
   </g>
   <g id="patch_123">
    <path d="M 480.542658 470.839675 
L 497.520263 470.839675 
L 497.520263 470.757149 
L 480.542658 470.757149 
z
" clip-path="url(#pdf83efd4e1)" style="fill: #8c564b"/>
   </g>
   <g id="patch_124">
    <path d="M 514.497869 456.06739 
L 531.475474 456.06739 
L 531.475474 453.509061 
L 514.497869 453.509061 
z
" clip-path="url(#pdf83efd4e1)" style="fill: #8c564b"/>
   </g>
   <g id="patch_125">
    <path d="M 548.453079 491.801466 
L 565.430685 491.801466 
L 565.430685 445.834075 
L 548.453079 445.834075 
z
" clip-path="url(#pdf83efd4e1)" style="fill: #8c564b"/>
   </g>
   <g id="patch_126">
    <path d="M 582.40829 373.128022 
L 599.385895 373.128022 
L 599.385895 373.045495 
L 582.40829 373.045495 
z
" clip-path="url(#pdf83efd4e1)" style="fill: #8c564b"/>
   </g>
   <g id="patch_127">
    <path d="M 616.363501 348.617582 
L 633.341106 348.617582 
L 633.341106 337.971634 
L 616.363501 337.971634 
z
" clip-path="url(#pdf83efd4e1)" style="fill: #8c564b"/>
   </g>
   <g id="patch_128">
    <path d="M 650.318711 502.694995 
L 667.296317 502.694995 
L 667.296317 502.364888 
L 650.318711 502.364888 
z
" clip-path="url(#pdf83efd4e1)" style="fill: #8c564b"/>
   </g>
   <g id="patch_129">
    <path d="M 684.273922 398.95889 
L 701.251527 398.95889 
L 701.251527 398.793837 
L 684.273922 398.793837 
z
" clip-path="url(#pdf83efd4e1)" style="fill: #8c564b"/>
   </g>
   <g id="patch_130">
    <path d="M 718.229132 433.537592 
L 735.206738 433.537592 
L 735.206738 425.780079 
L 718.229132 425.780079 
z
" clip-path="url(#pdf83efd4e1)" style="fill: #8c564b"/>
   </g>
   <g id="patch_131">
    <path d="M 752.184343 185.379702 
L 769.161948 185.379702 
L 769.161948 153.689436 
L 752.184343 153.689436 
z
" clip-path="url(#pdf83efd4e1)" style="fill: #8c564b"/>
   </g>
   <g id="patch_132">
    <path d="M 786.139554 508.059232 
L 803.117159 508.059232 
L 803.117159 508.059232 
L 786.139554 508.059232 
z
" clip-path="url(#pdf83efd4e1)" style="fill: #8c564b"/>
   </g>
   <g id="patch_133">
    <path d="M 107.035341 364.545242 
L 124.012946 364.545242 
L 124.012946 359.428584 
L 107.035341 359.428584 
z
" clip-path="url(#pdf83efd4e1)" style="fill: #e377c2"/>
   </g>
   <g id="patch_134">
    <path d="M 140.990552 169.78215 
L 157.968157 169.78215 
L 157.968157 169.699623 
L 140.990552 169.699623 
z
" clip-path="url(#pdf83efd4e1)" style="fill: #e377c2"/>
   </g>
   <g id="patch_135">
    <path d="M 174.945762 392.521805 
L 191.923368 392.521805 
L 191.923368 389.798422 
L 174.945762 389.798422 
z
" clip-path="url(#pdf83efd4e1)" style="fill: #e377c2"/>
   </g>
   <g id="patch_136">
    <path d="M 208.900973 341.520283 
L 225.878578 341.520283 
L 225.878578 337.476473 
L 208.900973 337.476473 
z
" clip-path="url(#pdf83efd4e1)" style="fill: #e377c2"/>
   </g>
   <g id="patch_137">
    <path d="M 242.856183 420.003207 
L 259.833789 420.003207 
L 259.833789 357.695523 
L 242.856183 357.695523 
z
" clip-path="url(#pdf83efd4e1)" style="fill: #e377c2"/>
   </g>
   <g id="patch_138">
    <path d="M 276.811394 330.214121 
L 293.788999 330.214121 
L 293.788999 325.510097 
L 276.811394 325.510097 
z
" clip-path="url(#pdf83efd4e1)" style="fill: #e377c2"/>
   </g>
   <g id="patch_139">
    <path d="M 310.766605 418.93036 
L 327.74421 418.93036 
L 327.74421 401.022058 
L 310.766605 401.022058 
z
" clip-path="url(#pdf83efd4e1)" style="fill: #e377c2"/>
   </g>
   <g id="patch_140">
    <path d="M 344.721815 394.91508 
L 361.699421 394.91508 
L 361.699421 386.662407 
L 344.721815 386.662407 
z
" clip-path="url(#pdf83efd4e1)" style="fill: #e377c2"/>
   </g>
   <g id="patch_141">
    <path d="M 378.677026 453.178954 
L 395.654631 453.178954 
L 395.654631 313.626247 
L 378.677026 313.626247 
z
" clip-path="url(#pdf83efd4e1)" style="fill: #e377c2"/>
   </g>
   <g id="patch_142">
    <path d="M 412.632237 439.314463 
L 429.609842 439.314463 
L 429.609842 439.231936 
L 412.632237 439.231936 
z
" clip-path="url(#pdf83efd4e1)" style="fill: #e377c2"/>
   </g>
   <g id="patch_143">
    <path d="M 446.587447 398.71131 
L 463.565053 398.71131 
L 463.565053 377.006779 
L 446.587447 377.006779 
z
" clip-path="url(#pdf83efd4e1)" style="fill: #e377c2"/>
   </g>
   <g id="patch_144">
    <path d="M 480.542658 470.757149 
L 497.520263 470.757149 
L 497.520263 442.533006 
L 480.542658 442.533006 
z
" clip-path="url(#pdf83efd4e1)" style="fill: #e377c2"/>
   </g>
   <g id="patch_145">
    <path d="M 514.497869 453.509061 
L 531.475474 453.509061 
L 531.475474 441.872792 
L 514.497869 441.872792 
z
" clip-path="url(#pdf83efd4e1)" style="fill: #e377c2"/>
   </g>
   <g id="patch_146">
    <path d="M 548.453079 445.834075 
L 565.430685 445.834075 
L 565.430685 445.751548 
L 548.453079 445.751548 
z
" clip-path="url(#pdf83efd4e1)" style="fill: #e377c2"/>
   </g>
   <g id="patch_147">
    <path d="M 582.40829 373.045495 
L 599.385895 373.045495 
L 599.385895 345.729147 
L 582.40829 345.729147 
z
" clip-path="url(#pdf83efd4e1)" style="fill: #e377c2"/>
   </g>
   <g id="patch_148">
    <path d="M 616.363501 337.971634 
L 633.341106 337.971634 
L 633.341106 331.204441 
L 616.363501 331.204441 
z
" clip-path="url(#pdf83efd4e1)" style="fill: #e377c2"/>
   </g>
   <g id="patch_149">
    <path d="M 650.318711 502.364888 
L 667.296317 502.364888 
L 667.296317 436.013394 
L 650.318711 436.013394 
z
" clip-path="url(#pdf83efd4e1)" style="fill: #e377c2"/>
   </g>
   <g id="patch_150">
    <path d="M 684.273922 398.793837 
L 701.251527 398.793837 
L 701.251527 394.997607 
L 684.273922 394.997607 
z
" clip-path="url(#pdf83efd4e1)" style="fill: #e377c2"/>
   </g>
   <g id="patch_151">
    <path d="M 718.229132 425.780079 
L 735.206738 425.780079 
L 735.206738 425.697552 
L 718.229132 425.697552 
z
" clip-path="url(#pdf83efd4e1)" style="fill: #e377c2"/>
   </g>
   <g id="patch_152">
    <path d="M 752.184343 153.689436 
L 769.161948 153.689436 
L 769.161948 151.791322 
L 752.184343 151.791322 
z
" clip-path="url(#pdf83efd4e1)" style="fill: #e377c2"/>
   </g>
   <g id="patch_153">
    <path d="M 786.139554 508.059232 
L 803.117159 508.059232 
L 803.117159 508.059232 
L 786.139554 508.059232 
z
" clip-path="url(#pdf83efd4e1)" style="fill: #e377c2"/>
   </g>
   <g id="patch_154">
    <path d="M 107.035341 359.428584 
L 124.012946 359.428584 
L 124.012946 342.015443 
L 107.035341 342.015443 
z
" clip-path="url(#pdf83efd4e1)" style="fill: #7f7f7f"/>
   </g>
   <g id="patch_155">
    <path d="M 140.990552 169.699623 
L 157.968157 169.699623 
L 157.968157 169.699623 
L 140.990552 169.699623 
z
" clip-path="url(#pdf83efd4e1)" style="fill: #7f7f7f"/>
   </g>
   <g id="patch_156">
    <path d="M 174.945762 389.798422 
L 191.923368 389.798422 
L 191.923368 376.098985 
L 174.945762 376.098985 
z
" clip-path="url(#pdf83efd4e1)" style="fill: #7f7f7f"/>
   </g>
   <g id="patch_157">
    <path d="M 208.900973 337.476473 
L 225.878578 337.476473 
L 225.878578 334.01035 
L 208.900973 334.01035 
z
" clip-path="url(#pdf83efd4e1)" style="fill: #7f7f7f"/>
   </g>
   <g id="patch_158">
    <path d="M 242.856183 357.695523 
L 259.833789 357.695523 
L 259.833789 350.928331 
L 242.856183 350.928331 
z
" clip-path="url(#pdf83efd4e1)" style="fill: #7f7f7f"/>
   </g>
   <g id="patch_159">
    <path d="M 276.811394 325.510097 
L 293.788999 325.510097 
L 293.788999 324.437249 
L 276.811394 324.437249 
z
" clip-path="url(#pdf83efd4e1)" style="fill: #7f7f7f"/>
   </g>
   <g id="patch_160">
    <path d="M 310.766605 401.022058 
L 327.74421 401.022058 
L 327.74421 361.409226 
L 310.766605 361.409226 
z
" clip-path="url(#pdf83efd4e1)" style="fill: #7f7f7f"/>
   </g>
   <g id="patch_161">
    <path d="M 344.721815 386.662407 
L 361.699421 386.662407 
L 361.699421 381.463222 
L 344.721815 381.463222 
z
" clip-path="url(#pdf83efd4e1)" style="fill: #7f7f7f"/>
   </g>
   <g id="patch_162">
    <path d="M 378.677026 313.626247 
L 395.654631 313.626247 
L 395.654631 247.027173 
L 378.677026 247.027173 
z
" clip-path="url(#pdf83efd4e1)" style="fill: #7f7f7f"/>
   </g>
   <g id="patch_163">
    <path d="M 412.632237 439.231936 
L 429.609842 439.231936 
L 429.609842 403.993021 
L 412.632237 403.993021 
z
" clip-path="url(#pdf83efd4e1)" style="fill: #7f7f7f"/>
   </g>
   <g id="patch_164">
    <path d="M 446.587447 377.006779 
L 463.565053 377.006779 
L 463.565053 338.136687 
L 446.587447 338.136687 
z
" clip-path="url(#pdf83efd4e1)" style="fill: #7f7f7f"/>
   </g>
   <g id="patch_165">
    <path d="M 480.542658 442.533006 
L 497.520263 442.533006 
L 497.520263 441.707738 
L 480.542658 441.707738 
z
" clip-path="url(#pdf83efd4e1)" style="fill: #7f7f7f"/>
   </g>
   <g id="patch_166">
    <path d="M 514.497869 441.872792 
L 531.475474 441.872792 
L 531.475474 399.371524 
L 514.497869 399.371524 
z
" clip-path="url(#pdf83efd4e1)" style="fill: #7f7f7f"/>
   </g>
   <g id="patch_167">
    <path d="M 548.453079 445.751548 
L 565.430685 445.751548 
L 565.430685 445.751548 
L 548.453079 445.751548 
z
" clip-path="url(#pdf83efd4e1)" style="fill: #7f7f7f"/>
   </g>
   <g id="patch_168">
    <path d="M 582.40829 345.729147 
L 599.385895 345.729147 
L 599.385895 344.903879 
L 582.40829 344.903879 
z
" clip-path="url(#pdf83efd4e1)" style="fill: #7f7f7f"/>
   </g>
   <g id="patch_169">
    <path d="M 616.363501 331.204441 
L 633.341106 331.204441 
L 633.341106 208.404661 
L 616.363501 208.404661 
z
" clip-path="url(#pdf83efd4e1)" style="fill: #7f7f7f"/>
   </g>
   <g id="patch_170">
    <path d="M 650.318711 436.013394 
L 667.296317 436.013394 
L 667.296317 435.435706 
L 650.318711 435.435706 
z
" clip-path="url(#pdf83efd4e1)" style="fill: #7f7f7f"/>
   </g>
   <g id="patch_171">
    <path d="M 684.273922 394.997607 
L 701.251527 394.997607 
L 701.251527 394.91508 
L 684.273922 394.91508 
z
" clip-path="url(#pdf83efd4e1)" style="fill: #7f7f7f"/>
   </g>
   <g id="patch_172">
    <path d="M 718.229132 425.697552 
L 735.206738 425.697552 
L 735.206738 412.575801 
L 718.229132 412.575801 
z
" clip-path="url(#pdf83efd4e1)" style="fill: #7f7f7f"/>
   </g>
   <g id="patch_173">
    <path d="M 752.184343 151.791322 
L 769.161948 151.791322 
L 769.161948 147.830038 
L 752.184343 147.830038 
z
" clip-path="url(#pdf83efd4e1)" style="fill: #7f7f7f"/>
   </g>
   <g id="patch_174">
    <path d="M 786.139554 508.059232 
L 803.117159 508.059232 
L 803.117159 508.059232 
L 786.139554 508.059232 
z
" clip-path="url(#pdf83efd4e1)" style="fill: #7f7f7f"/>
   </g>
   <g id="patch_175">
    <path d="M 107.035341 342.015443 
L 124.012946 342.015443 
L 124.012946 338.219214 
L 107.035341 338.219214 
z
" clip-path="url(#pdf83efd4e1)" style="fill: #bcbd22"/>
   </g>
   <g id="patch_176">
    <path d="M 140.990552 169.699623 
L 157.968157 169.699623 
L 157.968157 164.665492 
L 140.990552 164.665492 
z
" clip-path="url(#pdf83efd4e1)" style="fill: #bcbd22"/>
   </g>
   <g id="patch_177">
    <path d="M 174.945762 376.098985 
L 191.923368 376.098985 
L 191.923368 366.773464 
L 174.945762 366.773464 
z
" clip-path="url(#pdf83efd4e1)" style="fill: #bcbd22"/>
   </g>
   <g id="patch_178">
    <path d="M 208.900973 334.01035 
L 225.878578 334.01035 
L 225.878578 329.553907 
L 208.900973 329.553907 
z
" clip-path="url(#pdf83efd4e1)" style="fill: #bcbd22"/>
   </g>
   <g id="patch_179">
    <path d="M 242.856183 350.928331 
L 259.833789 350.928331 
L 259.833789 346.471887 
L 242.856183 346.471887 
z
" clip-path="url(#pdf83efd4e1)" style="fill: #bcbd22"/>
   </g>
   <g id="patch_180">
    <path d="M 276.811394 324.437249 
L 293.788999 324.437249 
L 293.788999 271.372559 
L 276.811394 271.372559 
z
" clip-path="url(#pdf83efd4e1)" style="fill: #bcbd22"/>
   </g>
   <g id="patch_181">
    <path d="M 310.766605 361.409226 
L 327.74421 361.409226 
L 327.74421 346.059253 
L 310.766605 346.059253 
z
" clip-path="url(#pdf83efd4e1)" style="fill: #bcbd22"/>
   </g>
   <g id="patch_182">
    <path d="M 344.721815 381.463222 
L 361.699421 381.463222 
L 361.699421 379.812688 
L 344.721815 379.812688 
z
" clip-path="url(#pdf83efd4e1)" style="fill: #bcbd22"/>
   </g>
   <g id="patch_183">
    <path d="M 378.677026 247.027173 
L 395.654631 247.027173 
L 395.654631 233.657842 
L 378.677026 233.657842 
z
" clip-path="url(#pdf83efd4e1)" style="fill: #bcbd22"/>
   </g>
   <g id="patch_184">
    <path d="M 412.632237 403.993021 
L 429.609842 403.993021 
L 429.609842 396.978248 
L 412.632237 396.978248 
z
" clip-path="url(#pdf83efd4e1)" style="fill: #bcbd22"/>
   </g>
   <g id="patch_185">
    <path d="M 446.587447 338.136687 
L 463.565053 338.136687 
L 463.565053 327.985899 
L 446.587447 327.985899 
z
" clip-path="url(#pdf83efd4e1)" style="fill: #bcbd22"/>
   </g>
   <g id="patch_186">
    <path d="M 480.542658 441.707738 
L 497.520263 441.707738 
L 497.520263 439.974677 
L 480.542658 439.974677 
z
" clip-path="url(#pdf83efd4e1)" style="fill: #bcbd22"/>
   </g>
   <g id="patch_187">
    <path d="M 514.497869 399.371524 
L 531.475474 399.371524 
L 531.475474 360.666485 
L 514.497869 360.666485 
z
" clip-path="url(#pdf83efd4e1)" style="fill: #bcbd22"/>
   </g>
   <g id="patch_188">
    <path d="M 548.453079 445.751548 
L 565.430685 445.751548 
L 565.430685 444.678701 
L 548.453079 444.678701 
z
" clip-path="url(#pdf83efd4e1)" style="fill: #bcbd22"/>
   </g>
   <g id="patch_189">
    <path d="M 582.40829 344.903879 
L 599.385895 344.903879 
L 599.385895 344.161139 
L 582.40829 344.161139 
z
" clip-path="url(#pdf83efd4e1)" style="fill: #bcbd22"/>
   </g>
   <g id="patch_190">
    <path d="M 616.363501 208.404661 
L 633.341106 208.404661 
L 633.341106 207.744447 
L 616.363501 207.744447 
z
" clip-path="url(#pdf83efd4e1)" style="fill: #bcbd22"/>
   </g>
   <g id="patch_191">
    <path d="M 650.318711 435.435706 
L 667.296317 435.435706 
L 667.296317 430.896736 
L 650.318711 430.896736 
z
" clip-path="url(#pdf83efd4e1)" style="fill: #bcbd22"/>
   </g>
   <g id="patch_192">
    <path d="M 684.273922 394.91508 
L 701.251527 394.91508 
L 701.251527 385.507032 
L 684.273922 385.507032 
z
" clip-path="url(#pdf83efd4e1)" style="fill: #bcbd22"/>
   </g>
   <g id="patch_193">
    <path d="M 718.229132 412.575801 
L 735.206738 412.575801 
L 735.206738 300.91713 
L 718.229132 300.91713 
z
" clip-path="url(#pdf83efd4e1)" style="fill: #bcbd22"/>
   </g>
   <g id="patch_194">
    <path d="M 752.184343 147.830038 
L 769.161948 147.830038 
L 769.161948 31.384817 
L 752.184343 31.384817 
z
" clip-path="url(#pdf83efd4e1)" style="fill: #bcbd22"/>
   </g>
   <g id="patch_195">
    <path d="M 786.139554 508.059232 
L 803.117159 508.059232 
L 803.117159 508.059232 
L 786.139554 508.059232 
z
" clip-path="url(#pdf83efd4e1)" style="fill: #bcbd22"/>
   </g>
   <g id="patch_196">
    <path d="M 107.035341 338.219214 
L 124.012946 338.219214 
L 124.012946 312.305819 
L 107.035341 312.305819 
z
" clip-path="url(#pdf83efd4e1)" style="fill: #17becf"/>
   </g>
   <g id="patch_197">
    <path d="M 140.990552 164.665492 
L 157.968157 164.665492 
L 157.968157 76.857047 
L 140.990552 76.857047 
z
" clip-path="url(#pdf83efd4e1)" style="fill: #17becf"/>
   </g>
   <g id="patch_198">
    <path d="M 174.945762 366.773464 
L 191.923368 366.773464 
L 191.923368 366.773464 
L 174.945762 366.773464 
z
" clip-path="url(#pdf83efd4e1)" style="fill: #17becf"/>
   </g>
   <g id="patch_199">
    <path d="M 208.900973 329.553907 
L 225.878578 329.553907 
L 225.878578 325.42757 
L 208.900973 325.42757 
z
" clip-path="url(#pdf83efd4e1)" style="fill: #17becf"/>
   </g>
   <g id="patch_200">
    <path d="M 242.856183 346.471887 
L 259.833789 346.471887 
L 259.833789 346.38936 
L 242.856183 346.38936 
z
" clip-path="url(#pdf83efd4e1)" style="fill: #17becf"/>
   </g>
   <g id="patch_201">
    <path d="M 276.811394 271.372559 
L 293.788999 271.372559 
L 293.788999 259.571236 
L 276.811394 259.571236 
z
" clip-path="url(#pdf83efd4e1)" style="fill: #17becf"/>
   </g>
   <g id="patch_202">
    <path d="M 310.766605 346.059253 
L 327.74421 346.059253 
L 327.74421 338.384267 
L 310.766605 338.384267 
z
" clip-path="url(#pdf83efd4e1)" style="fill: #17becf"/>
   </g>
   <g id="patch_203">
    <path d="M 344.721815 379.812688 
L 361.699421 379.812688 
L 361.699421 378.574787 
L 344.721815 378.574787 
z
" clip-path="url(#pdf83efd4e1)" style="fill: #17becf"/>
   </g>
   <g id="patch_204">
    <path d="M 378.677026 233.657842 
L 395.654631 233.657842 
L 395.654631 219.958404 
L 378.677026 219.958404 
z
" clip-path="url(#pdf83efd4e1)" style="fill: #17becf"/>
   </g>
   <g id="patch_205">
    <path d="M 412.632237 396.978248 
L 429.609842 396.978248 
L 429.609842 393.759706 
L 412.632237 393.759706 
z
" clip-path="url(#pdf83efd4e1)" style="fill: #17becf"/>
   </g>
   <g id="patch_206">
    <path d="M 446.587447 327.985899 
L 463.565053 327.985899 
L 463.565053 293.737304 
L 446.587447 293.737304 
z
" clip-path="url(#pdf83efd4e1)" style="fill: #17becf"/>
   </g>
   <g id="patch_207">
    <path d="M 480.542658 439.974677 
L 497.520263 439.974677 
L 497.520263 378.327206 
L 480.542658 378.327206 
z
" clip-path="url(#pdf83efd4e1)" style="fill: #17becf"/>
   </g>
   <g id="patch_208">
    <path d="M 514.497869 360.666485 
L 531.475474 360.666485 
L 531.475474 349.607903 
L 514.497869 349.607903 
z
" clip-path="url(#pdf83efd4e1)" style="fill: #17becf"/>
   </g>
   <g id="patch_209">
    <path d="M 548.453079 444.678701 
L 565.430685 444.678701 
L 565.430685 444.596174 
L 548.453079 444.596174 
z
" clip-path="url(#pdf83efd4e1)" style="fill: #17becf"/>
   </g>
   <g id="patch_210">
    <path d="M 582.40829 344.161139 
L 599.385895 344.161139 
L 599.385895 339.869748 
L 582.40829 339.869748 
z
" clip-path="url(#pdf83efd4e1)" style="fill: #17becf"/>
   </g>
   <g id="patch_211">
    <path d="M 616.363501 207.744447 
L 633.341106 207.744447 
L 633.341106 78.672635 
L 616.363501 78.672635 
z
" clip-path="url(#pdf83efd4e1)" style="fill: #17becf"/>
   </g>
   <g id="patch_212">
    <path d="M 650.318711 430.896736 
L 667.296317 430.896736 
L 667.296317 430.484102 
L 650.318711 430.484102 
z
" clip-path="url(#pdf83efd4e1)" style="fill: #17becf"/>
   </g>
   <g id="patch_213">
    <path d="M 684.273922 385.507032 
L 701.251527 385.507032 
L 701.251527 384.929345 
L 684.273922 384.929345 
z
" clip-path="url(#pdf83efd4e1)" style="fill: #17becf"/>
   </g>
   <g id="patch_214">
    <path d="M 718.229132 300.91713 
L 735.206738 300.91713 
L 735.206738 285.319577 
L 718.229132 285.319577 
z
" clip-path="url(#pdf83efd4e1)" style="fill: #17becf"/>
   </g>
   <g id="patch_215">
    <path d="M 752.184343 31.384817 
L 769.161948 31.384817 
L 769.161948 31.30229 
L 752.184343 31.30229 
z
" clip-path="url(#pdf83efd4e1)" style="fill: #17becf"/>
   </g>
   <g id="patch_216">
    <path d="M 786.139554 508.059232 
L 803.117159 508.059232 
L 803.117159 508.059232 
L 786.139554 508.059232 
z
" clip-path="url(#pdf83efd4e1)" style="fill: #17becf"/>
   </g>
   <g id="legend_1">
    <g id="patch_217">
     <path d="M 783.48625 193.201943 
L 829.52125 193.201943 
Q 831.92125 193.201943 831.92125 190.801943 
L 831.92125 15.864443 
Q 831.92125 13.464443 829.52125 13.464443 
L 783.48625 13.464443 
Q 781.08625 13.464443 781.08625 15.864443 
L 781.08625 190.801943 
Q 781.08625 193.201943 783.48625 193.201943 
z
" style="fill: #ffffff; opacity: 0.8; stroke: #cccccc; stroke-linejoin: miter"/>
    </g>
    <g id="patch_218">
     <path d="M 785.88625 27.382568 
L 809.88625 27.382568 
L 809.88625 18.982568 
L 785.88625 18.982568 
z
" style="fill: #1f77b4"/>
    </g>
    <g id="text_30">
     <!-- 0 -->
     <g transform="translate(819.48625 27.382568) scale(0.12 -0.12)">
      <use xlink:href="#DejaVuSans-30"/>
     </g>
    </g>
    <g id="patch_219">
     <path d="M 785.88625 44.996318 
L 809.88625 44.996318 
L 809.88625 36.596318 
L 785.88625 36.596318 
z
" style="fill: #ff7f0e"/>
    </g>
    <g id="text_31">
     <!-- 1 -->
     <g transform="translate(819.48625 44.996318) scale(0.12 -0.12)">
      <use xlink:href="#DejaVuSans-31"/>
     </g>
    </g>
    <g id="patch_220">
     <path d="M 785.88625 62.610068 
L 809.88625 62.610068 
L 809.88625 54.210068 
L 785.88625 54.210068 
z
" style="fill: #2ca02c"/>
    </g>
    <g id="text_32">
     <!-- 2 -->
     <g transform="translate(819.48625 62.610068) scale(0.12 -0.12)">
      <use xlink:href="#DejaVuSans-32"/>
     </g>
    </g>
    <g id="patch_221">
     <path d="M 785.88625 80.223818 
L 809.88625 80.223818 
L 809.88625 71.823818 
L 785.88625 71.823818 
z
" style="fill: #d62728"/>
    </g>
    <g id="text_33">
     <!-- 3 -->
     <g transform="translate(819.48625 80.223818) scale(0.12 -0.12)">
      <use xlink:href="#DejaVuSans-33"/>
     </g>
    </g>
    <g id="patch_222">
     <path d="M 785.88625 97.837568 
L 809.88625 97.837568 
L 809.88625 89.437568 
L 785.88625 89.437568 
z
" style="fill: #9467bd"/>
    </g>
    <g id="text_34">
     <!-- 4 -->
     <g transform="translate(819.48625 97.837568) scale(0.12 -0.12)">
      <use xlink:href="#DejaVuSans-34"/>
     </g>
    </g>
    <g id="patch_223">
     <path d="M 785.88625 115.451318 
L 809.88625 115.451318 
L 809.88625 107.051318 
L 785.88625 107.051318 
z
" style="fill: #8c564b"/>
    </g>
    <g id="text_35">
     <!-- 5 -->
     <g transform="translate(819.48625 115.451318) scale(0.12 -0.12)">
      <use xlink:href="#DejaVuSans-35"/>
     </g>
    </g>
    <g id="patch_224">
     <path d="M 785.88625 133.065068 
L 809.88625 133.065068 
L 809.88625 124.665068 
L 785.88625 124.665068 
z
" style="fill: #e377c2"/>
    </g>
    <g id="text_36">
     <!-- 6 -->
     <g transform="translate(819.48625 133.065068) scale(0.12 -0.12)">
      <use xlink:href="#DejaVuSans-36"/>
     </g>
    </g>
    <g id="patch_225">
     <path d="M 785.88625 150.678818 
L 809.88625 150.678818 
L 809.88625 142.278818 
L 785.88625 142.278818 
z
" style="fill: #7f7f7f"/>
    </g>
    <g id="text_37">
     <!-- 7 -->
     <g transform="translate(819.48625 150.678818) scale(0.12 -0.12)">
      <use xlink:href="#DejaVuSans-37"/>
     </g>
    </g>
    <g id="patch_226">
     <path d="M 785.88625 168.292568 
L 809.88625 168.292568 
L 809.88625 159.892568 
L 785.88625 159.892568 
z
" style="fill: #bcbd22"/>
    </g>
    <g id="text_38">
     <!-- 8 -->
     <g transform="translate(819.48625 168.292568) scale(0.12 -0.12)">
      <use xlink:href="#DejaVuSans-38"/>
     </g>
    </g>
    <g id="patch_227">
     <path d="M 785.88625 185.906318 
L 809.88625 185.906318 
L 809.88625 177.506318 
L 785.88625 177.506318 
z
" style="fill: #17becf"/>
    </g>
    <g id="text_39">
     <!-- 9 -->
     <g transform="translate(819.48625 185.906318) scale(0.12 -0.12)">
      <use xlink:href="#DejaVuSans-39"/>
     </g>
    </g>
   </g>
  </g>
 </g>
 <defs>
  <clipPath id="pdf83efd4e1">
   <rect x="72.23125" y="7.464443" width="765.69" height="500.59479"/>
  </clipPath>
 </defs>
</svg>
